<?xml version="1.0" encoding="utf-8"?>
<!-- Created with "sPlan" (http://www.abacom-online.de) -->
<svg version="1.1" baseProfile="full"
xmlns="http://www.w3.org/2000/svg"
width="20mm" height="20mm"
viewBox="0 0 208 205">
<title>ANG_FET</title>
<defs>
<style type="text/css">
<![CDATA[
polyline {stroke-linecap:round; stroke-linejoin:round}
polygon {stroke-linecap:round; stroke-linejoin:round}
path {stroke-linecap:round; stroke-linejoin:round}
circle {stroke-linecap:round; stroke-linejoin:round}
]]>
</style>
</defs>
<polyline points="61.34 84.56 81.34 84.56 81.34 64.56 81.34 104.56" fill="none" stroke="rgb(0,0,255)" stroke-width="2" />
<polyline points="91.34 54.56 91.34 114.56" fill="none" stroke="rgb(0,0,255)" stroke-width="2" />
<polyline points="91.34 84.56 121.34 84.56 121.34 124.56" fill="none" stroke="rgb(0,0,255)" stroke-width="2" />
<polyline points="101.54 81.86 91.34 84.56 101.54 87.26" fill="none" stroke="rgb(0,0,255)" stroke-width="2" />
<polyline points="91.34 64.56 121.34 64.56 121.34 44.56" fill="none" stroke="rgb(0,0,255)" stroke-width="2" />
<polyline points="91.34 104.56 121.34 104.56" fill="none" stroke="rgb(0,0,255)" stroke-width="2" />
<path fill="rgb(255,0,0)" stroke="rgb(255,0,0)" stroke-width="2" d=" M 58 83 C 58 81 60 81 60 81 L 63 81 L 63 81 C 65 81 65 83 65 83 L 65 86 L 65 86 C 65 88 63 88 63 88 L 60 88 L 60 88 C 58 88 58 86 58 86 L 58 83 Z" />
<path fill="rgb(255,0,0)" stroke="rgb(255,0,0)" stroke-width="2" d=" M 118 43 C 118 41 120 41 120 41 L 123 41 L 123 41 C 125 41 125 43 125 43 L 125 46 L 125 46 C 125 48 123 48 123 48 L 120 48 L 120 48 C 118 48 118 46 118 46 L 118 43 Z" />
<path fill="rgb(255,0,0)" stroke="rgb(255,0,0)" stroke-width="2" d=" M 118 123 C 118 121 120 121 120 121 L 123 121 L 123 121 C 125 121 125 123 125 123 L 125 126 L 125 126 C 125 128 123 128 123 128 L 120 128 L 120 128 C 118 128 118 126 118 126 L 118 123 Z" />
<path fill="rgb(0,0,0)" stroke="rgb(0,0,0)" stroke-width="0" d=" M 39.86 157.85 L 47.89 135.60 50.03 135.60 58.01 157.85 55.36 157.85 53.07 150.90 44.81 150.90 42.51 157.85 Z M 45.73 148.12 L 52.16 148.12 50.35 142.65 50.00 141.58 49.69 140.62 49.41 139.77 49.16 139.02 48.95 138.38 48.73 139.07 48.49 139.80 48.23 140.55 47.97 141.34 47.70 142.17 Z M 60.69 157.85 L 60.71 135.60 63.39 135.60 73.86 153.23 73.88 135.60 76.38 135.60 76.36 157.85 73.68 157.85 63.21 140.22 63.20 157.85 Z M 90.17 149.16 L 90.17 146.38 98.32 146.38 98.31 154.70 97.53 155.36 96.73 155.95 95.92 156.48 95.11 156.93 94.28 157.32 93.45 157.64 92.61 157.88 91.76 158.06 90.90 158.17 90.03 158.20 88.87 158.14 87.76 157.98 86.69 157.70 85.66 157.30 84.67 156.80 83.76 156.19 82.94 155.48 82.21 154.67 81.58 153.76 81.04 152.75 80.60 151.67 80.26 150.53 80.02 149.35 79.87 148.12 79.82 146.84 79.87 145.56 80.02 144.31 80.27 143.10 80.61 141.93 81.05 140.79 81.58 139.72 82.20 138.77 82.91 137.94 83.69 137.22 84.57 136.62 85.51 136.13 86.51 135.74 87.57 135.47 88.68 135.31 89.85 135.25 90.70 135.28 91.52 135.38 92.30 135.54 93.05 135.76 93.77 136.04 94.44 136.38 95.05 136.78 95.60 137.22 96.09 137.70 96.52 138.24 96.90 138.84 97.24 139.51 97.55 140.25 97.81 141.05 98.03 141.92 95.72 142.65 95.53 142.02 95.32 141.45 95.09 140.93 94.84 140.47 94.58 140.07 94.28 139.72 93.94 139.39 93.55 139.10 93.11 138.83 92.63 138.59 92.11 138.39 91.57 138.24 91.00 138.12 90.42 138.06 89.81 138.03 89.09 138.06 88.41 138.13 87.76 138.25 87.16 138.42 86.60 138.63 86.08 138.89 85.60 139.18 85.16 139.49 84.77 139.84 84.41 140.21 84.09 140.61 83.81 141.02 83.55 141.45 83.32 141.89 83.12 142.35 82.84 143.17 82.62 144.02 82.46 144.89 82.36 145.79 82.33 146.72 82.37 147.84 82.48 148.89 82.67 149.86 82.93 150.75 83.27 151.57 83.68 152.31 84.16 152.97 84.71 153.55 85.32 154.05 86.01 154.47 86.74 154.81 87.48 155.08 88.25 155.27 89.03 155.38 89.83 155.42 90.53 155.39 91.22 155.30 91.91 155.16 92.59 154.96 93.26 154.70 93.90 154.41 94.47 154.12 94.98 153.81 95.43 153.50 95.81 153.18 95.81 149.16 Z M 99.87 164.11 L 99.87 161.33 116.17 161.33 116.17 164.11 Z M 117.74 157.85 L 117.76 135.60 131.24 135.60 131.24 138.38 120.27 138.38 120.26 144.99 129.67 144.99 129.67 147.77 120.26 147.77 120.25 157.85 Z M 134.67 157.85 L 134.69 135.60 149.11 135.60 149.11 138.38 137.20 138.38 137.19 144.99 148.48 144.99 148.48 147.77 137.19 147.77 137.19 155.07 149.41 155.07 149.41 157.85 Z M 158.18 157.85 L 158.20 138.38 151.62 138.38 151.62 135.60 167.29 135.60 167.29 138.38 160.71 138.38 160.69 157.85 Z" />
<path fill="rgb(0,0,255)" stroke="rgb(0,0,255)" stroke-width="0" d=" M 141.92 103.40 L 139.89 103.40 139.89 96.77 145.98 96.77 146.47 97.41 146.91 98.06 147.29 98.71 147.62 99.38 147.91 100.05 148.14 100.73 148.32 101.41 148.45 102.10 148.53 102.80 148.55 103.51 148.51 104.45 148.39 105.36 148.18 106.23 147.90 107.06 147.53 107.86 147.08 108.61 146.56 109.28 145.97 109.87 145.30 110.38 144.56 110.82 143.76 111.17 142.93 111.45 142.06 111.65 141.16 111.77 140.22 111.81 139.28 111.77 138.37 111.65 137.48 111.45 136.62 111.17 135.78 110.81 135.00 110.38 134.31 109.87 133.70 109.30 133.17 108.66 132.73 107.95 132.37 107.18 132.09 106.37 131.89 105.51 131.77 104.60 131.73 103.66 131.75 102.96 131.82 102.30 131.94 101.66 132.10 101.05 132.31 100.46 132.56 99.92 132.84 99.42 133.17 98.97 133.52 98.58 133.92 98.23 134.36 97.92 134.85 97.64 135.39 97.40 135.98 97.18 136.62 97.00 137.15 98.88 136.69 99.04 136.27 99.21 135.89 99.39 135.55 99.59 135.26 99.81 135.00 100.05 134.76 100.33 134.54 100.64 134.35 101.00 134.17 101.39 134.03 101.82 133.91 102.26 133.83 102.72 133.78 103.19 133.77 103.69 133.78 104.27 133.84 104.83 133.92 105.35 134.05 105.84 134.21 106.30 134.39 106.72 134.60 107.11 134.83 107.47 135.09 107.79 135.36 108.08 135.65 108.34 135.96 108.57 136.27 108.78 136.60 108.97 136.93 109.13 137.53 109.36 138.16 109.54 138.80 109.67 139.46 109.74 140.14 109.77 140.96 109.74 141.72 109.65 142.44 109.50 143.09 109.28 143.69 109.01 144.23 108.67 144.72 108.28 145.14 107.84 145.51 107.34 145.82 106.78 146.07 106.19 146.26 105.58 146.40 104.96 146.49 104.32 146.51 103.67 146.49 103.10 146.43 102.54 146.33 101.98 146.18 101.43 145.99 100.88 145.78 100.36 145.56 99.89 145.34 99.48 145.11 99.12 144.87 98.81 141.92 98.81 Z M 146.77 86.07 L 147.14 86.45 147.46 86.84 147.74 87.24 147.97 87.64 148.15 88.05 148.30 88.46 148.41 88.88 148.49 89.32 148.54 89.77 148.55 90.23 148.51 90.97 148.40 91.63 148.20 92.22 147.93 92.74 147.59 93.19 147.18 93.56 146.72 93.85 146.23 94.06 145.69 94.18 145.11 94.22 144.76 94.21 144.43 94.16 144.11 94.08 143.80 93.97 143.50 93.83 143.22 93.67 142.96 93.48 142.73 93.27 142.52 93.05 142.33 92.80 142.16 92.54 142.01 92.27 141.87 91.98 141.76 91.68 141.66 91.37 141.59 91.12 141.53 90.81 141.47 90.46 141.41 90.06 141.35 89.61 141.23 88.70 141.10 87.89 140.96 87.18 140.81 86.58 140.65 86.07 140.52 86.07 140.41 86.06 140.31 86.06 140.24 86.06 140.20 86.06 139.79 86.08 139.44 86.15 139.14 86.26 138.89 86.42 138.69 86.62 138.48 86.95 138.31 87.34 138.19 87.79 138.12 88.30 138.10 88.87 138.12 89.40 138.16 89.87 138.24 90.29 138.35 90.64 138.49 90.94 138.67 91.19 138.90 91.42 139.18 91.61 139.51 91.78 139.89 91.92 139.63 93.96 139.16 93.84 138.72 93.69 138.32 93.51 137.96 93.31 137.64 93.08 137.35 92.81 137.09 92.50 136.85 92.14 136.65 91.74 136.47 91.30 136.32 90.82 136.21 90.31 136.13 89.77 136.08 89.21 136.06 88.61 136.08 88.02 136.12 87.48 136.19 86.99 136.29 86.54 136.42 86.14 136.58 85.78 136.74 85.46 136.92 85.18 137.12 84.94 137.33 84.74 137.56 84.57 137.82 84.43 138.09 84.30 138.39 84.20 138.72 84.12 138.95 84.08 139.25 84.05 139.61 84.04 140.03 84.02 140.50 84.02 143.04 84.02 144.03 84.02 144.88 84.01 145.59 83.99 146.16 83.96 146.58 83.92 146.94 83.87 147.29 83.81 147.63 83.73 147.97 83.63 148.30 83.52 148.30 85.56 148.03 85.71 147.74 85.83 147.43 85.93 147.11 86.01 146.77 86.07 Z M 142.69 86.06 L 142.83 86.55 142.97 87.12 143.09 87.77 143.21 88.52 143.31 89.35 143.38 89.82 143.44 90.23 143.50 90.58 143.57 90.87 143.65 91.11 143.73 91.31 143.82 91.48 143.93 91.64 144.05 91.78 144.18 91.90 144.33 92.00 144.48 92.08 144.64 92.14 144.80 92.17 144.97 92.18 145.22 92.16 145.46 92.09 145.68 91.96 145.89 91.79 146.07 91.58 146.23 91.31 146.35 91.00 146.44 90.65 146.50 90.24 146.51 89.80 146.49 89.34 146.44 88.91 146.34 88.50 146.20 88.10 146.03 87.73 145.82 87.39 145.60 87.08 145.37 86.82 145.11 86.59 144.84 86.40 144.61 86.28 144.34 86.19 144.02 86.13 143.66 86.09 143.27 86.08 Z M 148.30 82.86 L 131.98 76.34 131.98 74.60 148.30 68.11 148.30 70.26 143.20 72.12 143.20 78.85 148.30 80.71 Z M 141.16 78.09 L 141.16 72.86 137.15 74.33 136.37 74.62 135.66 74.88 135.04 75.10 134.49 75.30 134.02 75.47 134.53 75.66 135.06 75.85 135.61 76.06 136.19 76.27 136.80 76.49 Z M 144.73 66.94 L 144.47 64.90 144.85 64.81 145.19 64.67 145.49 64.48 145.76 64.24 145.99 63.96 146.18 63.63 146.32 63.24 146.43 62.81 146.49 62.33 146.51 61.80 146.49 61.27 146.44 60.79 146.34 60.38 146.21 60.02 146.03 59.72 145.83 59.47 145.62 59.28 145.39 59.15 145.15 59.07 144.90 59.04 144.68 59.07 144.47 59.15 144.29 59.28 144.13 59.47 143.98 59.72 143.89 59.96 143.78 60.28 143.67 60.70 143.54 61.22 143.40 61.82 143.18 62.64 142.97 63.36 142.77 63.97 142.58 64.48 142.40 64.89 142.22 65.22 142.02 65.53 141.78 65.79 141.52 66.03 141.24 66.23 140.94 66.39 140.62 66.52 140.29 66.61 139.95 66.66 139.59 66.68 139.27 66.67 138.96 66.62 138.65 66.55 138.36 66.44 138.07 66.31 137.80 66.16 137.55 65.98 137.32 65.78 137.11 65.56 136.91 65.31 136.78 65.11 136.65 64.88 136.53 64.62 136.41 64.33 136.31 64.02 136.22 63.68 136.15 63.34 136.10 62.99 136.07 62.63 136.06 62.26 136.08 61.71 136.12 61.19 136.20 60.69 136.32 60.22 136.46 59.78 136.63 59.37 136.83 59.01 137.04 58.70 137.28 58.43 137.54 58.20 137.84 58.01 138.17 57.85 138.53 57.71 138.93 57.59 139.38 57.50 139.63 59.54 139.35 59.62 139.10 59.73 138.88 59.88 138.68 60.08 138.50 60.31 138.36 60.58 138.25 60.90 138.17 61.26 138.12 61.66 138.10 62.10 138.12 62.62 138.16 63.07 138.24 63.46 138.35 63.79 138.49 64.06 138.65 64.27 138.82 64.43 139.00 64.55 139.19 64.62 139.39 64.64 139.52 64.63 139.64 64.60 139.76 64.56 139.87 64.49 139.98 64.40 140.09 64.29 140.18 64.16 140.27 64.01 140.36 63.84 140.43 63.64 140.48 63.47 140.55 63.22 140.63 62.86 140.74 62.42 140.87 61.88 141.09 61.09 141.30 60.39 141.49 59.79 141.67 59.29 141.83 58.89 141.99 58.55 142.18 58.24 142.40 57.96 142.64 57.72 142.91 57.50 143.21 57.32 143.54 57.18 143.89 57.08 144.28 57.02 144.69 57.00 145.09 57.02 145.49 57.09 145.89 57.21 146.27 57.38 146.64 57.59 146.99 57.85 147.30 58.15 147.59 58.49 147.84 58.88 148.05 59.30 148.23 59.76 148.37 60.24 148.47 60.75 148.53 61.27 148.55 61.83 148.51 62.72 148.40 63.52 148.21 64.23 147.94 64.85 147.59 65.38 147.17 65.84 146.67 66.22 146.10 66.53 145.45 66.77 144.73 66.94 Z" />
</svg>
