<?xml version="1.0" encoding="utf-8"?>
<!-- Created with "sPlan" (http://www.abacom-online.de) -->
<svg version="1.1" baseProfile="full"
xmlns="http://www.w3.org/2000/svg"
width="17mm" height="20mm"
viewBox="0 0 174 208">
<title>BEND</title>
<defs>
<style type="text/css">
<![CDATA[
polyline {stroke-linecap:round; stroke-linejoin:round}
polygon {stroke-linecap:round; stroke-linejoin:round}
path {stroke-linecap:round; stroke-linejoin:round}
circle {stroke-linecap:round; stroke-linejoin:round}
]]>
</style>
</defs>
<polyline points="44.56 117.46 67.90 117.46 67.90 103.23 100.13 103.23 100.13 67.09 115.95 67.09 115.95 44.56 115.95 67.09 133.23 67.09 133.23 103.23 133.23 131.69 104.77 131.69 67.90 131.69 67.90 117.46" fill="none" stroke="rgb(0,0,255)" stroke-width="2" />
<path fill="rgb(0,0,0)" stroke="rgb(0,0,0)" stroke-width="0" d=" M 59.30 160.55 L 59.32 138.30 66.98 138.30 67.88 138.32 68.70 138.40 69.45 138.53 70.13 138.72 70.73 138.95 71.27 139.24 71.76 139.59 72.20 139.99 72.60 140.45 72.94 140.96 73.23 141.51 73.45 142.07 73.61 142.64 73.71 143.22 73.74 143.81 73.71 144.36 73.63 144.89 73.49 145.41 73.31 145.92 73.06 146.41 72.77 146.88 72.41 147.31 72.01 147.70 71.54 148.06 71.02 148.38 71.64 148.66 72.19 149.00 72.68 149.42 73.12 149.90 73.49 150.45 73.81 151.06 74.05 151.71 74.22 152.40 74.32 153.14 74.35 153.92 74.33 154.55 74.26 155.17 74.14 155.76 73.98 156.34 73.76 156.91 73.51 157.43 73.24 157.91 72.95 158.34 72.63 158.71 72.30 159.04 71.93 159.32 71.53 159.57 71.09 159.80 70.62 160.00 70.11 160.17 69.57 160.30 68.97 160.41 68.33 160.49 67.64 160.53 66.90 160.55 Z M 61.82 147.34 L 66.40 147.34 67.11 147.33 67.73 147.30 68.26 147.25 68.71 147.18 69.08 147.10 69.49 146.96 69.85 146.78 70.17 146.58 70.45 146.34 70.69 146.07 70.88 145.76 71.03 145.43 71.14 145.07 71.21 144.68 71.23 144.26 71.21 143.85 71.15 143.47 71.05 143.11 70.91 142.76 70.73 142.44 70.51 142.15 70.26 141.89 69.97 141.68 69.64 141.50 69.28 141.37 68.85 141.26 68.32 141.18 67.67 141.12 66.92 141.09 66.06 141.08 61.83 141.08 Z M 61.81 157.77 L 66.96 157.77 67.46 157.76 67.89 157.75 68.26 157.73 68.57 157.70 68.82 157.66 69.18 157.58 69.52 157.48 69.84 157.35 70.13 157.21 70.39 157.05 70.64 156.87 70.87 156.65 71.07 156.40 71.26 156.12 71.44 155.82 71.58 155.48 71.70 155.13 71.78 154.75 71.83 154.36 71.85 153.94 71.83 153.46 71.77 153.00 71.68 152.57 71.54 152.16 71.37 151.78 71.16 151.43 70.89 151.13 70.58 150.87 70.22 150.66 69.82 150.49 69.35 150.36 68.80 150.25 68.18 150.18 67.49 150.13 66.72 150.12 61.82 150.12 Z M 77.80 160.55 L 77.82 138.30 92.24 138.30 92.24 141.08 80.33 141.08 80.32 147.68 91.60 147.68 91.60 150.47 80.32 150.47 80.31 157.77 92.54 157.77 92.53 160.55 Z M 96.29 160.55 L 96.31 138.30 99.00 138.30 109.46 155.93 109.48 138.30 111.99 138.30 111.97 160.55 109.28 160.55 98.82 142.91 98.80 160.55 Z M 116.36 160.55 L 116.38 138.30 123.30 138.30 124.19 138.31 125.00 138.35 125.71 138.41 126.34 138.50 126.88 138.62 127.55 138.82 128.18 139.08 128.77 139.40 129.32 139.78 129.83 140.21 130.43 140.84 130.97 141.53 131.44 142.29 131.85 143.12 132.20 144.01 132.48 144.96 132.70 145.97 132.86 147.03 132.95 148.14 132.98 149.30 132.96 150.29 132.90 151.24 132.79 152.13 132.64 152.99 132.44 153.79 132.22 154.55 131.97 155.25 131.69 155.90 131.39 156.49 131.07 157.03 130.73 157.52 130.37 157.97 130.00 158.38 129.63 158.74 129.23 159.05 128.82 159.33 128.37 159.58 127.89 159.81 127.38 160.00 126.84 160.17 126.26 160.30 125.65 160.41 125.00 160.49 124.32 160.53 123.61 160.55 Z M 118.87 157.77 L 123.31 157.77 124.09 157.75 124.81 157.70 125.46 157.62 126.03 157.51 126.54 157.36 126.98 157.19 127.39 156.99 127.77 156.76 128.10 156.51 128.40 156.23 128.77 155.79 129.11 155.29 129.42 154.74 129.69 154.13 129.92 153.47 130.12 152.74 130.28 151.96 130.39 151.12 130.45 150.22 130.47 149.26 130.43 147.95 130.31 146.77 130.09 145.72 129.79 144.79 129.41 143.99 128.96 143.30 128.48 142.71 127.96 142.22 127.40 141.82 126.81 141.52 126.31 141.36 125.71 141.24 125.00 141.15 124.18 141.10 123.25 141.08 118.88 141.08 Z" />
<path fill="rgb(255,0,0)" stroke="rgb(255,0,0)" stroke-width="2" d=" M 41 116 C 41 114 43 114 43 114 L 46 114 L 46 114 C 48 114 48 116 48 116 L 48 119 L 48 119 C 48 121 46 121 46 121 L 43 121 L 43 121 C 41 121 41 119 41 119 L 41 116 Z" />
<polyline points="56.44 112.92 51.73 121.95" fill="none" stroke="rgb(0,0,255)" stroke-width="2" />
<path fill="rgb(255,0,0)" stroke="rgb(255,0,0)" stroke-width="2" d=" M 112 43 C 112 41 114 41 114 41 L 118 41 L 118 41 C 120 41 120 43 120 43 L 120 46 L 120 46 C 120 48 118 48 118 48 L 114 48 L 114 48 C 112 48 112 46 112 46 L 112 43 Z" />
</svg>
