<?xml version="1.0" encoding="utf-8"?>
<!-- Created with "sPlan" (http://www.abacom-online.de) -->
<svg version="1.1" baseProfile="full"
xmlns="http://www.w3.org/2000/svg"
width="20mm" height="14mm"
viewBox="0 0 203 143">
<title>DC_SWEEP</title>
<defs>
<style type="text/css">
<![CDATA[
polyline {stroke-linecap:round; stroke-linejoin:round}
polygon {stroke-linecap:round; stroke-linejoin:round}
path {stroke-linecap:round; stroke-linejoin:round}
circle {stroke-linecap:round; stroke-linejoin:round}
]]>
</style>
</defs>
<path fill="rgb(0,0,255)" stroke="rgb(0,0,255)" stroke-width="0" d=" M 49.38 83.23 L 49.40 57.41 57.44 57.41 58.47 57.42 59.41 57.47 60.24 57.54 60.97 57.65 61.59 57.78 62.37 58.02 63.10 58.32 63.78 58.69 64.42 59.13 65.01 59.63 65.71 60.36 66.34 61.16 66.89 62.05 67.37 63.01 67.77 64.04 68.10 65.15 68.35 66.31 68.53 67.54 68.64 68.83 68.67 70.18 68.65 71.33 68.57 72.43 68.45 73.47 68.28 74.46 68.05 75.39 67.79 76.27 67.50 77.09 67.18 77.84 66.83 78.53 66.45 79.15 66.06 79.72 65.65 80.24 65.22 80.71 64.78 81.13 64.33 81.50 63.85 81.82 63.33 82.11 62.77 82.37 62.18 82.60 61.54 82.79 60.87 82.95 60.16 83.07 59.41 83.16 58.63 83.21 57.80 83.23 Z M 52.30 80.00 L 57.45 80.00 58.36 79.99 59.19 79.93 59.94 79.84 60.61 79.71 61.19 79.54 61.72 79.34 62.19 79.10 62.62 78.84 63.01 78.54 63.35 78.22 63.79 77.71 64.18 77.14 64.54 76.49 64.85 75.79 65.13 75.01 65.36 74.17 65.53 73.27 65.66 72.29 65.74 71.24 65.76 70.13 65.72 68.61 65.57 67.24 65.32 66.02 64.98 64.94 64.53 64.02 64.01 63.22 63.45 62.53 62.85 61.96 62.20 61.50 61.51 61.15 60.94 60.97 60.24 60.82 59.41 60.72 58.46 60.66 57.39 60.64 52.31 60.64 Z M 89.05 74.05 L 91.95 74.88 91.51 76.51 90.94 77.98 90.25 79.28 89.43 80.42 88.50 81.39 87.46 82.20 86.33 82.83 85.11 83.28 83.80 83.55 82.40 83.64 80.97 83.57 79.65 83.36 78.43 83.02 77.33 82.55 76.35 81.94 75.46 81.20 74.66 80.34 73.95 79.36 73.33 78.25 72.80 77.03 72.36 75.72 72.02 74.38 71.78 73.00 71.63 71.58 71.58 70.13 71.64 68.56 71.81 67.07 72.09 65.67 72.47 64.35 72.97 63.11 73.57 61.97 74.26 60.94 75.05 60.03 75.92 59.24 76.89 58.56 77.93 58.00 79.01 57.56 80.13 57.25 81.29 57.07 82.49 57.01 83.83 57.09 85.08 57.33 86.25 57.73 87.33 58.29 88.32 59.02 89.20 59.89 89.98 60.89 90.63 62.02 91.17 63.28 91.60 64.68 88.69 65.45 88.33 64.42 87.91 63.50 87.43 62.71 86.90 62.04 86.30 61.48 85.65 61.03 84.93 60.68 84.14 60.43 83.29 60.28 82.37 60.23 81.32 60.29 80.34 60.45 79.43 60.73 78.59 61.12 77.82 61.61 77.13 62.20 76.53 62.87 76.01 63.61 75.58 64.43 75.24 65.32 74.98 66.26 74.77 67.21 74.62 68.16 74.53 69.14 74.50 70.12 74.53 71.36 74.64 72.54 74.81 73.65 75.06 74.70 75.37 75.68 75.76 76.58 76.23 77.39 76.77 78.10 77.40 78.71 78.10 79.23 78.85 79.66 79.63 79.98 80.43 80.22 81.26 80.36 82.11 80.41 83.13 80.34 84.09 80.15 84.98 79.83 85.81 79.38 86.57 78.81 87.25 78.10 87.84 77.28 88.34 76.33 88.74 75.25 89.05 74.05 Z M 103.96 74.36 L 106.87 74.36 106.97 75.11 107.11 75.82 107.30 76.46 107.53 77.05 107.81 77.59 108.13 78.07 108.53 78.52 108.98 78.93 109.51 79.30 110.09 79.63 110.73 79.91 111.39 80.13 112.09 80.28 112.82 80.38 113.58 80.41 114.25 80.38 114.89 80.31 115.50 80.20 116.08 80.03 116.62 79.82 117.13 79.56 117.57 79.28 117.97 78.95 118.31 78.59 118.59 78.20 118.82 77.78 119.00 77.36 119.13 76.92 119.21 76.48 119.24 76.03 119.22 75.58 119.16 75.16 119.06 74.75 118.93 74.37 118.76 74.02 118.52 73.68 118.21 73.37 117.81 73.08 117.34 72.80 116.78 72.55 116.31 72.38 115.64 72.16 114.80 71.92 113.76 71.64 112.54 71.32 111.31 70.99 110.24 70.66 109.33 70.35 108.57 70.03 107.98 69.73 107.35 69.32 106.79 68.88 106.29 68.40 105.87 67.88 105.51 67.33 105.22 66.74 104.99 66.13 104.83 65.48 104.73 64.81 104.70 64.12 104.74 63.35 104.86 62.59 105.06 61.86 105.35 61.15 105.71 60.46 106.15 59.82 106.67 59.24 107.26 58.72 107.92 58.27 108.66 57.88 109.45 57.57 110.28 57.32 111.14 57.15 112.04 57.04 112.97 57.01 113.99 57.04 114.96 57.15 115.88 57.34 116.75 57.59 117.58 57.93 118.34 58.33 119.03 58.80 119.64 59.34 120.18 59.95 120.64 60.63 121.03 61.36 121.34 62.13 121.57 62.94 121.72 63.79 121.79 64.67 118.88 64.67 118.74 63.84 118.50 63.09 118.17 62.42 117.75 61.85 117.24 61.36 116.62 60.95 115.90 60.64 115.07 60.41 114.13 60.28 113.09 60.23 112.00 60.28 111.05 60.41 110.21 60.63 109.50 60.94 108.92 61.34 108.45 61.81 108.08 62.30 107.82 62.84 107.66 63.41 107.61 64.02 107.64 64.55 107.75 65.03 107.94 65.48 108.20 65.89 108.53 66.26 109.01 66.61 109.73 66.97 110.68 67.33 111.86 67.70 113.28 68.06 114.72 68.42 115.95 68.76 116.98 69.09 117.81 69.39 118.43 69.68 119.15 70.12 119.80 70.60 120.36 71.12 120.84 71.69 121.25 72.30 121.57 72.95 121.83 73.64 122.01 74.37 122.11 75.14 122.15 75.95 122.11 76.76 121.98 77.55 121.77 78.32 121.48 79.08 121.10 79.81 120.65 80.50 120.12 81.13 119.52 81.70 118.84 82.20 118.10 82.63 117.29 82.99 116.45 83.27 115.57 83.47 114.65 83.60 113.69 83.64 112.49 83.59 111.37 83.46 110.33 83.25 109.37 82.94 108.50 82.55 107.69 82.07 106.97 81.51 106.31 80.85 105.72 80.11 105.21 79.29 104.78 78.39 104.44 77.45 104.19 76.46 104.03 75.43 103.96 74.36 Z M 130.67 83.23 L 124.35 57.41 127.35 57.41 131.01 74.38 131.24 75.44 131.47 76.49 131.70 77.53 131.93 78.58 132.15 79.62 132.54 78.15 132.85 76.96 133.09 76.03 133.27 75.37 133.37 74.99 138.00 57.41 142.33 57.41 145.67 70.15 146.29 72.04 146.84 73.93 147.34 75.83 147.78 77.72 148.16 79.62 148.34 78.80 148.54 77.88 148.76 76.86 149.00 75.75 149.26 74.53 152.99 57.41 156.00 57.41 149.63 83.23 146.52 83.23 140.95 63.31 140.70 62.42 140.50 61.70 140.34 61.14 140.23 60.75 140.17 60.53 139.96 61.34 139.76 62.08 139.59 62.75 139.43 63.35 139.29 63.88 134.19 83.23 Z" />
<path fill="none" stroke="rgb(0,0,255)" stroke-width="2" d=" M 41 41 L 162 41 162 102 41 102 41 41 Z" />
</svg>
