<?xml version="1.0" encoding="utf-8"?>
<!-- Created with "sPlan" (http://www.abacom-online.de) -->
<svg version="1.1" baseProfile="full"
xmlns="http://www.w3.org/2000/svg"
width="18mm" height="19mm"
viewBox="0 0 187 198">
<title>MBENDQS</title>
<defs>
<style type="text/css">
<![CDATA[
polyline {stroke-linecap:round; stroke-linejoin:round}
polygon {stroke-linecap:round; stroke-linejoin:round}
path {stroke-linecap:round; stroke-linejoin:round}
circle {stroke-linecap:round; stroke-linejoin:round}
]]>
</style>
</defs>
<polyline points="44.56 117.46 67.90 117.46 67.90 103.23 100.13 103.23 100.13 67.09 115.95 67.09 115.95 44.56 115.95 67.09 133.23 67.09 133.23 103.23 133.23 131.69 104.77 131.69 67.90 131.69 67.90 117.46" fill="none" stroke="rgb(0,0,255)" stroke-width="2" />
<path fill="rgb(0,0,0)" stroke="rgb(0,0,0)" stroke-width="0" d=" M 48.67 152.55 L 48.68 136.70 51.75 136.70 54.67 147.87 54.82 148.46 54.96 148.99 55.08 149.46 55.18 149.86 55.26 150.20 55.35 149.83 55.46 149.39 55.59 148.88 55.74 148.31 55.90 147.68 58.79 136.70 61.86 136.70 61.85 152.55 60.06 152.55 60.07 138.68 56.47 152.55 54.05 152.55 50.47 138.68 50.46 152.55 Z M 65.20 152.55 L 65.21 136.70 70.66 136.70 71.30 136.71 71.89 136.77 72.43 136.86 72.91 136.99 73.34 137.16 73.72 137.37 74.07 137.62 74.39 137.90 74.67 138.23 74.91 138.60 75.12 138.99 75.28 139.39 75.39 139.79 75.46 140.20 75.48 140.62 75.46 141.01 75.40 141.39 75.31 141.76 75.17 142.12 75.00 142.48 74.79 142.81 74.54 143.12 74.25 143.40 73.92 143.65 73.55 143.88 73.98 144.08 74.38 144.32 74.73 144.62 75.04 144.96 75.31 145.36 75.53 145.79 75.70 146.25 75.82 146.75 75.90 147.27 75.92 147.82 75.90 148.27 75.85 148.71 75.77 149.14 75.65 149.55 75.50 149.95 75.32 150.33 75.13 150.67 74.92 150.97 74.69 151.24 74.45 151.47 74.19 151.67 73.91 151.85 73.60 152.02 73.26 152.16 72.90 152.28 72.51 152.37 72.09 152.45 71.63 152.50 71.13 152.54 70.61 152.55 Z M 66.99 143.14 L 70.26 143.14 70.76 143.13 71.20 143.11 71.58 143.07 71.90 143.03 72.16 142.97 72.45 142.87 72.71 142.74 72.94 142.60 73.14 142.43 73.31 142.23 73.45 142.02 73.55 141.78 73.63 141.52 73.68 141.24 73.69 140.94 73.68 140.65 73.64 140.38 73.56 140.12 73.46 139.88 73.34 139.65 73.18 139.44 73.00 139.26 72.79 139.11 72.56 138.98 72.31 138.88 72.00 138.81 71.62 138.75 71.16 138.71 70.62 138.69 70.01 138.68 67.00 138.68 Z M 66.99 150.57 L 70.65 150.57 71.01 150.56 71.32 150.55 71.58 150.54 71.80 150.52 71.98 150.49 72.24 150.43 72.48 150.36 72.70 150.27 72.91 150.17 73.10 150.06 73.27 149.93 73.43 149.77 73.58 149.59 73.72 149.40 73.84 149.18 73.95 148.94 74.03 148.69 74.09 148.42 74.12 148.14 74.13 147.84 74.12 147.50 74.08 147.17 74.01 146.86 73.92 146.57 73.79 146.30 73.64 146.06 73.45 145.84 73.23 145.66 72.98 145.50 72.69 145.38 72.35 145.29 71.97 145.21 71.52 145.16 71.03 145.13 70.48 145.12 66.99 145.12 Z M 78.37 152.55 L 78.39 136.70 88.66 136.70 88.66 138.68 80.17 138.68 80.17 143.38 88.21 143.38 88.21 145.37 80.17 145.37 80.16 150.57 88.87 150.57 88.87 152.55 Z M 91.55 152.55 L 91.56 136.70 93.47 136.70 100.93 149.25 100.94 136.70 102.73 136.70 102.71 152.55 100.80 152.55 93.35 139.99 93.34 152.55 Z M 105.84 152.55 L 105.86 136.70 110.79 136.70 111.42 136.71 112.00 136.73 112.51 136.78 112.95 136.84 113.34 136.92 113.81 137.07 114.26 137.26 114.68 137.48 115.07 137.75 115.44 138.06 115.87 138.51 116.25 139.00 116.59 139.54 116.88 140.13 117.13 140.77 117.33 141.45 117.49 142.16 117.60 142.92 117.66 143.71 117.68 144.54 117.67 145.24 117.62 145.91 117.55 146.55 117.44 147.16 117.30 147.74 117.14 148.27 116.96 148.77 116.77 149.24 116.55 149.66 116.32 150.04 116.08 150.39 115.83 150.71 115.56 151.00 115.29 151.26 115.01 151.48 114.72 151.68 114.40 151.86 114.06 152.02 113.70 152.16 113.31 152.28 112.90 152.37 112.46 152.45 112.00 152.50 111.52 152.54 111.01 152.55 Z M 107.63 150.57 L 110.79 150.57 111.35 150.56 111.86 150.52 112.32 150.46 112.73 150.38 113.09 150.28 113.41 150.16 113.70 150.01 113.97 149.85 114.21 149.67 114.42 149.47 114.69 149.16 114.93 148.81 115.15 148.41 115.34 147.98 115.51 147.50 115.65 146.99 115.76 146.43 115.84 145.83 115.88 145.19 115.90 144.51 115.87 143.57 115.78 142.73 115.63 141.98 115.41 141.32 115.14 140.75 114.82 140.26 114.48 139.84 114.11 139.49 113.71 139.21 113.29 139.00 112.93 138.88 112.50 138.79 112.00 138.73 111.41 138.69 110.75 138.68 107.64 138.68 Z M 130.87 150.65 L 131.35 151.08 131.80 151.45 132.25 151.79 132.67 152.07 133.09 152.30 132.61 153.75 132.02 153.49 131.43 153.17 130.84 152.80 130.25 152.38 129.66 151.90 129.02 152.22 128.35 152.47 127.66 152.65 126.94 152.76 126.19 152.80 125.44 152.75 124.72 152.63 124.02 152.42 123.35 152.13 122.71 151.76 122.12 151.31 121.58 150.80 121.10 150.22 120.67 149.57 120.31 148.85 120.01 148.08 119.77 147.27 119.61 146.43 119.50 145.55 119.47 144.63 119.51 143.71 119.61 142.82 119.78 141.97 120.01 141.15 120.32 140.37 120.68 139.64 121.10 138.98 121.58 138.40 122.12 137.89 122.71 137.45 123.35 137.09 124.01 136.81 124.71 136.61 125.43 136.49 126.19 136.45 126.95 136.49 127.68 136.61 128.38 136.82 129.05 137.11 129.69 137.47 130.28 137.92 130.81 138.43 131.29 139.00 131.70 139.64 132.06 140.35 132.35 141.10 132.58 141.90 132.74 142.73 132.84 143.60 132.87 144.51 132.85 145.27 132.79 145.99 132.69 146.68 132.55 147.34 132.37 147.97 132.15 148.57 131.89 149.14 131.59 149.67 131.25 150.18 130.87 150.65 Z M 126.69 148.01 L 127.32 148.23 127.91 148.50 128.45 148.80 128.95 149.14 129.40 149.52 130.01 148.80 130.48 147.95 130.81 146.97 131.02 145.85 131.08 144.61 131.06 143.88 130.99 143.20 130.87 142.55 130.71 141.93 130.49 141.36 130.23 140.83 129.93 140.34 129.58 139.91 129.19 139.53 128.76 139.20 128.29 138.92 127.80 138.71 127.29 138.55 126.76 138.46 126.20 138.43 125.38 138.49 124.61 138.68 123.90 138.99 123.26 139.42 122.67 139.98 122.16 140.67 121.77 141.47 121.48 142.40 121.31 143.45 121.26 144.62 121.31 145.76 121.48 146.79 121.75 147.71 122.14 148.52 122.64 149.21 123.22 149.79 123.87 150.24 124.58 150.56 125.35 150.75 126.18 150.81 126.59 150.80 126.98 150.75 127.37 150.67 127.74 150.55 128.11 150.41 127.75 150.18 127.38 149.97 127.00 149.80 126.62 149.65 126.23 149.53 Z M 134.88 147.10 L 136.66 147.10 136.73 147.56 136.81 148.00 136.93 148.39 137.07 148.75 137.24 149.08 137.44 149.38 137.68 149.66 137.96 149.91 138.28 150.13 138.64 150.34 139.03 150.51 139.44 150.64 139.87 150.74 140.32 150.80 140.78 150.81 141.20 150.80 141.59 150.76 141.96 150.68 142.32 150.58 142.65 150.45 142.96 150.30 143.24 150.12 143.48 149.92 143.69 149.70 143.86 149.46 144.00 149.20 144.11 148.94 144.19 148.68 144.24 148.40 144.26 148.13 144.24 147.85 144.21 147.59 144.15 147.34 144.07 147.11 143.96 146.89 143.82 146.69 143.63 146.49 143.38 146.31 143.09 146.15 142.75 145.99 142.46 145.88 142.05 145.75 141.53 145.60 140.90 145.43 140.15 145.24 139.39 145.03 138.73 144.83 138.17 144.64 137.71 144.45 137.35 144.26 136.96 144.01 136.62 143.74 136.31 143.44 136.05 143.12 135.83 142.78 135.65 142.42 135.51 142.05 135.41 141.65 135.35 141.24 135.33 140.81 135.36 140.34 135.43 139.88 135.56 139.43 135.73 138.99 135.95 138.57 136.22 138.17 136.54 137.82 136.90 137.50 137.31 137.22 137.76 136.99 138.25 136.79 138.76 136.64 139.29 136.54 139.84 136.47 140.41 136.45 141.04 136.47 141.63 136.54 142.20 136.65 142.73 136.81 143.24 137.01 143.70 137.26 144.13 137.55 144.50 137.88 144.83 138.26 145.12 138.67 145.36 139.12 145.55 139.60 145.69 140.09 145.78 140.61 145.83 141.15 144.04 141.15 143.95 140.64 143.81 140.18 143.60 139.78 143.35 139.42 143.03 139.12 142.65 138.87 142.21 138.68 141.70 138.54 141.12 138.46 140.48 138.43 139.82 138.46 139.23 138.54 138.72 138.68 138.28 138.87 137.92 139.11 137.63 139.39 137.41 139.70 137.25 140.03 137.15 140.38 137.12 140.76 137.14 141.08 137.21 141.38 137.32 141.65 137.48 141.90 137.69 142.13 137.98 142.35 138.42 142.57 139.00 142.79 139.73 143.01 140.60 143.24 141.48 143.46 142.24 143.67 142.87 143.87 143.38 144.05 143.76 144.23 144.20 144.50 144.60 144.79 144.95 145.11 145.24 145.46 145.49 145.84 145.69 146.24 145.85 146.66 145.96 147.11 146.02 147.58 146.04 148.08 146.02 148.58 145.94 149.06 145.81 149.54 145.63 150.00 145.40 150.45 145.12 150.87 144.80 151.26 144.43 151.61 144.01 151.91 143.56 152.18 143.06 152.40 142.55 152.57 142.01 152.70 141.44 152.77 140.85 152.80 140.12 152.77 139.43 152.69 138.79 152.56 138.20 152.37 137.66 152.13 137.17 151.84 136.72 151.49 136.32 151.09 135.96 150.63 135.65 150.13 135.38 149.58 135.17 149.00 135.02 148.39 134.92 147.76 134.88 147.10 Z" />
<path fill="rgb(255,0,0)" stroke="rgb(255,0,0)" stroke-width="2" d=" M 41 116 C 41 114 43 114 43 114 L 46 114 L 46 114 C 48 114 48 116 48 116 L 48 119 L 48 119 C 48 121 46 121 46 121 L 43 121 L 43 121 C 41 121 41 119 41 119 L 41 116 Z" />
<polyline points="56.44 112.92 51.73 121.95" fill="none" stroke="rgb(0,0,255)" stroke-width="2" />
<path fill="rgb(255,0,0)" stroke="rgb(255,0,0)" stroke-width="2" d=" M 112 43 C 112 41 114 41 114 41 L 118 41 L 118 41 C 120 41 120 43 120 43 L 120 46 L 120 46 C 120 48 118 48 118 48 L 114 48 L 114 48 C 112 48 112 46 112 46 L 112 43 Z" />
<path fill="rgb(0,0,255)" stroke="rgb(0,0,255)" stroke-width="0" d=" M 111.88 121.80 L 112.41 122.28 112.92 122.71 113.42 123.08 113.90 123.39 114.36 123.65 113.82 125.28 113.16 124.99 112.50 124.63 111.84 124.22 111.18 123.74 110.53 123.20 109.81 123.57 109.06 123.85 108.28 124.05 107.47 124.17 106.63 124.21 105.79 124.16 104.98 124.02 104.20 123.79 103.45 123.47 102.73 123.05 102.06 122.55 101.46 121.97 100.92 121.32 100.45 120.59 100.04 119.78 99.70 118.92 99.43 118.02 99.25 117.07 99.13 116.08 99.10 115.05 99.14 114.02 99.25 113.03 99.44 112.07 99.70 111.16 100.04 110.28 100.45 109.46 100.93 108.72 101.47 108.07 102.07 107.49 102.73 107.00 103.44 106.60 104.19 106.28 104.97 106.06 105.78 105.92 106.63 105.88 107.48 105.92 108.30 106.06 109.09 106.29 109.84 106.61 110.55 107.03 111.22 107.52 111.82 108.10 112.35 108.74 112.81 109.46 113.21 110.25 113.54 111.10 113.80 111.99 113.98 112.92 114.09 113.90 114.12 114.92 114.10 115.76 114.03 116.58 113.92 117.35 113.77 118.10 113.56 118.80 113.32 119.47 113.03 120.11 112.69 120.71 112.31 121.27 111.88 121.80 Z M 107.19 118.85 L 107.90 119.09 108.56 119.39 109.17 119.73 109.73 120.11 110.23 120.53 110.91 119.73 111.44 118.77 111.81 117.67 112.04 116.43 112.12 115.03 112.09 114.22 112.01 113.45 111.88 112.72 111.70 112.03 111.46 111.38 111.17 110.79 110.83 110.25 110.44 109.76 110.00 109.33 109.51 108.96 108.99 108.65 108.44 108.41 107.86 108.24 107.26 108.13 106.64 108.10 105.72 108.17 104.86 108.38 104.07 108.73 103.34 109.22 102.68 109.84 102.11 110.61 101.67 111.51 101.35 112.55 101.16 113.73 101.10 115.04 101.16 116.32 101.35 117.48 101.66 118.51 102.09 119.41 102.65 120.19 103.31 120.84 104.03 121.34 104.82 121.70 105.69 121.92 106.62 121.99 107.07 121.97 107.52 121.91 107.95 121.82 108.37 121.70 108.78 121.53 108.38 121.27 107.96 121.04 107.54 120.85 107.11 120.68 106.67 120.55 Z M 116.37 117.82 L 118.38 117.82 118.44 118.34 118.54 118.83 118.67 119.27 118.83 119.68 119.02 120.05 119.25 120.38 119.52 120.69 119.83 120.97 120.19 121.22 120.60 121.45 121.03 121.64 121.49 121.79 121.97 121.90 122.47 121.97 123.00 121.99 123.46 121.97 123.90 121.92 124.32 121.84 124.72 121.73 125.09 121.58 125.44 121.41 125.75 121.21 126.02 120.99 126.25 120.74 126.45 120.47 126.61 120.18 126.73 119.89 126.82 119.59 126.87 119.29 126.89 118.98 126.88 118.67 126.84 118.37 126.77 118.10 126.68 117.83 126.56 117.59 126.40 117.36 126.18 117.14 125.91 116.94 125.58 116.75 125.20 116.58 124.87 116.46 124.42 116.31 123.83 116.14 123.12 115.95 122.28 115.73 121.43 115.50 120.70 115.28 120.07 115.06 119.55 114.85 119.14 114.64 118.71 114.36 118.32 114.05 117.98 113.72 117.69 113.36 117.44 112.98 117.24 112.58 117.08 112.16 116.97 111.71 116.90 111.25 116.88 110.77 116.91 110.24 116.99 109.73 117.13 109.22 117.33 108.73 117.58 108.26 117.88 107.81 118.24 107.41 118.64 107.06 119.10 106.75 119.61 106.48 120.15 106.27 120.72 106.10 121.32 105.97 121.94 105.90 122.58 105.88 123.28 105.90 123.95 105.98 124.58 106.11 125.18 106.28 125.75 106.51 126.27 106.79 126.74 107.11 127.17 107.49 127.54 107.91 127.86 108.37 128.13 108.88 128.34 109.41 128.50 109.96 128.60 110.55 128.65 111.16 126.65 111.16 126.55 110.58 126.39 110.07 126.16 109.61 125.87 109.21 125.51 108.87 125.09 108.59 124.59 108.38 124.02 108.22 123.38 108.13 122.66 108.10 121.91 108.13 121.25 108.22 120.68 108.37 120.19 108.59 119.79 108.86 119.46 109.18 119.21 109.53 119.03 109.89 118.92 110.29 118.88 110.71 118.91 111.07 118.99 111.40 119.11 111.71 119.29 111.99 119.52 112.25 119.85 112.49 120.35 112.74 121.00 112.99 121.81 113.24 122.79 113.49 123.78 113.74 124.63 113.97 125.34 114.20 125.90 114.41 126.33 114.61 126.83 114.91 127.28 115.24 127.66 115.60 128.00 115.99 128.27 116.41 128.50 116.86 128.67 117.33 128.80 117.83 128.87 118.36 128.89 118.92 128.86 119.48 128.78 120.02 128.63 120.55 128.43 121.07 128.17 121.58 127.86 122.05 127.50 122.49 127.08 122.87 126.62 123.22 126.11 123.52 125.55 123.77 124.97 123.96 124.37 124.10 123.73 124.18 123.07 124.21 122.25 124.18 121.48 124.09 120.76 123.94 120.10 123.73 119.50 123.46 118.94 123.13 118.44 122.74 117.99 122.30 117.59 121.79 117.23 121.21 116.94 120.60 116.70 119.95 116.53 119.27 116.42 118.56 116.37 117.82 Z" />
</svg>
