<?xml version="1.0" encoding="utf-8"?>
<!-- Created with "sPlan" (http://www.abacom-online.de) -->
<svg version="1.1" baseProfile="full"
xmlns="http://www.w3.org/2000/svg"
width="19mm" height="20mm"
viewBox="0 0 196 208">
<title>MBEND2</title>
<defs>
<style type="text/css">
<![CDATA[
polyline {stroke-linecap:round; stroke-linejoin:round}
polygon {stroke-linecap:round; stroke-linejoin:round}
path {stroke-linecap:round; stroke-linejoin:round}
circle {stroke-linecap:round; stroke-linejoin:round}
]]>
</style>
</defs>
<polyline points="45.45 117.46 68.79 117.46 68.79 103.23 101.02 103.23 101.02 67.09 116.84 67.09 116.84 44.56 116.84 67.09 134.13 67.09 134.13 103.23 105.66 131.69 68.79 131.69 68.79 117.46" fill="none" stroke="rgb(0,0,255)" stroke-width="2" />
<path fill="rgb(0,0,0)" stroke="rgb(0,0,0)" stroke-width="0" d=" M 42.19 160.55 L 42.21 138.30 46.51 138.30 50.61 153.98 50.83 154.81 51.02 155.56 51.19 156.21 51.33 156.78 51.45 157.26 51.58 156.73 51.73 156.11 51.91 155.40 52.11 154.60 52.34 153.71 56.39 138.30 60.71 138.30 60.69 160.55 58.18 160.55 58.20 141.08 53.14 160.55 49.75 160.55 44.72 141.08 44.70 160.55 Z M 65.39 160.55 L 65.41 138.30 73.07 138.30 73.97 138.32 74.79 138.40 75.54 138.53 76.22 138.72 76.82 138.95 77.36 139.24 77.85 139.59 78.29 139.99 78.69 140.45 79.03 140.96 79.32 141.51 79.54 142.07 79.70 142.64 79.80 143.22 79.83 143.81 79.80 144.36 79.72 144.89 79.58 145.41 79.40 145.92 79.15 146.41 78.86 146.88 78.50 147.31 78.10 147.70 77.63 148.06 77.11 148.38 77.73 148.66 78.28 149.00 78.77 149.42 79.21 149.90 79.58 150.45 79.90 151.06 80.14 151.71 80.31 152.40 80.41 153.14 80.44 153.92 80.42 154.55 80.35 155.17 80.23 155.76 80.07 156.34 79.85 156.91 79.60 157.43 79.33 157.91 79.04 158.34 78.72 158.71 78.39 159.04 78.02 159.32 77.62 159.57 77.18 159.80 76.71 160.00 76.21 160.17 75.66 160.30 75.06 160.41 74.42 160.49 73.73 160.53 72.99 160.55 Z M 67.91 147.34 L 72.49 147.34 73.20 147.33 73.82 147.30 74.35 147.25 74.80 147.18 75.17 147.10 75.58 146.96 75.94 146.78 76.26 146.58 76.54 146.34 76.78 146.07 76.97 145.76 77.12 145.43 77.23 145.07 77.30 144.68 77.32 144.26 77.30 143.85 77.24 143.47 77.14 143.11 77.00 142.76 76.82 142.44 76.60 142.15 76.35 141.89 76.06 141.68 75.73 141.50 75.37 141.37 74.95 141.26 74.41 141.18 73.76 141.12 73.01 141.09 72.15 141.08 67.92 141.08 Z M 67.91 157.77 L 73.05 157.77 73.55 157.76 73.98 157.75 74.35 157.73 74.66 157.70 74.91 157.66 75.27 157.58 75.61 157.48 75.93 157.35 76.22 157.21 76.48 157.05 76.73 156.87 76.96 156.65 77.16 156.40 77.36 156.12 77.53 155.82 77.67 155.48 77.79 155.13 77.87 154.75 77.92 154.36 77.94 153.94 77.92 153.46 77.86 153.00 77.77 152.57 77.63 152.16 77.46 151.78 77.25 151.43 76.98 151.13 76.67 150.87 76.31 150.66 75.91 150.49 75.44 150.36 74.89 150.25 74.28 150.18 73.58 150.13 72.81 150.12 67.91 150.12 Z M 83.89 160.55 L 83.91 138.30 98.33 138.30 98.33 141.08 86.42 141.08 86.41 147.68 97.69 147.68 97.69 150.47 86.41 150.47 86.40 157.77 98.63 157.77 98.62 160.55 Z M 102.38 160.55 L 102.40 138.30 105.09 138.30 115.56 155.93 115.57 138.30 118.08 138.30 118.06 160.55 115.37 160.55 104.91 142.91 104.89 160.55 Z M 122.45 160.55 L 122.47 138.30 129.39 138.30 130.28 138.31 131.09 138.35 131.80 138.41 132.43 138.50 132.97 138.62 133.64 138.82 134.27 139.08 134.86 139.40 135.41 139.78 135.92 140.21 136.52 140.84 137.06 141.53 137.53 142.29 137.94 143.12 138.29 144.01 138.57 144.96 138.79 145.97 138.95 147.03 139.04 148.14 139.07 149.30 139.05 150.29 138.99 151.24 138.88 152.13 138.73 152.99 138.54 153.79 138.31 154.55 138.06 155.25 137.78 155.90 137.48 156.49 137.16 157.03 136.82 157.52 136.46 157.97 136.10 158.38 135.72 158.74 135.32 159.05 134.91 159.33 134.46 159.58 133.98 159.81 133.47 160.00 132.93 160.17 132.35 160.30 131.74 160.41 131.09 160.49 130.41 160.53 129.70 160.55 Z M 124.96 157.77 L 129.40 157.77 130.18 157.75 130.90 157.70 131.55 157.62 132.12 157.51 132.63 157.36 133.07 157.19 133.49 156.99 133.86 156.76 134.19 156.51 134.49 156.23 134.86 155.79 135.20 155.29 135.51 154.74 135.78 154.13 136.01 153.47 136.21 152.74 136.37 151.96 136.48 151.12 136.54 150.22 136.56 149.26 136.52 147.95 136.40 146.77 136.18 145.72 135.88 144.79 135.50 143.99 135.05 143.30 134.57 142.71 134.05 142.22 133.49 141.82 132.90 141.52 132.40 141.36 131.80 141.24 131.09 141.15 130.27 141.10 129.34 141.08 124.97 141.08 Z M 154.43 157.77 L 154.42 160.55 141.26 160.55 141.26 160.15 141.29 159.76 141.34 159.38 141.42 159.00 141.53 158.63 141.74 158.03 142.00 157.43 142.31 156.84 142.66 156.25 143.06 155.68 143.52 155.09 144.06 154.47 144.69 153.83 145.41 153.16 146.20 152.45 147.42 151.30 148.45 150.27 149.32 149.34 150.01 148.52 150.53 147.82 150.92 147.18 151.23 146.54 151.44 145.91 151.57 145.29 151.62 144.67 151.57 144.08 151.45 143.54 151.25 143.03 150.96 142.55 150.60 142.12 150.16 141.74 149.68 141.45 149.15 141.24 148.57 141.12 147.93 141.08 147.26 141.12 146.65 141.24 146.10 141.44 145.60 141.73 145.15 142.09 144.77 142.53 144.48 143.03 144.27 143.59 144.14 144.22 144.09 144.90 141.58 144.55 141.74 143.39 142.02 142.34 142.40 141.41 142.90 140.60 143.51 139.90 144.22 139.32 145.03 138.87 145.92 138.55 146.91 138.36 147.99 138.30 149.07 138.37 150.07 138.58 150.96 138.94 151.77 139.44 152.48 140.08 153.07 140.83 153.53 141.64 153.86 142.53 154.06 143.48 154.12 144.50 154.11 145.04 154.05 145.57 153.96 146.09 153.84 146.62 153.68 147.14 153.47 147.66 153.22 148.20 152.93 148.74 152.58 149.30 152.19 149.87 151.72 150.48 151.12 151.16 150.40 151.92 149.56 152.76 148.59 153.68 147.77 154.41 147.08 155.05 146.50 155.59 146.04 156.02 145.71 156.35 145.44 156.63 145.20 156.92 144.97 157.20 144.76 157.48 144.58 157.77 Z" />
<path fill="rgb(255,0,0)" stroke="rgb(255,0,0)" stroke-width="2" d=" M 42 116 C 42 114 44 114 44 114 L 47 114 L 47 114 C 49 114 49 116 49 116 L 49 119 L 49 119 C 49 121 47 121 47 121 L 44 121 L 44 121 C 42 121 42 119 42 119 L 42 116 Z" />
<polyline points="57.33 112.92 52.63 121.95" fill="none" stroke="rgb(0,0,255)" stroke-width="2" />
<path fill="rgb(255,0,0)" stroke="rgb(255,0,0)" stroke-width="2" d=" M 113 43 C 113 41 115 41 115 41 L 119 41 L 119 41 C 120 41 120 43 120 43 L 120 46 L 120 46 C 120 48 119 48 119 48 L 115 48 L 115 48 C 113 48 113 46 113 46 L 113 43 Z" />
</svg>
