<?xml version="1.0" encoding="utf-8"?>
<!-- Created with "sPlan" (http://www.abacom-online.de) -->
<svg version="1.1" baseProfile="full"
xmlns="http://www.w3.org/2000/svg"
width="18mm" height="20mm"
viewBox="0 0 187 208">
<title>MBEND</title>
<defs>
<style type="text/css">
<![CDATA[
polyline {stroke-linecap:round; stroke-linejoin:round}
polygon {stroke-linecap:round; stroke-linejoin:round}
path {stroke-linecap:round; stroke-linejoin:round}
circle {stroke-linecap:round; stroke-linejoin:round}
]]>
</style>
</defs>
<polyline points="44.56 117.46 67.90 117.46 67.90 103.23 100.13 103.23 100.13 67.09 115.95 67.09 115.95 44.56 115.95 67.09 133.23 67.09 133.23 103.23 133.23 131.69 104.77 131.69 67.90 131.69 67.90 117.46" fill="none" stroke="rgb(0,0,255)" stroke-width="2" />
<path fill="rgb(0,0,0)" stroke="rgb(0,0,0)" stroke-width="0" d=" M 49.30 160.55 L 49.32 138.30 53.62 138.30 57.72 153.98 57.94 154.81 58.13 155.56 58.30 156.21 58.44 156.78 58.55 157.26 58.68 156.73 58.84 156.11 59.02 155.40 59.22 154.60 59.45 153.71 63.50 138.30 67.82 138.30 67.80 160.55 65.29 160.55 65.31 141.08 60.25 160.55 56.86 160.55 51.83 141.08 51.81 160.55 Z M 72.50 160.55 L 72.52 138.30 80.18 138.30 81.07 138.32 81.90 138.40 82.65 138.53 83.32 138.72 83.93 138.95 84.47 139.24 84.96 139.59 85.40 139.99 85.79 140.45 86.14 140.96 86.43 141.51 86.65 142.07 86.81 142.64 86.90 143.22 86.94 143.81 86.91 144.36 86.83 144.89 86.69 145.41 86.50 145.92 86.26 146.41 85.96 146.88 85.61 147.31 85.20 147.70 84.74 148.06 84.22 148.38 84.83 148.66 85.39 149.00 85.88 149.42 86.32 149.90 86.69 150.45 87.00 151.06 87.25 151.71 87.42 152.40 87.52 153.14 87.55 153.92 87.53 154.55 87.46 155.17 87.34 155.76 87.17 156.34 86.96 156.91 86.71 157.43 86.44 157.91 86.15 158.34 85.83 158.71 85.50 159.04 85.13 159.32 84.73 159.57 84.29 159.80 83.82 160.00 83.31 160.17 82.76 160.30 82.17 160.41 81.53 160.49 80.84 160.53 80.10 160.55 Z M 75.02 147.34 L 79.60 147.34 80.31 147.33 80.93 147.30 81.46 147.25 81.91 147.18 82.28 147.10 82.68 146.96 83.05 146.78 83.37 146.58 83.65 146.34 83.89 146.07 84.08 145.76 84.23 145.43 84.34 145.07 84.41 144.68 84.43 144.26 84.41 143.85 84.35 143.47 84.25 143.11 84.11 142.76 83.93 142.44 83.71 142.15 83.45 141.89 83.16 141.68 82.84 141.50 82.48 141.37 82.05 141.26 81.52 141.18 80.87 141.12 80.12 141.09 79.26 141.08 75.03 141.08 Z M 75.01 157.77 L 80.16 157.77 80.65 157.76 81.09 157.75 81.46 157.73 81.77 157.70 82.02 157.66 82.38 157.58 82.72 157.48 83.04 157.35 83.33 157.21 83.59 157.05 83.84 156.87 84.06 156.65 84.27 156.40 84.46 156.12 84.64 155.82 84.78 155.48 84.90 155.13 84.98 154.75 85.03 154.36 85.04 153.94 85.03 153.46 84.97 153.00 84.88 152.57 84.74 152.16 84.57 151.78 84.35 151.43 84.09 151.13 83.78 150.87 83.42 150.66 83.01 150.49 82.55 150.36 82.00 150.25 81.38 150.18 80.69 150.13 79.92 150.12 75.02 150.12 Z M 91.00 160.55 L 91.02 138.30 105.44 138.30 105.44 141.08 93.52 141.08 93.51 147.68 104.80 147.68 104.80 150.47 93.51 150.47 93.51 157.77 105.73 157.77 105.73 160.55 Z M 109.49 160.55 L 109.51 138.30 112.20 138.30 122.66 155.93 122.68 138.30 125.19 138.30 125.17 160.55 122.48 160.55 112.01 142.91 112.00 160.55 Z M 129.55 160.55 L 129.57 138.30 136.50 138.30 137.39 138.31 138.19 138.35 138.91 138.41 139.54 138.50 140.08 138.62 140.75 138.82 141.38 139.08 141.97 139.40 142.51 139.78 143.02 140.21 143.63 140.84 144.17 141.53 144.64 142.29 145.05 143.12 145.40 144.01 145.68 144.96 145.90 145.97 146.06 147.03 146.15 148.14 146.18 149.30 146.16 150.29 146.09 151.24 145.99 152.13 145.84 152.99 145.64 153.79 145.42 154.55 145.17 155.25 144.89 155.90 144.59 156.49 144.27 157.03 143.92 157.52 143.57 157.97 143.20 158.38 142.82 158.74 142.43 159.05 142.02 159.33 141.57 159.58 141.09 159.81 140.58 160.00 140.03 160.17 139.46 160.30 138.84 160.41 138.20 160.49 137.52 160.53 136.81 160.55 Z M 132.07 157.77 L 136.51 157.77 137.29 157.75 138.01 157.70 138.65 157.62 139.23 157.51 139.73 157.36 140.18 157.19 140.59 156.99 140.96 156.76 141.30 156.51 141.59 156.23 141.97 155.79 142.31 155.29 142.61 154.74 142.89 154.13 143.12 153.47 143.32 152.74 143.47 151.96 143.58 151.12 143.65 150.22 143.67 149.26 143.63 147.95 143.50 146.77 143.29 145.72 142.99 144.79 142.61 143.99 142.16 143.30 141.68 142.71 141.16 142.22 140.60 141.82 140.01 141.52 139.51 141.36 138.91 141.24 138.20 141.15 137.38 141.10 136.45 141.08 132.08 141.08 Z" />
<path fill="rgb(255,0,0)" stroke="rgb(255,0,0)" stroke-width="2" d=" M 41 116 C 41 114 43 114 43 114 L 46 114 L 46 114 C 48 114 48 116 48 116 L 48 119 L 48 119 C 48 121 46 121 46 121 L 43 121 L 43 121 C 41 121 41 119 41 119 L 41 116 Z" />
<polyline points="56.44 112.92 51.73 121.95" fill="none" stroke="rgb(0,0,255)" stroke-width="2" />
<path fill="rgb(255,0,0)" stroke="rgb(255,0,0)" stroke-width="2" d=" M 112 43 C 112 41 114 41 114 41 L 118 41 L 118 41 C 120 41 120 43 120 43 L 120 46 L 120 46 C 120 48 118 48 118 48 L 114 48 L 114 48 C 112 48 112 46 112 46 L 112 43 Z" />
</svg>
