<?xml version="1.0" encoding="utf-8"?>
<!-- Created with "sPlan" (http://www.abacom-online.de) -->
<svg version="1.1" baseProfile="full"
xmlns="http://www.w3.org/2000/svg"
width="19mm" height="19mm"
viewBox="0 0 197 199">
<title>MBEND2QS</title>
<defs>
<style type="text/css">
<![CDATA[
polyline {stroke-linecap:round; stroke-linejoin:round}
polygon {stroke-linecap:round; stroke-linejoin:round}
path {stroke-linecap:round; stroke-linejoin:round}
circle {stroke-linecap:round; stroke-linejoin:round}
]]>
</style>
</defs>
<polyline points="44.56 117.46 67.90 117.46 67.90 103.23 100.13 103.23 100.13 67.09 115.95 67.09 115.95 44.56 115.95 67.09 133.23 67.09 133.23 103.23 104.77 131.69 67.90 131.69 67.90 117.46" fill="none" stroke="rgb(0,0,255)" stroke-width="2" />
<path fill="rgb(0,0,0)" stroke="rgb(0,0,0)" stroke-width="0" d=" M 42.74 153.41 L 42.75 136.87 45.95 136.87 49.00 148.53 49.16 149.14 49.30 149.70 49.42 150.18 49.53 150.60 49.62 150.96 49.71 150.57 49.83 150.11 49.96 149.58 50.11 148.99 50.28 148.32 53.29 136.87 56.50 136.87 56.49 153.41 54.62 153.41 54.64 138.94 50.88 153.41 48.35 153.41 44.62 138.94 44.60 153.41 Z M 59.98 153.41 L 60.00 136.87 65.69 136.87 66.35 136.89 66.97 136.95 67.52 137.04 68.03 137.18 68.47 137.35 68.87 137.57 69.24 137.83 69.57 138.13 69.86 138.47 70.12 138.85 70.33 139.26 70.50 139.67 70.62 140.10 70.69 140.53 70.71 140.97 70.69 141.37 70.63 141.77 70.53 142.15 70.39 142.53 70.21 142.90 69.99 143.25 69.73 143.57 69.42 143.86 69.08 144.13 68.69 144.36 69.15 144.57 69.56 144.83 69.93 145.13 70.25 145.49 70.53 145.90 70.76 146.36 70.94 146.84 71.07 147.35 71.14 147.90 71.17 148.48 71.15 148.95 71.10 149.41 71.01 149.85 70.89 150.28 70.73 150.70 70.54 151.09 70.34 151.45 70.12 151.76 69.89 152.04 69.64 152.28 69.37 152.49 69.07 152.68 68.74 152.85 68.39 153.00 68.02 153.12 67.61 153.22 67.17 153.30 66.69 153.36 66.18 153.40 65.63 153.41 Z M 61.86 143.59 L 65.26 143.59 65.78 143.58 66.24 143.56 66.64 143.52 66.98 143.47 67.25 143.41 67.55 143.31 67.82 143.18 68.06 143.02 68.27 142.85 68.44 142.64 68.59 142.42 68.70 142.17 68.78 141.90 68.83 141.61 68.85 141.30 68.83 141.00 68.79 140.71 68.71 140.44 68.61 140.19 68.47 139.95 68.31 139.73 68.12 139.54 67.91 139.38 67.67 139.25 67.40 139.15 67.08 139.07 66.68 139.01 66.20 138.97 65.64 138.94 65.01 138.94 61.86 138.94 Z M 61.85 151.34 L 65.67 151.34 66.04 151.34 66.36 151.33 66.64 151.31 66.87 151.29 67.05 151.26 67.33 151.20 67.58 151.12 67.81 151.03 68.03 150.93 68.23 150.81 68.41 150.67 68.58 150.51 68.73 150.33 68.87 150.12 69.00 149.89 69.11 149.64 69.20 149.38 69.26 149.10 69.29 148.81 69.30 148.50 69.29 148.14 69.25 147.80 69.18 147.47 69.08 147.17 68.95 146.89 68.79 146.63 68.60 146.41 68.36 146.22 68.10 146.06 67.80 145.93 67.45 145.83 67.04 145.75 66.58 145.70 66.07 145.67 65.49 145.65 61.85 145.65 Z M 73.73 153.41 L 73.74 136.87 84.46 136.87 84.46 138.94 75.61 138.94 75.60 143.85 83.99 143.85 83.99 145.91 75.60 145.91 75.60 151.34 84.68 151.34 84.68 153.41 Z M 87.48 153.41 L 87.49 136.87 89.49 136.87 97.27 149.97 97.28 136.87 99.14 136.87 99.13 153.41 97.13 153.41 89.35 140.30 89.34 153.41 Z M 102.39 153.41 L 102.40 136.87 107.55 136.87 108.21 136.88 108.81 136.91 109.34 136.95 109.81 137.02 110.21 137.11 110.71 137.26 111.17 137.45 111.61 137.69 112.02 137.97 112.40 138.29 112.85 138.76 113.25 139.27 113.60 139.84 113.91 140.45 114.16 141.12 114.37 141.82 114.54 142.57 114.65 143.36 114.72 144.18 114.74 145.05 114.73 145.78 114.68 146.49 114.60 147.15 114.49 147.79 114.35 148.39 114.18 148.95 113.99 149.47 113.79 149.95 113.56 150.39 113.32 150.79 113.07 151.16 112.80 151.49 112.53 151.79 112.25 152.06 111.96 152.29 111.65 152.50 111.32 152.69 110.96 152.86 110.58 153.00 110.18 153.12 109.75 153.23 109.29 153.31 108.81 153.36 108.31 153.40 107.78 153.41 Z M 104.26 151.34 L 107.55 151.34 108.14 151.33 108.67 151.29 109.15 151.23 109.58 151.15 109.95 151.04 110.29 150.91 110.59 150.76 110.87 150.59 111.12 150.41 111.34 150.20 111.61 149.87 111.87 149.50 112.09 149.09 112.30 148.64 112.47 148.14 112.62 147.61 112.73 147.02 112.81 146.40 112.86 145.73 112.88 145.02 112.85 144.04 112.76 143.17 112.60 142.38 112.38 141.69 112.09 141.10 111.76 140.59 111.40 140.15 111.01 139.78 110.60 139.49 110.16 139.27 109.79 139.15 109.34 139.05 108.81 138.99 108.20 138.95 107.51 138.94 104.27 138.94 Z M 126.16 151.34 L 126.15 153.41 116.37 153.41 116.37 153.11 116.39 152.82 116.43 152.54 116.49 152.26 116.57 151.98 116.73 151.53 116.92 151.09 117.15 150.65 117.41 150.22 117.71 149.79 118.05 149.35 118.45 148.89 118.92 148.41 119.45 147.91 120.04 147.39 120.95 146.54 121.72 145.76 122.36 145.08 122.88 144.47 123.26 143.95 123.55 143.47 123.78 142.99 123.94 142.53 124.04 142.06 124.07 141.60 124.04 141.17 123.95 140.76 123.80 140.38 123.58 140.03 123.31 139.71 122.99 139.43 122.63 139.21 122.23 139.06 121.80 138.97 121.33 138.94 120.83 138.97 120.38 139.06 119.97 139.21 119.59 139.42 119.26 139.69 118.98 140.02 118.76 140.39 118.61 140.80 118.51 141.27 118.48 141.78 116.61 141.52 116.73 140.66 116.93 139.88 117.22 139.18 117.59 138.58 118.04 138.06 118.57 137.63 119.17 137.30 119.84 137.06 120.57 136.92 121.37 136.87 122.18 136.92 122.92 137.08 123.58 137.34 124.18 137.72 124.71 138.19 125.15 138.75 125.49 139.35 125.74 140.01 125.88 140.72 125.93 141.48 125.92 141.88 125.88 142.27 125.81 142.66 125.72 143.05 125.60 143.44 125.45 143.83 125.26 144.23 125.04 144.63 124.79 145.05 124.50 145.47 124.14 145.92 123.70 146.43 123.16 147.00 122.54 147.62 121.82 148.30 121.21 148.85 120.69 149.32 120.26 149.72 119.93 150.04 119.68 150.29 119.48 150.50 119.30 150.71 119.13 150.92 118.98 151.13 118.84 151.34 Z M 139.92 151.42 L 140.41 151.87 140.89 152.27 141.35 152.61 141.80 152.91 142.23 153.15 141.73 154.66 141.11 154.39 140.50 154.06 139.88 153.67 139.27 153.23 138.66 152.73 137.99 153.07 137.29 153.33 136.57 153.52 135.82 153.63 135.04 153.67 134.25 153.62 133.50 153.49 132.77 153.28 132.07 152.97 131.41 152.59 130.79 152.12 130.22 151.58 129.72 150.97 129.28 150.30 128.90 149.55 128.59 148.75 128.34 147.90 128.17 147.02 128.06 146.10 128.03 145.14 128.06 144.18 128.17 143.26 128.34 142.37 128.59 141.52 128.91 140.70 129.29 139.94 129.73 139.25 130.23 138.64 130.79 138.11 131.41 137.66 132.07 137.28 132.77 136.99 133.49 136.78 134.25 136.65 135.03 136.61 135.83 136.65 136.59 136.78 137.32 136.99 138.02 137.29 138.68 137.68 139.30 138.14 139.86 138.67 140.35 139.27 140.79 139.94 141.16 140.68 141.46 141.47 141.70 142.30 141.87 143.16 141.97 144.07 142.01 145.02 141.98 145.81 141.92 146.56 141.82 147.29 141.67 147.98 141.49 148.63 141.26 149.26 140.99 149.85 140.67 150.41 140.32 150.93 139.92 151.42 Z M 135.55 148.67 L 136.22 148.91 136.83 149.18 137.40 149.49 137.92 149.85 138.39 150.25 139.02 149.50 139.51 148.61 139.86 147.58 140.07 146.42 140.14 145.13 140.12 144.37 140.04 143.65 139.92 142.97 139.75 142.33 139.53 141.73 139.26 141.18 138.94 140.67 138.58 140.22 138.17 139.83 137.72 139.48 137.23 139.19 136.72 138.97 136.18 138.81 135.63 138.71 135.04 138.68 134.19 138.74 133.39 138.94 132.65 139.26 131.97 139.71 131.36 140.30 130.83 141.01 130.42 141.85 130.13 142.82 129.95 143.91 129.89 145.14 129.95 146.33 130.12 147.40 130.41 148.36 130.81 149.20 131.33 149.93 131.94 150.53 132.62 151.00 133.36 151.33 134.16 151.53 135.03 151.60 135.45 151.58 135.86 151.53 136.26 151.45 136.65 151.33 137.04 151.17 136.66 150.93 136.28 150.72 135.88 150.54 135.48 150.38 135.07 150.26 Z M 144.10 147.72 L 145.96 147.72 146.03 148.21 146.12 148.66 146.24 149.07 146.39 149.45 146.56 149.79 146.77 150.10 147.03 150.39 147.32 150.65 147.65 150.89 148.03 151.10 148.44 151.28 148.86 151.42 149.31 151.52 149.78 151.58 150.26 151.60 150.69 151.58 151.10 151.54 151.49 151.46 151.86 151.36 152.21 151.22 152.53 151.06 152.82 150.87 153.07 150.67 153.29 150.44 153.47 150.18 153.62 149.92 153.74 149.64 153.82 149.37 153.87 149.08 153.88 148.80 153.87 148.51 153.84 148.23 153.77 147.98 153.69 147.73 153.58 147.51 153.43 147.29 153.23 147.09 152.97 146.90 152.67 146.73 152.31 146.57 152.01 146.45 151.58 146.32 151.04 146.16 150.38 145.98 149.60 145.78 148.81 145.57 148.12 145.36 147.54 145.15 147.06 144.95 146.68 144.76 146.27 144.50 145.91 144.21 145.60 143.91 145.32 143.57 145.09 143.22 144.91 142.84 144.76 142.45 144.66 142.04 144.59 141.61 144.57 141.16 144.60 140.67 144.68 140.19 144.81 139.72 144.99 139.27 145.22 138.82 145.50 138.41 145.83 138.04 146.21 137.71 146.64 137.42 147.11 137.17 147.62 136.97 148.15 136.81 148.70 136.70 149.28 136.63 149.87 136.61 150.53 136.63 151.15 136.70 151.74 136.82 152.29 136.99 152.82 137.20 153.31 137.46 153.75 137.76 154.14 138.11 154.49 138.50 154.79 138.93 155.04 139.40 155.23 139.89 155.38 140.41 155.48 140.95 155.52 141.52 153.66 141.52 153.57 140.99 153.42 140.51 153.20 140.08 152.93 139.71 152.61 139.40 152.21 139.14 151.75 138.94 151.22 138.79 150.62 138.71 149.95 138.68 149.25 138.71 148.64 138.79 148.11 138.93 147.65 139.13 147.28 139.39 146.97 139.68 146.74 140.00 146.57 140.35 146.47 140.71 146.44 141.10 146.46 141.44 146.53 141.75 146.65 142.04 146.82 142.30 147.03 142.54 147.34 142.76 147.80 142.99 148.40 143.22 149.16 143.46 150.07 143.69 150.99 143.92 151.78 144.14 152.44 144.35 152.97 144.54 153.37 144.73 153.83 145.01 154.24 145.32 154.60 145.65 154.91 146.01 155.17 146.41 155.38 146.82 155.54 147.27 155.66 147.73 155.73 148.23 155.75 148.74 155.72 149.26 155.64 149.77 155.51 150.26 155.32 150.75 155.08 151.22 154.79 151.66 154.45 152.06 154.06 152.42 153.63 152.74 153.15 153.02 152.64 153.25 152.10 153.43 151.54 153.56 150.95 153.64 150.34 153.67 149.57 153.64 148.85 153.55 148.18 153.42 147.57 153.22 147.01 152.97 146.49 152.67 146.03 152.30 145.60 151.88 145.23 151.41 144.90 150.88 144.63 150.31 144.41 149.70 144.25 149.07 144.14 148.41 144.10 147.72 Z" />
<path fill="rgb(255,0,0)" stroke="rgb(255,0,0)" stroke-width="2" d=" M 41 116 C 41 114 43 114 43 114 L 46 114 L 46 114 C 48 114 48 116 48 116 L 48 119 L 48 119 C 48 121 46 121 46 121 L 43 121 L 43 121 C 41 121 41 119 41 119 L 41 116 Z" />
<polyline points="56.44 112.92 51.73 121.95" fill="none" stroke="rgb(0,0,255)" stroke-width="2" />
<path fill="rgb(255,0,0)" stroke="rgb(255,0,0)" stroke-width="2" d=" M 112 43 C 112 41 114 41 114 41 L 118 41 L 118 41 C 120 41 120 43 120 43 L 120 46 L 120 46 C 120 48 118 48 118 48 L 114 48 L 114 48 C 112 48 112 46 112 46 L 112 43 Z" />
<path fill="rgb(0,0,255)" stroke="rgb(0,0,255)" stroke-width="0" d=" M 111.91 116.23 L 112.62 116.17 113.28 116.09 113.89 115.97 114.45 115.84 114.95 115.68 115.78 117.18 115.11 117.46 114.40 117.71 113.65 117.91 112.85 118.07 112.01 118.18 111.78 118.96 111.48 119.70 111.10 120.40 110.64 121.08 110.10 121.72 109.49 122.31 108.83 122.81 108.13 123.22 107.38 123.55 106.59 123.79 105.77 123.93 104.93 123.98 104.09 123.93 103.23 123.79 102.37 123.54 101.50 123.20 100.66 122.78 99.84 122.27 99.04 121.68 98.25 121.00 97.53 120.27 96.88 119.51 96.31 118.73 95.82 117.91 95.41 117.06 95.08 116.20 94.87 115.35 94.75 114.51 94.74 113.68 94.84 112.86 95.02 112.07 95.30 111.30 95.67 110.58 96.12 109.89 96.66 109.24 97.28 108.65 97.94 108.14 98.64 107.73 99.39 107.40 100.18 107.15 100.99 107.00 101.82 106.95 102.65 107.00 103.50 107.15 104.35 107.40 105.19 107.73 106.02 108.15 106.83 108.66 107.62 109.24 108.39 109.91 108.99 110.50 109.54 111.10 110.04 111.71 110.47 112.33 110.85 112.96 111.18 113.60 111.45 114.24 111.66 114.90 111.81 115.56 111.91 116.23 Z M 106.55 117.66 L 107.21 117.31 107.88 117.02 108.54 116.81 109.20 116.66 109.85 116.58 109.72 115.53 109.39 114.50 108.84 113.47 108.08 112.46 107.11 111.45 106.49 110.92 105.87 110.45 105.25 110.05 104.62 109.72 103.98 109.45 103.35 109.26 102.72 109.14 102.10 109.10 101.49 109.13 100.89 109.23 100.30 109.40 99.75 109.64 99.23 109.94 98.75 110.31 98.30 110.75 97.72 111.47 97.29 112.24 97.01 113.06 96.87 113.92 96.88 114.84 97.05 115.77 97.42 116.71 97.96 117.65 98.70 118.59 99.62 119.53 100.59 120.36 101.57 121.01 102.53 121.48 103.49 121.78 104.44 121.90 105.36 121.86 106.22 121.67 107.03 121.34 107.77 120.85 108.46 120.22 108.76 119.87 109.02 119.51 109.24 119.13 109.44 118.74 109.60 118.32 109.13 118.44 108.68 118.59 108.25 118.76 107.84 118.97 107.44 119.20 Z M 112.05 110.24 L 113.41 108.77 113.84 109.07 114.26 109.33 114.68 109.54 115.08 109.70 115.48 109.81 115.88 109.87 116.29 109.88 116.71 109.84 117.14 109.75 117.58 109.61 118.02 109.42 118.44 109.19 118.85 108.91 119.24 108.59 119.61 108.22 119.91 107.87 120.18 107.51 120.40 107.15 120.59 106.78 120.74 106.41 120.84 106.04 120.91 105.68 120.93 105.33 120.91 104.99 120.84 104.66 120.74 104.34 120.61 104.05 120.45 103.79 120.27 103.54 120.05 103.32 119.82 103.12 119.57 102.95 119.33 102.80 119.07 102.69 118.81 102.62 118.53 102.58 118.23 102.59 117.90 102.65 117.53 102.76 117.15 102.92 116.83 103.08 116.42 103.32 115.90 103.63 115.27 104.02 114.54 104.48 113.79 104.95 113.13 105.34 112.54 105.65 112.03 105.88 111.60 106.04 111.10 106.17 110.61 106.24 110.14 106.27 109.68 106.24 109.23 106.16 108.80 106.03 108.38 105.86 107.98 105.64 107.60 105.38 107.23 105.07 106.86 104.68 106.54 104.27 106.27 103.82 106.04 103.35 105.86 102.84 105.74 102.32 105.69 101.78 105.71 101.25 105.79 100.70 105.94 100.15 106.16 99.60 106.42 99.07 106.73 98.55 107.10 98.05 107.52 97.56 108.02 97.06 108.53 96.63 109.05 96.25 109.59 95.93 110.14 95.67 110.70 95.47 111.26 95.35 111.82 95.29 112.38 95.31 112.94 95.39 113.50 95.54 114.03 95.74 114.55 96.00 115.04 96.33 115.52 96.70 114.16 98.17 113.67 97.85 113.18 97.62 112.69 97.48 112.20 97.42 111.71 97.45 111.22 97.57 110.73 97.78 110.22 98.10 109.72 98.51 109.20 99.02 108.72 99.58 108.34 100.13 108.06 100.65 107.88 101.15 107.81 101.64 107.82 102.09 107.90 102.51 108.05 102.89 108.26 103.24 108.55 103.55 108.83 103.78 109.13 103.95 109.44 104.07 109.77 104.13 110.11 104.14 110.51 104.06 111.03 103.87 111.66 103.56 112.39 103.13 113.24 102.59 114.10 102.03 114.85 101.57 115.49 101.20 116.03 100.93 116.47 100.75 117.03 100.59 117.57 100.49 118.10 100.45 118.61 100.47 119.11 100.55 119.59 100.70 120.06 100.89 120.51 101.14 120.95 101.45 121.37 101.81 121.76 102.21 122.10 102.65 122.39 103.11 122.64 103.61 122.83 104.15 122.97 104.70 123.04 105.26 123.04 105.83 122.98 106.40 122.84 106.98 122.65 107.56 122.40 108.11 122.09 108.65 121.72 109.17 121.29 109.67 120.70 110.26 120.11 110.76 119.52 111.19 118.91 111.53 118.31 111.79 117.69 111.97 117.06 112.07 116.43 112.10 115.78 112.04 115.12 111.91 114.47 111.71 113.83 111.44 113.22 111.11 112.62 110.71 112.05 110.24 Z" />
</svg>
