<?xml version="1.0" encoding="utf-8"?>
<!-- Created with "sPlan" (http://www.abacom-online.de) -->
<svg version="1.1" baseProfile="full"
xmlns="http://www.w3.org/2000/svg"
width="19mm" height="20mm"
viewBox="0 0 191 203">
<title>MCROSQS</title>
<defs>
<style type="text/css">
<![CDATA[
polyline {stroke-linecap:round; stroke-linejoin:round}
polygon {stroke-linecap:round; stroke-linejoin:round}
path {stroke-linecap:round; stroke-linejoin:round}
circle {stroke-linecap:round; stroke-linejoin:round}
]]>
</style>
</defs>
<polyline points="44.56 88.22 61.65 88.22 61.65 78.95 83.47 78.95 83.47 59.05 96.42 59.05 108.11 59.05 108.11 78.79 131.19 78.79 131.19 88.22 146.92 88.22 131.19 88.22 131.19 98.61 108.31 98.61 108.31 118.84 96.29 118.75 84.22 118.75 84.22 98.95 61.65 98.95 61.65 88.22" fill="none" stroke="rgb(0,0,255)" stroke-width="2" />
<path fill="rgb(0,0,0)" stroke="rgb(0,0,0)" stroke-width="0" d=" M 49.34 157.84 L 49.36 142.76 52.27 142.76 55.05 153.39 55.20 153.95 55.33 154.45 55.44 154.90 55.54 155.28 55.61 155.61 55.70 155.25 55.81 154.83 55.93 154.35 56.07 153.81 56.22 153.20 58.97 142.76 61.89 142.76 61.88 157.84 60.18 157.84 60.19 144.64 56.76 157.84 54.46 157.84 51.06 144.64 51.04 157.84 Z M 74.63 152.48 L 76.33 152.96 76.07 153.91 75.74 154.77 75.33 155.53 74.86 156.19 74.31 156.76 73.70 157.24 73.04 157.60 72.33 157.86 71.57 158.02 70.75 158.07 69.91 158.03 69.14 157.91 68.44 157.72 67.79 157.44 67.22 157.08 66.70 156.65 66.23 156.15 65.82 155.57 65.45 154.93 65.14 154.21 64.89 153.45 64.69 152.67 64.55 151.86 64.46 151.03 64.43 150.18 64.47 149.27 64.57 148.40 64.73 147.58 64.95 146.81 65.24 146.08 65.59 145.42 66.00 144.82 66.46 144.29 66.97 143.83 67.54 143.43 68.14 143.10 68.77 142.85 69.42 142.67 70.10 142.56 70.80 142.52 71.59 142.57 72.32 142.71 73.00 142.94 73.63 143.27 74.21 143.70 74.72 144.20 75.18 144.79 75.56 145.45 75.87 146.19 76.12 147.00 74.42 147.45 74.21 146.85 73.97 146.32 73.69 145.85 73.38 145.46 73.03 145.13 72.65 144.87 72.23 144.67 71.77 144.52 71.27 144.44 70.74 144.41 70.12 144.44 69.55 144.53 69.01 144.70 68.52 144.92 68.07 145.21 67.67 145.56 67.32 145.95 67.02 146.38 66.77 146.86 66.57 147.38 66.41 147.92 66.29 148.48 66.21 149.04 66.15 149.61 66.13 150.18 66.15 150.90 66.22 151.59 66.32 152.24 66.46 152.85 66.65 153.43 66.87 153.95 67.15 154.42 67.46 154.84 67.83 155.20 68.24 155.50 68.68 155.75 69.13 155.94 69.60 156.08 70.09 156.16 70.58 156.19 71.18 156.15 71.74 156.04 72.26 155.85 72.74 155.59 73.19 155.25 73.58 154.84 73.93 154.36 74.22 153.80 74.45 153.18 74.63 152.48 Z M 78.66 157.84 L 78.68 142.76 84.54 142.76 85.22 142.77 85.83 142.82 86.37 142.90 86.85 143.02 87.26 143.16 87.61 143.35 87.94 143.59 88.24 143.88 88.51 144.21 88.74 144.60 88.94 145.02 89.10 145.46 89.21 145.92 89.27 146.39 89.30 146.88 89.26 147.51 89.15 148.09 88.96 148.64 88.71 149.14 88.37 149.60 87.96 150.01 87.47 150.36 86.91 150.64 86.26 150.85 85.53 151.00 85.77 151.17 85.99 151.33 86.18 151.49 86.35 151.65 86.49 151.81 86.77 152.16 87.05 152.53 87.32 152.92 87.59 153.33 87.87 153.75 90.13 157.84 88.15 157.84 86.39 154.71 86.09 154.20 85.81 153.73 85.56 153.32 85.32 152.95 85.11 152.64 84.92 152.37 84.73 152.14 84.55 151.95 84.38 151.79 84.22 151.66 84.06 151.57 83.90 151.48 83.73 151.41 83.57 151.35 83.41 151.31 83.27 151.28 83.10 151.26 82.91 151.25 82.68 151.24 82.42 151.24 80.37 151.24 80.36 157.84 Z M 80.37 149.35 L 84.17 149.35 84.64 149.34 85.07 149.31 85.46 149.26 85.81 149.18 86.12 149.09 86.39 148.97 86.64 148.82 86.86 148.65 87.06 148.46 87.22 148.23 87.36 147.99 87.46 147.75 87.54 147.49 87.58 147.23 87.60 146.95 87.57 146.56 87.48 146.20 87.34 145.87 87.14 145.57 86.88 145.29 86.56 145.06 86.17 144.88 85.72 144.75 85.20 144.67 84.61 144.64 80.38 144.64 Z M 91.63 150.50 L 91.70 149.06 91.92 147.76 92.29 146.59 92.79 145.55 93.45 144.64 94.22 143.88 95.07 143.28 96.00 142.86 97.02 142.61 98.13 142.52 98.86 142.56 99.57 142.68 100.25 142.88 100.89 143.16 101.51 143.51 102.08 143.94 102.60 144.44 103.06 144.99 103.46 145.61 103.81 146.29 104.09 147.02 104.31 147.79 104.47 148.59 104.56 149.44 104.59 150.32 104.56 151.22 104.46 152.07 104.29 152.89 104.05 153.67 103.75 154.41 103.39 155.10 102.98 155.72 102.50 156.26 101.98 156.74 101.40 157.15 100.78 157.48 100.14 157.74 99.48 157.92 98.80 158.04 98.10 158.07 97.36 158.03 96.64 157.91 95.96 157.70 95.30 157.42 94.69 157.05 94.11 156.61 93.60 156.11 93.14 155.55 92.74 154.93 92.41 154.25 92.13 153.53 91.91 152.80 91.75 152.05 91.66 151.28 91.63 150.50 Z M 93.33 150.51 L 93.38 151.53 93.55 152.45 93.82 153.28 94.20 154.02 94.68 154.67 95.26 155.22 95.88 155.64 96.56 155.95 97.30 156.13 98.09 156.19 98.90 156.13 99.65 155.94 100.34 155.64 100.97 155.21 101.54 154.66 102.02 153.99 102.40 153.23 102.67 152.36 102.84 151.38 102.89 150.31 102.87 149.61 102.80 148.95 102.69 148.33 102.52 147.75 102.32 147.20 102.06 146.69 101.77 146.23 101.43 145.82 101.05 145.45 100.63 145.14 100.18 144.87 99.70 144.67 99.20 144.52 98.68 144.44 98.14 144.41 97.37 144.46 96.65 144.63 95.98 144.91 95.34 145.31 94.75 145.81 94.24 146.45 93.84 147.24 93.56 148.18 93.39 149.27 93.33 150.51 Z M 106.29 152.65 L 107.99 152.65 108.05 153.10 108.13 153.51 108.24 153.88 108.37 154.23 108.53 154.54 108.73 154.82 108.96 155.09 109.22 155.32 109.53 155.54 109.87 155.73 110.24 155.90 110.63 156.02 111.04 156.12 111.46 156.17 111.91 156.19 112.30 156.17 112.67 156.13 113.03 156.06 113.37 155.97 113.69 155.84 113.98 155.70 114.24 155.53 114.47 155.34 114.67 155.13 114.83 154.90 114.97 154.65 115.07 154.41 115.15 154.15 115.20 153.90 115.21 153.63 115.20 153.37 115.17 153.12 115.11 152.89 115.03 152.66 114.93 152.46 114.79 152.26 114.61 152.08 114.38 151.91 114.10 151.75 113.78 151.60 113.50 151.50 113.11 151.37 112.62 151.23 112.01 151.07 111.30 150.88 110.58 150.69 109.95 150.50 109.42 150.31 108.98 150.13 108.64 149.95 108.27 149.71 107.94 149.45 107.65 149.17 107.40 148.87 107.19 148.55 107.02 148.21 106.89 147.85 106.79 147.47 106.74 147.08 106.72 146.67 106.74 146.22 106.81 145.78 106.93 145.36 107.10 144.94 107.31 144.54 107.57 144.16 107.87 143.82 108.21 143.52 108.60 143.26 109.03 143.03 109.50 142.85 109.98 142.71 110.48 142.60 111.01 142.54 111.55 142.52 112.15 142.54 112.71 142.61 113.25 142.71 113.76 142.86 114.24 143.06 114.69 143.29 115.09 143.57 115.45 143.89 115.76 144.24 116.03 144.64 116.26 145.07 116.44 145.52 116.57 145.99 116.66 146.48 116.70 147.00 115.00 147.00 114.92 146.51 114.78 146.07 114.59 145.69 114.34 145.35 114.04 145.06 113.68 144.83 113.26 144.64 112.78 144.51 112.23 144.43 111.62 144.41 110.99 144.43 110.43 144.51 109.94 144.64 109.53 144.82 109.18 145.05 108.91 145.32 108.69 145.62 108.54 145.93 108.45 146.26 108.42 146.62 108.44 146.93 108.50 147.21 108.61 147.47 108.76 147.71 108.96 147.93 109.24 148.13 109.66 148.34 110.21 148.55 110.90 148.76 111.73 148.98 112.57 149.19 113.29 149.39 113.89 149.58 114.37 149.76 114.74 149.93 115.16 150.18 115.54 150.46 115.87 150.77 116.15 151.10 116.38 151.45 116.57 151.83 116.72 152.24 116.83 152.66 116.89 153.11 116.91 153.58 116.89 154.06 116.81 154.52 116.69 154.97 116.52 155.41 116.30 155.84 116.03 156.24 115.73 156.61 115.37 156.94 114.98 157.23 114.54 157.49 114.08 157.70 113.58 157.86 113.07 157.98 112.53 158.05 111.97 158.07 111.27 158.05 110.62 157.97 110.01 157.85 109.45 157.67 108.94 157.44 108.47 157.16 108.04 156.83 107.66 156.45 107.32 156.02 107.02 155.53 106.77 155.01 106.57 154.46 106.42 153.88 106.33 153.28 106.29 152.65 Z M 129.67 156.03 L 130.12 156.44 130.56 156.80 130.98 157.11 131.39 157.38 131.78 157.60 131.32 158.98 130.76 158.73 130.20 158.43 129.64 158.08 129.08 157.67 128.52 157.22 127.91 157.53 127.28 157.77 126.62 157.94 125.93 158.04 125.22 158.07 124.50 158.03 123.82 157.92 123.15 157.72 122.52 157.44 121.91 157.09 121.34 156.66 120.83 156.17 120.37 155.62 119.97 155.00 119.62 154.32 119.34 153.59 119.11 152.82 118.95 152.02 118.86 151.18 118.83 150.30 118.86 149.43 118.96 148.59 119.12 147.78 119.34 147.00 119.63 146.25 119.98 145.56 120.38 144.93 120.84 144.38 121.35 143.89 121.91 143.47 122.51 143.13 123.15 142.86 123.81 142.67 124.50 142.56 125.22 142.52 125.94 142.56 126.63 142.68 127.30 142.87 127.94 143.15 128.54 143.50 129.11 143.92 129.62 144.40 130.07 144.95 130.46 145.56 130.80 146.23 131.08 146.95 131.30 147.71 131.45 148.50 131.54 149.33 131.57 150.19 131.55 150.91 131.50 151.60 131.40 152.26 131.27 152.89 131.10 153.49 130.89 154.06 130.65 154.59 130.36 155.10 130.04 155.58 129.67 156.03 Z M 125.69 153.52 L 126.30 153.73 126.86 153.98 127.37 154.27 127.85 154.59 128.27 154.95 128.85 154.27 129.30 153.46 129.62 152.53 129.81 151.47 129.87 150.29 129.85 149.60 129.79 148.94 129.67 148.32 129.52 147.74 129.31 147.19 129.07 146.69 128.78 146.23 128.45 145.82 128.08 145.45 127.66 145.14 127.22 144.87 126.75 144.67 126.26 144.52 125.76 144.44 125.23 144.41 124.44 144.47 123.72 144.64 123.04 144.94 122.43 145.35 121.86 145.88 121.38 146.53 121.01 147.30 120.74 148.18 120.58 149.18 120.53 150.30 120.58 151.38 120.73 152.36 121.00 153.24 121.37 154.00 121.84 154.67 122.40 155.21 123.01 155.64 123.69 155.94 124.42 156.13 125.21 156.19 125.59 156.17 125.97 156.13 126.34 156.05 126.69 155.94 127.04 155.80 126.70 155.58 126.35 155.39 125.99 155.22 125.63 155.08 125.25 154.97 Z M 133.48 152.65 L 135.18 152.65 135.24 153.10 135.33 153.51 135.44 153.88 135.57 154.23 135.73 154.54 135.92 154.82 136.15 155.09 136.42 155.32 136.72 155.54 137.07 155.73 137.44 155.90 137.83 156.02 138.23 156.12 138.66 156.17 139.10 156.19 139.50 156.17 139.87 156.13 140.23 156.06 140.56 155.97 140.88 155.84 141.17 155.70 141.43 155.53 141.66 155.34 141.86 155.13 142.03 154.90 142.16 154.65 142.27 154.41 142.35 154.15 142.39 153.90 142.41 153.63 142.39 153.37 142.36 153.12 142.31 152.89 142.23 152.66 142.13 152.46 141.99 152.26 141.81 152.08 141.58 151.91 141.30 151.75 140.97 151.60 140.69 151.50 140.31 151.37 139.81 151.23 139.21 151.07 138.50 150.88 137.78 150.69 137.15 150.50 136.62 150.31 136.18 150.13 135.83 149.95 135.46 149.71 135.14 149.45 134.85 149.17 134.60 148.87 134.39 148.55 134.22 148.21 134.08 147.85 133.99 147.47 133.93 147.08 133.91 146.67 133.94 146.22 134.01 145.78 134.13 145.36 134.29 144.94 134.51 144.54 134.76 144.16 135.06 143.82 135.41 143.52 135.80 143.26 136.23 143.03 136.69 142.85 137.17 142.71 137.68 142.60 138.20 142.54 138.75 142.52 139.34 142.54 139.91 142.61 140.45 142.71 140.96 142.86 141.44 143.06 141.88 143.29 142.28 143.57 142.64 143.89 142.96 144.24 143.23 144.64 143.45 145.07 143.64 145.52 143.77 145.99 143.86 146.48 143.90 147.00 142.20 147.00 142.12 146.51 141.98 146.07 141.79 145.69 141.54 145.35 141.24 145.06 140.88 144.83 140.46 144.64 139.97 144.51 139.43 144.43 138.81 144.41 138.18 144.43 137.62 144.51 137.14 144.64 136.72 144.82 136.38 145.05 136.10 145.32 135.89 145.62 135.74 145.93 135.64 146.26 135.61 146.62 135.64 146.93 135.70 147.21 135.81 147.47 135.96 147.71 136.15 147.93 136.44 148.13 136.85 148.34 137.41 148.55 138.10 148.76 138.93 148.98 139.77 149.19 140.49 149.39 141.09 149.58 141.57 149.76 141.93 149.93 142.36 150.18 142.73 150.46 143.06 150.77 143.34 151.10 143.58 151.45 143.77 151.83 143.92 152.24 144.02 152.66 144.09 153.11 144.11 153.58 144.08 154.06 144.01 154.52 143.89 154.97 143.71 155.41 143.49 155.84 143.23 156.24 142.92 156.61 142.57 156.94 142.18 157.23 141.74 157.49 141.27 157.70 140.78 157.86 140.27 157.98 139.73 158.05 139.17 158.07 138.47 158.05 137.81 157.97 137.21 157.85 136.65 157.67 136.13 157.44 135.67 157.16 135.24 156.83 134.86 156.45 134.51 156.02 134.21 155.53 133.96 155.01 133.76 154.46 133.62 153.88 133.52 153.28 133.48 152.65 Z" />
<path fill="rgb(255,0,0)" stroke="rgb(255,0,0)" stroke-width="2" d=" M 143 86 C 143 85 145 85 145 85 L 149 85 L 149 85 C 150 85 150 86 150 86 L 150 90 L 150 90 C 150 92 149 92 149 92 L 145 92 L 145 92 C 143 92 143 90 143 90 L 143 86 Z" />
<path fill="rgb(255,0,0)" stroke="rgb(255,0,0)" stroke-width="2" d=" M 41 86 C 41 85 43 85 43 85 L 46 85 L 46 85 C 48 85 48 86 48 86 L 48 90 L 48 90 C 48 92 46 92 46 92 L 43 92 L 43 92 C 41 92 41 90 41 90 L 41 86 Z" />
<polyline points="96.42 59.05 96.42 44.56" fill="none" stroke="rgb(0,0,255)" stroke-width="2" />
<path fill="rgb(255,0,0)" stroke="rgb(255,0,0)" stroke-width="2" d=" M 93 43 C 93 41 95 41 95 41 L 98 41 L 98 41 C 100 41 100 43 100 43 L 100 46 L 100 46 C 100 48 98 48 98 48 L 95 48 L 95 48 C 93 48 93 46 93 46 L 93 43 Z" />
<polyline points="96.29 118.75 96.29 134.90" fill="none" stroke="rgb(0,0,255)" stroke-width="2" />
<path fill="rgb(255,0,0)" stroke="rgb(255,0,0)" stroke-width="2" d=" M 93 133 C 93 131 95 131 95 131 L 98 131 L 98 131 C 100 131 100 133 100 133 L 100 137 L 100 137 C 100 138 98 138 98 138 L 95 138 L 95 138 C 93 138 93 137 93 137 L 93 133 Z" />
<polyline points="56.28 83.75 51.57 92.78" fill="none" stroke="rgb(0,0,255)" stroke-width="2" />
<path fill="rgb(0,0,255)" stroke="rgb(0,0,255)" stroke-width="0" d=" M 94.20 94.19 L 94.61 94.55 95.00 94.88 95.38 95.16 95.75 95.41 96.11 95.61 95.69 96.86 95.18 96.63 94.67 96.36 94.17 96.04 93.66 95.67 93.16 95.26 92.60 95.54 92.03 95.76 91.43 95.91 90.81 96.00 90.17 96.04 89.52 96.00 88.89 95.89 88.29 95.71 87.72 95.46 87.17 95.14 86.66 94.76 86.19 94.31 85.78 93.81 85.41 93.25 85.10 92.64 84.84 91.97 84.64 91.28 84.49 90.55 84.41 89.79 84.38 89.00 84.41 88.21 84.49 87.45 84.64 86.71 84.84 86.01 85.11 85.33 85.42 84.70 85.78 84.14 86.20 83.63 86.66 83.19 87.17 82.82 87.72 82.51 88.29 82.26 88.89 82.09 89.51 81.99 90.16 81.95 90.82 81.99 91.45 82.10 92.05 82.27 92.63 82.52 93.18 82.84 93.69 83.22 94.15 83.66 94.56 84.15 94.91 84.70 95.22 85.31 95.47 85.96 95.67 86.65 95.81 87.37 95.89 88.12 95.92 88.90 95.90 89.55 95.85 90.17 95.76 90.77 95.64 91.34 95.49 91.88 95.30 92.40 95.08 92.89 94.82 93.35 94.53 93.78 94.20 94.19 Z M 90.59 91.91 L 91.14 92.11 91.65 92.33 92.12 92.59 92.54 92.88 92.93 93.21 93.45 92.59 93.86 91.86 94.15 91.01 94.32 90.06 94.38 88.98 94.36 88.36 94.30 87.77 94.20 87.21 94.06 86.68 93.87 86.18 93.65 85.72 93.39 85.31 93.09 84.94 92.75 84.61 92.38 84.32 91.98 84.08 91.55 83.90 91.11 83.77 90.65 83.69 90.17 83.66 89.46 83.71 88.80 83.87 88.20 84.14 87.64 84.52 87.13 85.00 86.69 85.59 86.35 86.28 86.11 87.08 85.97 87.98 85.92 88.99 85.96 89.98 86.10 90.86 86.34 91.66 86.68 92.35 87.11 92.95 87.61 93.45 88.17 93.83 88.78 94.11 89.44 94.27 90.16 94.33 90.50 94.31 90.84 94.27 91.18 94.20 91.50 94.10 91.82 93.98 91.51 93.78 91.19 93.60 90.86 93.45 90.53 93.32 90.20 93.22 Z M 97.65 91.13 L 99.19 91.13 99.24 91.53 99.32 91.90 99.41 92.24 99.54 92.55 99.68 92.84 99.86 93.09 100.06 93.33 100.30 93.55 100.58 93.74 100.89 93.92 101.23 94.06 101.58 94.18 101.95 94.26 102.33 94.31 102.74 94.33 103.09 94.32 103.43 94.28 103.75 94.22 104.06 94.13 104.35 94.02 104.61 93.88 104.85 93.73 105.06 93.56 105.23 93.37 105.39 93.16 105.51 92.94 105.60 92.72 105.67 92.49 105.71 92.25 105.73 92.01 105.72 91.78 105.69 91.55 105.63 91.34 105.56 91.14 105.47 90.95 105.35 90.77 105.18 90.61 104.97 90.45 104.72 90.31 104.43 90.17 104.18 90.08 103.83 89.97 103.38 89.84 102.83 89.69 102.19 89.52 101.54 89.35 100.97 89.18 100.49 89.01 100.09 88.84 99.78 88.68 99.44 88.47 99.14 88.23 98.88 87.98 98.66 87.70 98.47 87.41 98.31 87.10 98.19 86.78 98.11 86.44 98.05 86.08 98.04 85.71 98.06 85.31 98.12 84.91 98.23 84.52 98.38 84.15 98.57 83.78 98.81 83.44 99.08 83.13 99.39 82.86 99.74 82.62 100.13 82.42 100.55 82.25 100.99 82.12 101.45 82.03 101.92 81.97 102.41 81.95 102.95 81.97 103.47 82.03 103.95 82.13 104.41 82.27 104.85 82.44 105.25 82.65 105.61 82.90 105.94 83.19 106.22 83.51 106.47 83.87 106.68 84.26 106.84 84.67 106.96 85.09 107.04 85.54 107.08 86.01 105.54 86.01 105.46 85.57 105.34 85.17 105.16 84.82 104.94 84.51 104.67 84.25 104.34 84.04 103.96 83.87 103.52 83.76 103.03 83.68 102.47 83.66 101.90 83.68 101.40 83.75 100.95 83.87 100.58 84.04 100.27 84.25 100.02 84.49 99.83 84.76 99.69 85.04 99.60 85.34 99.58 85.66 99.60 85.94 99.66 86.20 99.75 86.44 99.89 86.65 100.07 86.85 100.32 87.04 100.70 87.22 101.20 87.42 101.83 87.61 102.58 87.80 103.34 87.99 103.99 88.17 104.53 88.34 104.97 88.51 105.30 88.66 105.68 88.89 106.02 89.14 106.32 89.42 106.58 89.72 106.79 90.04 106.96 90.39 107.10 90.75 107.19 91.14 107.25 91.54 107.27 91.97 107.24 92.40 107.18 92.82 107.07 93.23 106.91 93.63 106.71 94.01 106.47 94.38 106.19 94.71 105.87 95.01 105.52 95.27 105.12 95.50 104.70 95.69 104.25 95.84 103.79 95.95 103.30 96.01 102.80 96.04 102.16 96.01 101.57 95.94 101.02 95.83 100.51 95.67 100.05 95.46 99.62 95.21 99.24 94.91 98.89 94.56 98.58 94.17 98.31 93.74 98.08 93.26 97.90 92.76 97.77 92.24 97.68 91.70 97.65 91.13 Z" />
</svg>
