<?xml version="1.0" encoding="utf-8"?>
<!-- Created with "sPlan" (http://www.abacom-online.de) -->
<svg version="1.1" baseProfile="full"
xmlns="http://www.w3.org/2000/svg"
width="19mm" height="20mm"
viewBox="0 0 191 209">
<title>MCROS</title>
<defs>
<style type="text/css">
<![CDATA[
polyline {stroke-linecap:round; stroke-linejoin:round}
polygon {stroke-linecap:round; stroke-linejoin:round}
path {stroke-linecap:round; stroke-linejoin:round}
circle {stroke-linecap:round; stroke-linejoin:round}
]]>
</style>
</defs>
<polyline points="44.56 88.22 61.65 88.22 61.65 78.95 83.47 78.95 83.47 59.05 96.42 59.05 108.11 59.05 108.11 78.79 131.19 78.79 131.19 88.22 146.92 88.22 131.19 88.22 131.19 98.61 108.31 98.61 108.31 118.84 96.29 118.75 84.22 118.75 84.22 98.95 61.65 98.95 61.65 88.22" fill="none" stroke="rgb(0,0,255)" stroke-width="2" />
<path fill="rgb(0,0,0)" stroke="rgb(0,0,0)" stroke-width="0" d=" M 52.75 162.99 L 52.77 143.79 56.48 143.79 60.01 157.32 60.20 158.04 60.37 158.68 60.51 159.24 60.63 159.73 60.73 160.15 60.84 159.69 60.98 159.16 61.13 158.54 61.31 157.85 61.51 157.08 65.00 143.79 68.73 143.79 68.71 162.99 66.54 162.99 66.56 146.19 62.20 162.99 59.27 162.99 54.93 146.19 54.91 162.99 Z M 84.95 156.16 L 87.11 156.78 86.77 157.99 86.35 159.08 85.84 160.05 85.23 160.89 84.54 161.62 83.76 162.22 82.92 162.69 82.02 163.02 81.04 163.22 80.01 163.29 78.94 163.24 77.96 163.08 77.06 162.83 76.24 162.48 75.50 162.03 74.84 161.48 74.25 160.84 73.72 160.11 73.26 159.28 72.86 158.37 72.54 157.40 72.29 156.40 72.11 155.38 72.00 154.32 71.96 153.24 72.01 152.08 72.13 150.97 72.34 149.93 72.62 148.94 72.99 148.02 73.44 147.18 73.95 146.41 74.54 145.74 75.19 145.15 75.91 144.64 76.68 144.23 77.48 143.90 78.31 143.67 79.18 143.53 80.07 143.49 81.07 143.55 82.00 143.73 82.87 144.02 83.67 144.44 84.40 144.98 85.06 145.63 85.64 146.37 86.12 147.21 86.53 148.15 86.84 149.19 84.68 149.76 84.41 149.00 84.10 148.32 83.75 147.73 83.35 147.23 82.91 146.81 82.42 146.48 81.88 146.22 81.30 146.03 80.67 145.92 79.98 145.89 79.20 145.93 78.47 146.05 77.79 146.26 77.17 146.54 76.60 146.91 76.08 147.35 75.64 147.85 75.25 148.40 74.94 149.01 74.68 149.67 74.48 150.37 74.33 151.07 74.22 151.78 74.15 152.51 74.13 153.24 74.15 154.16 74.23 155.03 74.36 155.86 74.54 156.64 74.78 157.37 75.07 158.04 75.41 158.64 75.82 159.17 76.28 159.63 76.81 160.01 77.37 160.33 77.94 160.57 78.54 160.75 79.16 160.85 79.79 160.89 80.55 160.84 81.26 160.70 81.92 160.46 82.54 160.12 83.10 159.70 83.61 159.17 84.05 158.56 84.42 157.85 84.72 157.05 84.95 156.16 Z M 90.08 162.99 L 90.09 143.79 97.55 143.79 98.42 143.81 99.20 143.87 99.89 143.97 100.50 144.12 101.02 144.30 101.47 144.54 101.89 144.85 102.27 145.21 102.61 145.64 102.91 146.14 103.16 146.67 103.36 147.23 103.50 147.81 103.59 148.42 103.61 149.04 103.57 149.84 103.43 150.58 103.19 151.27 102.86 151.91 102.44 152.50 101.92 153.02 101.30 153.46 100.57 153.82 99.74 154.09 98.81 154.29 99.12 154.49 99.40 154.70 99.65 154.91 99.86 155.11 100.04 155.31 100.40 155.76 100.75 156.23 101.10 156.73 101.45 157.24 101.79 157.78 104.68 162.99 102.16 162.99 99.91 159.01 99.53 158.35 99.18 157.76 98.85 157.23 98.56 156.77 98.29 156.37 98.04 156.03 97.80 155.73 97.57 155.49 97.35 155.28 97.15 155.13 96.94 155.00 96.74 154.90 96.53 154.80 96.33 154.73 96.12 154.67 95.94 154.64 95.73 154.62 95.48 154.60 95.19 154.59 94.86 154.59 92.25 154.59 92.24 162.99 Z M 92.25 152.19 L 97.09 152.19 97.69 152.17 98.23 152.13 98.73 152.06 99.17 151.97 99.57 151.85 99.92 151.69 100.23 151.51 100.52 151.29 100.76 151.04 100.97 150.76 101.14 150.45 101.28 150.14 101.37 149.81 101.43 149.48 101.45 149.13 101.41 148.63 101.30 148.18 101.12 147.75 100.87 147.37 100.54 147.02 100.13 146.72 99.64 146.48 99.06 146.32 98.40 146.22 97.65 146.19 92.26 146.19 Z M 106.59 153.64 L 106.68 151.82 106.96 150.16 107.42 148.67 108.07 147.34 108.90 146.18 109.88 145.21 110.96 144.46 112.15 143.92 113.45 143.59 114.86 143.49 115.79 143.54 116.69 143.69 117.55 143.94 118.38 144.30 119.16 144.75 119.89 145.30 120.55 145.92 121.14 146.63 121.65 147.42 122.09 148.28 122.45 149.21 122.73 150.19 122.93 151.22 123.05 152.29 123.09 153.42 123.04 154.56 122.91 155.65 122.70 156.69 122.40 157.68 122.02 158.63 121.56 159.50 121.03 160.29 120.43 160.98 119.76 161.59 119.02 162.10 118.23 162.53 117.41 162.86 116.58 163.10 115.71 163.24 114.83 163.29 113.87 163.23 112.96 163.08 112.09 162.82 111.26 162.45 110.48 161.98 109.75 161.42 109.09 160.78 108.51 160.07 108.00 159.28 107.57 158.42 107.22 157.50 106.94 156.57 106.74 155.61 106.63 154.64 106.59 153.64 Z M 108.75 153.66 L 108.82 154.95 109.02 156.12 109.37 157.18 109.85 158.13 110.47 158.95 111.20 159.65 112.00 160.19 112.87 160.58 113.81 160.81 114.81 160.89 115.84 160.81 116.79 160.57 117.67 160.18 118.47 159.64 119.20 158.94 119.82 158.09 120.30 157.11 120.64 156.01 120.85 154.77 120.92 153.40 120.89 152.52 120.81 151.68 120.66 150.89 120.46 150.14 120.19 149.44 119.87 148.79 119.49 148.21 119.06 147.68 118.58 147.22 118.04 146.82 117.46 146.48 116.86 146.22 116.22 146.03 115.56 145.92 114.87 145.89 113.90 145.96 112.98 146.17 112.12 146.53 111.31 147.03 110.56 147.68 109.91 148.49 109.40 149.50 109.04 150.69 108.82 152.08 108.75 153.66 Z M 125.25 156.39 L 127.41 156.39 127.48 156.95 127.59 157.47 127.73 157.95 127.90 158.39 128.11 158.79 128.35 159.15 128.64 159.48 128.98 159.79 129.37 160.06 129.81 160.31 130.28 160.52 130.78 160.68 131.29 160.79 131.84 160.86 132.40 160.89 132.90 160.87 133.38 160.82 133.83 160.73 134.26 160.61 134.66 160.45 135.04 160.26 135.37 160.04 135.66 159.80 135.91 159.54 136.13 159.24 136.30 158.93 136.43 158.62 136.53 158.30 136.59 157.97 136.61 157.63 136.59 157.30 136.55 156.98 136.48 156.68 136.38 156.40 136.25 156.14 136.08 155.89 135.84 155.65 135.55 155.44 135.19 155.23 134.78 155.05 134.43 154.91 133.94 154.76 133.31 154.57 132.54 154.36 131.63 154.13 130.71 153.88 129.92 153.64 129.24 153.40 128.68 153.17 128.24 152.95 127.77 152.64 127.35 152.31 126.98 151.96 126.67 151.57 126.40 151.16 126.18 150.72 126.01 150.27 125.89 149.79 125.82 149.29 125.79 148.77 125.83 148.20 125.92 147.64 126.07 147.10 126.28 146.57 126.55 146.06 126.88 145.58 127.26 145.14 127.70 144.76 128.19 144.43 128.74 144.14 129.33 143.90 129.95 143.72 130.59 143.59 131.25 143.51 131.95 143.49 132.71 143.51 133.43 143.60 134.11 143.73 134.76 143.92 135.37 144.17 135.94 144.47 136.45 144.82 136.90 145.22 137.31 145.68 137.65 146.18 137.94 146.73 138.17 147.30 138.34 147.90 138.45 148.53 138.51 149.19 136.34 149.19 136.24 148.57 136.06 148.01 135.82 147.52 135.50 147.09 135.12 146.72 134.66 146.42 134.13 146.19 133.51 146.02 132.81 145.92 132.03 145.89 131.23 145.92 130.52 146.02 129.90 146.18 129.37 146.41 128.93 146.71 128.58 147.05 128.31 147.43 128.11 147.82 128.00 148.25 127.96 148.70 127.99 149.09 128.07 149.46 128.21 149.79 128.40 150.09 128.65 150.37 129.01 150.63 129.54 150.90 130.24 151.16 131.12 151.44 132.18 151.71 133.25 151.98 134.16 152.23 134.93 152.47 135.54 152.70 136.01 152.91 136.54 153.24 137.02 153.59 137.44 153.98 137.80 154.40 138.10 154.86 138.34 155.34 138.53 155.86 138.66 156.40 138.74 156.97 138.77 157.57 138.74 158.17 138.65 158.76 138.49 159.34 138.27 159.90 137.99 160.44 137.65 160.96 137.26 161.43 136.81 161.84 136.31 162.22 135.76 162.54 135.16 162.81 134.54 163.02 133.88 163.17 133.20 163.26 132.49 163.29 131.59 163.25 130.76 163.16 129.99 163.00 129.27 162.77 128.62 162.48 128.02 162.12 127.48 161.70 126.99 161.22 126.56 160.67 126.18 160.05 125.86 159.39 125.60 158.69 125.42 157.95 125.30 157.19 125.25 156.39 Z" />
<path fill="rgb(255,0,0)" stroke="rgb(255,0,0)" stroke-width="2" d=" M 143 86 C 143 85 145 85 145 85 L 149 85 L 149 85 C 150 85 150 86 150 86 L 150 90 L 150 90 C 150 92 149 92 149 92 L 145 92 L 145 92 C 143 92 143 90 143 90 L 143 86 Z" />
<path fill="rgb(255,0,0)" stroke="rgb(255,0,0)" stroke-width="2" d=" M 41 86 C 41 85 43 85 43 85 L 46 85 L 46 85 C 48 85 48 86 48 86 L 48 90 L 48 90 C 48 92 46 92 46 92 L 43 92 L 43 92 C 41 92 41 90 41 90 L 41 86 Z" />
<polyline points="96.42 59.05 96.42 44.56" fill="none" stroke="rgb(0,0,255)" stroke-width="2" />
<path fill="rgb(255,0,0)" stroke="rgb(255,0,0)" stroke-width="2" d=" M 93 43 C 93 41 95 41 95 41 L 98 41 L 98 41 C 100 41 100 43 100 43 L 100 46 L 100 46 C 100 48 98 48 98 48 L 95 48 L 95 48 C 93 48 93 46 93 46 L 93 43 Z" />
<polyline points="96.29 118.75 96.29 134.90" fill="none" stroke="rgb(0,0,0)" stroke-width="2" />
<path fill="rgb(255,0,0)" stroke="rgb(255,0,0)" stroke-width="2" d=" M 93 133 C 93 131 95 131 95 131 L 98 131 L 98 131 C 100 131 100 133 100 133 L 100 137 L 100 137 C 100 138 98 138 98 138 L 95 138 L 95 138 C 93 138 93 137 93 137 L 93 133 Z" />
<polyline points="56.28 83.75 51.57 92.78" fill="none" stroke="rgb(0,0,255)" stroke-width="2" />
</svg>
