<?xml version="1.0" encoding="utf-8"?>
<!-- Created with "sPlan" (http://www.abacom-online.de) -->
<svg version="1.1" baseProfile="full"
xmlns="http://www.w3.org/2000/svg"
width="19mm" height="14mm"
viewBox="0 0 198 143">
<title>MLEFQS</title>
<defs>
<style type="text/css">
<![CDATA[
polyline {stroke-linecap:round; stroke-linejoin:round}
polygon {stroke-linecap:round; stroke-linejoin:round}
path {stroke-linecap:round; stroke-linejoin:round}
circle {stroke-linecap:round; stroke-linejoin:round}
]]>
</style>
</defs>
<polyline points="44.56 55.23 62.87 55.23 62.87 41.00 117.44 41.00 117.44 55.23 117.44 55.23 117.44 55.23 117.44 69.46 62.87 69.46 62.87 55.23" fill="none" stroke="rgb(0,0,255)" stroke-width="2" />
<path fill="rgb(0,0,0)" stroke="rgb(0,0,0)" stroke-width="0" d=" M 50.10 96.38 L 50.12 76.08 54.04 76.08 57.78 90.38 57.98 91.14 58.16 91.82 58.31 92.42 58.44 92.94 58.54 93.37 58.66 92.89 58.80 92.33 58.96 91.68 59.15 90.95 59.36 90.14 63.06 76.08 66.99 76.08 66.98 96.38 64.69 96.38 64.71 78.61 60.09 96.38 56.99 96.38 52.41 78.61 52.39 96.38 Z M 71.27 96.38 L 71.28 76.08 73.57 76.08 73.56 93.84 82.71 93.84 82.71 96.38 Z M 85.28 96.38 L 85.30 76.08 98.45 76.08 98.45 78.61 87.59 78.61 87.58 84.64 97.87 84.64 97.87 87.18 87.58 87.18 87.57 93.84 98.73 93.84 98.72 96.38 Z M 102.15 96.38 L 102.17 76.08 114.47 76.08 114.47 78.61 104.46 78.61 104.45 84.64 113.03 84.64 113.03 87.18 104.45 87.18 104.44 96.38 Z M 131.35 93.94 L 131.96 94.49 132.54 94.98 133.11 95.40 133.66 95.76 134.19 96.06 133.57 97.92 132.82 97.58 132.06 97.18 131.31 96.70 130.56 96.16 129.80 95.54 128.98 95.96 128.13 96.28 127.24 96.51 126.31 96.65 125.36 96.69 124.39 96.64 123.47 96.48 122.58 96.22 121.72 95.85 120.90 95.37 120.14 94.80 119.45 94.14 118.83 93.39 118.29 92.56 117.83 91.64 117.44 90.66 117.14 89.62 116.92 88.54 116.79 87.41 116.75 86.23 116.80 85.06 116.93 83.92 117.14 82.83 117.45 81.79 117.83 80.78 118.30 79.85 118.84 79.00 119.46 78.26 120.14 77.60 120.90 77.04 121.72 76.58 122.57 76.22 123.46 75.96 124.39 75.81 125.35 75.76 126.33 75.81 127.26 75.97 128.16 76.23 129.02 76.60 129.83 77.07 130.59 77.64 131.28 78.29 131.89 79.03 132.42 79.85 132.87 80.75 133.25 81.72 133.54 82.74 133.75 83.80 133.87 84.92 133.91 86.08 133.89 87.05 133.81 87.98 133.68 88.86 133.50 89.71 133.27 90.52 132.99 91.29 132.66 92.01 132.28 92.70 131.84 93.34 131.35 93.94 Z M 125.99 90.57 L 126.81 90.85 127.56 91.19 128.26 91.57 128.89 92.01 129.47 92.50 130.24 91.58 130.85 90.49 131.28 89.23 131.54 87.80 131.62 86.21 131.59 85.28 131.50 84.40 131.35 83.57 131.14 82.78 130.87 82.05 130.54 81.36 130.15 80.75 129.70 80.19 129.20 79.71 128.65 79.28 128.05 78.93 127.42 78.65 126.76 78.45 126.08 78.34 125.37 78.30 124.31 78.38 123.33 78.61 122.43 79.01 121.60 79.57 120.84 80.29 120.19 81.16 119.69 82.19 119.33 83.38 119.11 84.72 119.04 86.23 119.11 87.69 119.32 89.01 119.67 90.18 120.17 91.22 120.81 92.11 121.56 92.85 122.39 93.42 123.29 93.83 124.28 94.07 125.34 94.16 125.86 94.14 126.37 94.07 126.86 93.97 127.34 93.82 127.81 93.64 127.35 93.34 126.88 93.08 126.40 92.85 125.90 92.66 125.40 92.51 Z M 136.48 89.40 L 138.77 89.40 138.85 89.99 138.96 90.55 139.11 91.06 139.29 91.52 139.51 91.94 139.76 92.32 140.07 92.67 140.43 92.99 140.84 93.28 141.31 93.54 141.80 93.76 142.33 93.94 142.88 94.06 143.45 94.13 144.05 94.16 144.58 94.14 145.08 94.08 145.56 93.99 146.01 93.86 146.44 93.69 146.83 93.49 147.19 93.27 147.50 93.01 147.76 92.73 147.99 92.42 148.17 92.09 148.31 91.76 148.41 91.42 148.47 91.07 148.49 90.72 148.48 90.36 148.43 90.03 148.36 89.71 148.25 89.41 148.12 89.13 147.93 88.87 147.69 88.62 147.38 88.39 147.00 88.18 146.56 87.98 146.19 87.84 145.67 87.68 145.00 87.48 144.19 87.26 143.23 87.01 142.26 86.75 141.42 86.50 140.70 86.25 140.11 86.00 139.64 85.76 139.15 85.44 138.71 85.09 138.32 84.71 137.98 84.31 137.70 83.87 137.47 83.41 137.29 82.93 137.16 82.42 137.09 81.90 137.06 81.35 137.10 80.74 137.19 80.15 137.35 79.58 137.57 79.02 137.86 78.48 138.21 77.97 138.61 77.51 139.07 77.11 139.60 76.75 140.18 76.45 140.80 76.20 141.45 76.01 142.13 75.87 142.84 75.79 143.57 75.76 144.37 75.79 145.13 75.87 145.86 76.02 146.54 76.22 147.19 76.48 147.79 76.80 148.33 77.17 148.81 77.59 149.23 78.07 149.60 78.61 149.91 79.18 150.15 79.79 150.33 80.43 150.45 81.09 150.50 81.79 148.22 81.79 148.10 81.13 147.92 80.54 147.66 80.02 147.33 79.56 146.92 79.18 146.44 78.86 145.87 78.61 145.22 78.44 144.48 78.33 143.66 78.30 142.81 78.33 142.05 78.44 141.40 78.61 140.84 78.85 140.38 79.17 140.01 79.53 139.72 79.92 139.51 80.35 139.39 80.80 139.35 81.27 139.38 81.69 139.47 82.07 139.61 82.42 139.82 82.74 140.08 83.03 140.46 83.31 141.02 83.59 141.77 83.88 142.70 84.16 143.81 84.45 144.94 84.73 145.91 85.00 146.72 85.26 147.37 85.50 147.86 85.73 148.43 86.07 148.93 86.44 149.38 86.86 149.76 87.30 150.07 87.78 150.33 88.30 150.53 88.84 150.67 89.41 150.75 90.02 150.78 90.65 150.75 91.29 150.65 91.91 150.49 92.52 150.26 93.11 149.96 93.69 149.60 94.23 149.19 94.73 148.71 95.17 148.18 95.56 147.60 95.90 146.97 96.19 146.30 96.41 145.61 96.57 144.89 96.66 144.14 96.69 143.19 96.66 142.31 96.56 141.49 96.39 140.74 96.15 140.05 95.84 139.42 95.47 138.85 95.02 138.33 94.51 137.87 93.93 137.47 93.27 137.13 92.57 136.86 91.83 136.66 91.06 136.54 90.25 136.48 89.40 Z" />
<path fill="rgb(255,0,0)" stroke="rgb(255,0,0)" stroke-width="2" d=" M 41 53 C 41 52 43 52 43 52 L 46 52 L 46 52 C 48 52 48 53 48 53 L 48 57 L 48 57 C 48 59 46 59 46 59 L 43 59 L 43 59 C 41 59 41 57 41 57 L 41 53 Z" />
<polyline points="117.44 55.23 127.00 55.23 127.00 45.00 127.00 65.00" fill="none" stroke="rgb(0,0,255)" stroke-width="2" />
<polyline points="134.00 45.00 134.00 65.00 134.00 55.00 144.00 55.00 144.00 41.12 144.00 69.31" fill="none" stroke="rgb(0,0,255)" stroke-width="2" />
<polyline points="150.77 46.49 150.77 63.69" fill="none" stroke="rgb(0,0,255)" stroke-width="2" />
<polyline points="157.21 51.32 157.21 58.93" fill="none" stroke="rgb(0,0,255)" stroke-width="2" />
<polyline points="56.78 50.69 52.07 59.72" fill="none" stroke="rgb(0,0,255)" stroke-width="2" />
<path fill="rgb(0,0,255)" stroke="rgb(0,0,255)" stroke-width="0" d=" M 88.06 60.72 L 88.54 61.15 89.00 61.53 89.45 61.87 89.88 62.15 90.30 62.39 89.81 63.86 89.22 63.59 88.62 63.27 88.03 62.90 87.43 62.47 86.84 61.98 86.19 62.31 85.51 62.56 84.81 62.74 84.08 62.85 83.33 62.89 82.56 62.85 81.83 62.72 81.13 62.51 80.45 62.22 79.81 61.84 79.20 61.39 78.66 60.87 78.17 60.28 77.74 59.62 77.38 58.90 77.07 58.12 76.83 57.30 76.66 56.45 76.56 55.56 76.53 54.63 76.56 53.70 76.67 52.80 76.84 51.94 77.08 51.11 77.38 50.32 77.75 49.58 78.18 48.92 78.66 48.33 79.21 47.81 79.81 47.37 80.45 47.00 81.12 46.72 81.83 46.52 82.56 46.39 83.32 46.35 84.09 46.40 84.83 46.52 85.54 46.73 86.21 47.02 86.86 47.39 87.46 47.84 88.00 48.35 88.48 48.93 88.90 49.58 89.26 50.30 89.56 51.06 89.79 51.87 89.95 52.71 90.05 53.59 90.08 54.51 90.06 55.27 90.00 56.00 89.90 56.71 89.76 57.37 89.58 58.01 89.36 58.62 89.09 59.19 88.79 59.73 88.45 60.24 88.06 60.72 Z M 83.83 58.05 L 84.47 58.28 85.07 58.54 85.62 58.85 86.12 59.19 86.57 59.57 87.18 58.85 87.66 57.99 88.00 56.99 88.21 55.87 88.27 54.61 88.25 53.88 88.18 53.18 88.06 52.52 87.89 51.90 87.68 51.32 87.42 50.78 87.11 50.29 86.76 49.86 86.36 49.47 85.92 49.14 85.45 48.86 84.95 48.64 84.44 48.48 83.90 48.39 83.33 48.36 82.50 48.42 81.73 48.61 81.01 48.92 80.36 49.36 79.76 49.93 79.25 50.62 78.85 51.44 78.56 52.37 78.39 53.44 78.33 54.62 78.39 55.78 78.56 56.82 78.84 57.75 79.23 58.56 79.73 59.27 80.32 59.85 80.98 60.30 81.69 60.63 82.47 60.82 83.31 60.89 83.72 60.87 84.12 60.82 84.51 60.74 84.89 60.62 85.26 60.47 84.90 60.24 84.53 60.03 84.15 59.86 83.76 59.71 83.36 59.59 Z M 92.11 57.13 L 93.92 57.13 93.98 57.60 94.07 58.03 94.19 58.44 94.33 58.80 94.50 59.13 94.70 59.44 94.95 59.71 95.23 59.97 95.56 60.20 95.92 60.40 96.32 60.58 96.73 60.71 97.16 60.81 97.62 60.87 98.09 60.89 98.51 60.87 98.90 60.83 99.28 60.75 99.64 60.65 99.98 60.52 100.29 60.36 100.57 60.18 100.81 59.98 101.02 59.76 101.20 59.51 101.34 59.25 101.46 58.99 101.54 58.72 101.58 58.45 101.60 58.17 101.59 57.89 101.55 57.62 101.49 57.37 101.41 57.14 101.30 56.92 101.16 56.71 100.96 56.52 100.72 56.33 100.42 56.16 100.07 56.01 99.78 55.90 99.37 55.77 98.84 55.61 98.20 55.44 97.44 55.24 96.68 55.04 96.01 54.84 95.44 54.64 94.98 54.44 94.61 54.25 94.22 54.00 93.87 53.73 93.56 53.43 93.30 53.11 93.07 52.76 92.89 52.40 92.75 52.02 92.65 51.62 92.59 51.20 92.57 50.77 92.60 50.29 92.67 49.82 92.80 49.37 92.97 48.93 93.20 48.50 93.47 48.10 93.79 47.74 94.16 47.42 94.57 47.14 95.03 46.90 95.52 46.70 96.04 46.55 96.57 46.44 97.13 46.38 97.71 46.35 98.34 46.38 98.94 46.45 99.52 46.56 100.06 46.72 100.57 46.93 101.04 47.18 101.47 47.47 101.85 47.80 102.18 48.18 102.47 48.60 102.71 49.06 102.91 49.54 103.05 50.04 103.14 50.57 103.19 51.11 101.38 51.11 101.29 50.60 101.14 50.13 100.94 49.72 100.68 49.36 100.36 49.05 99.98 48.80 99.53 48.61 99.01 48.47 98.43 48.39 97.78 48.36 97.11 48.39 96.51 48.47 96.00 48.61 95.55 48.80 95.19 49.05 94.90 49.33 94.67 49.64 94.51 49.98 94.41 50.33 94.38 50.71 94.40 51.04 94.47 51.34 94.58 51.62 94.75 51.87 94.95 52.10 95.25 52.32 95.70 52.54 96.29 52.77 97.02 52.99 97.90 53.22 98.79 53.44 99.56 53.66 100.20 53.86 100.71 54.05 101.10 54.23 101.55 54.50 101.95 54.79 102.30 55.12 102.60 55.47 102.85 55.85 103.05 56.26 103.21 56.69 103.32 57.14 103.39 57.62 103.41 58.12 103.38 58.62 103.30 59.11 103.17 59.59 102.99 60.06 102.76 60.52 102.47 60.95 102.15 61.34 101.77 61.69 101.36 62.00 100.89 62.27 100.39 62.49 99.87 62.67 99.32 62.79 98.75 62.87 98.16 62.89 97.41 62.86 96.72 62.78 96.07 62.65 95.48 62.46 94.93 62.22 94.43 61.92 93.98 61.57 93.57 61.16 93.21 60.70 92.89 60.19 92.62 59.63 92.41 59.05 92.25 58.44 92.15 57.80 92.11 57.13 Z" />
</svg>
