<?xml version="1.0" encoding="utf-8"?>
<!-- Created with "sPlan" (http://www.abacom-online.de) -->
<svg version="1.1" baseProfile="full"
xmlns="http://www.w3.org/2000/svg"
width="20mm" height="14mm"
viewBox="0 0 205 143">
<title>MLINQS</title>
<defs>
<style type="text/css">
<![CDATA[
polyline {stroke-linecap:round; stroke-linejoin:round}
polygon {stroke-linecap:round; stroke-linejoin:round}
path {stroke-linecap:round; stroke-linejoin:round}
circle {stroke-linecap:round; stroke-linejoin:round}
]]>
</style>
</defs>
<polyline points="44.56 55.23 67.90 55.23 67.90 41.00 137.44 41.00 137.44 55.23 160.78 55.23 137.44 55.23 137.44 69.46 67.90 69.46 67.90 55.23" fill="none" stroke="rgb(0,0,255)" stroke-width="2" />
<path fill="rgb(0,0,0)" stroke="rgb(0,0,0)" stroke-width="0" d=" M 57.09 96.21 L 57.10 76.04 61.00 76.04 64.72 90.25 64.91 91.01 65.09 91.68 65.24 92.27 65.37 92.79 65.47 93.22 65.59 92.74 65.73 92.18 65.89 91.54 66.08 90.81 66.28 90.01 69.95 76.04 73.86 76.04 73.85 96.21 71.57 96.21 71.59 78.56 67.01 96.21 63.93 96.21 59.38 78.56 59.36 96.21 Z M 78.11 96.21 L 78.13 76.04 80.40 76.04 80.39 93.68 89.48 93.68 89.47 96.21 Z M 92.31 96.21 L 92.33 76.04 94.60 76.04 94.58 96.21 Z M 99.13 96.21 L 99.15 76.04 101.58 76.04 111.07 92.02 111.08 76.04 113.35 76.04 113.33 96.21 110.90 96.21 101.42 80.23 101.40 96.21 Z M 130.97 93.79 L 131.57 94.33 132.15 94.81 132.72 95.23 133.26 95.59 133.79 95.89 133.17 97.74 132.42 97.40 131.67 97.00 130.93 96.53 130.18 95.99 129.43 95.38 128.62 95.79 127.77 96.11 126.88 96.34 125.97 96.47 125.02 96.52 124.06 96.47 123.14 96.31 122.25 96.05 121.40 95.68 120.59 95.20 119.83 94.63 119.15 93.98 118.54 93.24 118.00 92.41 117.53 91.50 117.15 90.52 116.85 89.50 116.64 88.42 116.51 87.30 116.47 86.13 116.51 84.96 116.64 83.83 116.86 82.75 117.16 81.71 117.54 80.72 118.01 79.79 118.55 78.95 119.16 78.21 119.84 77.56 120.59 77.00 121.40 76.54 122.25 76.18 123.13 75.93 124.05 75.78 125.01 75.73 125.98 75.78 126.91 75.93 127.80 76.20 128.65 76.56 129.46 77.03 130.22 77.59 130.90 78.24 131.50 78.97 132.03 79.79 132.48 80.68 132.85 81.65 133.14 82.66 133.35 83.72 133.47 84.82 133.51 85.98 133.49 86.94 133.41 87.86 133.28 88.74 133.11 89.58 132.88 90.39 132.60 91.15 132.27 91.87 131.89 92.55 131.46 93.19 130.97 93.79 Z M 125.65 90.44 L 126.45 90.72 127.20 91.05 127.90 91.43 128.53 91.87 129.10 92.35 129.87 91.44 130.47 90.35 130.89 89.11 131.15 87.69 131.24 86.11 131.21 85.19 131.12 84.31 130.97 83.48 130.76 82.70 130.49 81.97 130.16 81.29 129.77 80.68 129.33 80.13 128.84 79.65 128.28 79.22 127.69 78.87 127.06 78.60 126.41 78.40 125.73 78.29 125.02 78.25 123.98 78.33 123.01 78.56 122.11 78.96 121.28 79.51 120.53 80.22 119.89 81.09 119.39 82.12 119.03 83.30 118.81 84.63 118.74 86.12 118.81 87.57 119.02 88.88 119.37 90.05 119.86 91.08 120.50 91.96 121.24 92.70 122.06 93.27 122.97 93.67 123.94 93.92 125.00 94.00 125.52 93.98 126.02 93.92 126.51 93.81 126.99 93.67 127.45 93.48 126.99 93.19 126.53 92.93 126.05 92.70 125.56 92.52 125.06 92.37 Z M 136.06 89.27 L 138.34 89.27 138.42 89.87 138.53 90.41 138.67 90.92 138.85 91.38 139.07 91.80 139.32 92.18 139.63 92.53 139.99 92.84 140.40 93.13 140.86 93.39 141.35 93.61 141.87 93.78 142.42 93.90 142.99 93.98 143.58 94.00 144.10 93.98 144.60 93.93 145.08 93.83 145.53 93.71 145.96 93.54 146.35 93.34 146.70 93.12 147.00 92.86 147.27 92.58 147.49 92.27 147.67 91.95 147.81 91.62 147.91 91.28 147.97 90.93 147.99 90.58 147.98 90.23 147.93 89.90 147.86 89.58 147.75 89.29 147.62 89.01 147.44 88.75 147.19 88.50 146.88 88.28 146.51 88.06 146.08 87.87 145.71 87.73 145.19 87.56 144.53 87.37 143.72 87.15 142.77 86.90 141.81 86.64 140.97 86.39 140.26 86.14 139.67 85.90 139.21 85.66 138.71 85.34 138.28 85.00 137.89 84.62 137.56 84.22 137.28 83.78 137.05 83.33 136.87 82.85 136.74 82.35 136.67 81.82 136.64 81.28 136.67 80.68 136.77 80.09 136.93 79.52 137.15 78.96 137.43 78.43 137.78 77.92 138.18 77.47 138.64 77.06 139.16 76.71 139.73 76.41 140.35 76.17 141.00 75.97 141.67 75.84 142.38 75.75 143.10 75.73 143.90 75.75 144.66 75.84 145.38 75.98 146.06 76.19 146.70 76.44 147.29 76.76 147.83 77.13 148.31 77.55 148.73 78.03 149.09 78.56 149.40 79.13 149.64 79.73 149.82 80.36 149.94 81.02 149.99 81.71 147.72 81.71 147.61 81.06 147.42 80.48 147.17 79.96 146.84 79.51 146.43 79.12 145.95 78.81 145.39 78.56 144.74 78.39 144.01 78.28 143.19 78.25 142.35 78.28 141.60 78.39 140.95 78.56 140.39 78.80 139.94 79.11 139.57 79.47 139.28 79.86 139.08 80.28 138.95 80.73 138.91 81.21 138.94 81.62 139.03 82.00 139.17 82.34 139.38 82.66 139.64 82.95 140.01 83.23 140.57 83.51 141.31 83.79 142.24 84.07 143.35 84.36 144.47 84.64 145.43 84.91 146.23 85.16 146.88 85.40 147.36 85.63 147.93 85.97 148.43 86.34 148.87 86.75 149.25 87.19 149.56 87.67 149.82 88.18 150.02 88.72 150.16 89.29 150.24 89.89 150.27 90.52 150.23 91.15 150.14 91.77 149.97 92.37 149.74 92.96 149.45 93.53 149.10 94.08 148.68 94.57 148.21 95.01 147.69 95.40 147.11 95.74 146.48 96.02 145.82 96.24 145.13 96.39 144.42 96.49 143.67 96.52 142.73 96.49 141.85 96.38 141.04 96.22 140.29 95.98 139.61 95.67 138.98 95.30 138.41 94.86 137.90 94.35 137.44 93.77 137.04 93.12 136.71 92.42 136.44 91.69 136.24 90.92 136.12 90.11 136.06 89.27 Z" />
<path fill="rgb(255,0,0)" stroke="rgb(255,0,0)" stroke-width="2" d=" M 157 53 C 157 52 159 52 159 52 L 163 52 L 163 52 C 164 52 164 53 164 53 L 164 57 L 164 57 C 164 59 163 59 163 59 L 159 59 L 159 59 C 157 59 157 57 157 57 L 157 53 Z" />
<path fill="rgb(255,0,0)" stroke="rgb(255,0,0)" stroke-width="2" d=" M 41 53 C 41 52 43 52 43 52 L 46 52 L 46 52 C 48 52 48 53 48 53 L 48 57 L 48 57 C 48 59 46 59 46 59 L 43 59 L 43 59 C 41 59 41 57 41 57 L 41 53 Z" />
<polyline points="56.20 50.68 51.49 59.71" fill="none" stroke="rgb(0,0,255)" stroke-width="2" />
<path fill="rgb(0,0,255)" stroke="rgb(0,0,255)" stroke-width="0" d=" M 100.40 60.57 L 100.87 61.00 101.34 61.39 101.78 61.72 102.22 62.01 102.64 62.24 102.15 63.71 101.55 63.44 100.96 63.12 100.36 62.75 99.77 62.32 99.17 61.83 98.52 62.16 97.85 62.42 97.15 62.60 96.42 62.71 95.66 62.74 94.90 62.70 94.17 62.58 93.46 62.37 92.79 62.07 92.14 61.70 91.54 61.24 90.99 60.72 90.51 60.13 90.08 59.48 89.71 58.75 89.41 57.97 89.17 57.16 89.00 56.30 88.90 55.41 88.86 54.48 88.90 53.55 89.00 52.65 89.17 51.79 89.41 50.97 89.72 50.17 90.09 49.44 90.52 48.77 91.00 48.18 91.54 47.66 92.14 47.22 92.78 46.86 93.46 46.57 94.16 46.37 94.89 46.25 95.66 46.21 96.43 46.25 97.17 46.37 97.87 46.58 98.55 46.87 99.20 47.24 99.80 47.69 100.34 48.21 100.82 48.79 101.24 49.43 101.60 50.15 101.89 50.91 102.12 51.72 102.29 52.56 102.39 53.44 102.42 54.36 102.40 55.13 102.34 55.86 102.24 56.56 102.09 57.23 101.91 57.86 101.69 58.47 101.43 59.04 101.13 59.58 100.78 60.09 100.40 60.57 Z M 96.16 57.90 L 96.80 58.13 97.40 58.39 97.95 58.70 98.45 59.04 98.91 59.43 99.52 58.70 100.00 57.84 100.34 56.85 100.54 55.72 100.61 54.46 100.59 53.73 100.52 53.03 100.40 52.37 100.23 51.75 100.01 51.17 99.75 50.63 99.44 50.15 99.09 49.71 98.70 49.32 98.26 48.99 97.79 48.71 97.29 48.49 96.77 48.34 96.23 48.24 95.67 48.21 94.84 48.27 94.06 48.46 93.35 48.78 92.69 49.22 92.09 49.78 91.58 50.47 91.18 51.29 90.90 52.23 90.73 53.29 90.67 54.47 90.72 55.63 90.89 56.67 91.17 57.60 91.56 58.42 92.07 59.12 92.66 59.70 93.31 60.16 94.03 60.48 94.81 60.67 95.65 60.74 96.06 60.72 96.46 60.67 96.85 60.59 97.23 60.48 97.60 60.33 97.23 60.09 96.86 59.89 96.48 59.71 96.09 59.56 95.70 59.44 Z M 104.45 56.98 L 106.25 56.98 106.32 57.45 106.41 57.89 106.52 58.29 106.67 58.66 106.84 58.99 107.04 59.29 107.28 59.57 107.57 59.82 107.89 60.05 108.26 60.26 108.65 60.43 109.07 60.56 109.50 60.66 109.95 60.72 110.42 60.74 110.84 60.72 111.24 60.68 111.62 60.61 111.97 60.50 112.31 60.37 112.62 60.22 112.90 60.04 113.15 59.83 113.36 59.61 113.53 59.37 113.68 59.11 113.79 58.84 113.87 58.57 113.92 58.30 113.93 58.02 113.92 57.74 113.89 57.48 113.83 57.23 113.74 56.99 113.64 56.77 113.49 56.56 113.30 56.37 113.05 56.19 112.76 56.02 112.41 55.86 112.11 55.75 111.70 55.62 111.18 55.47 110.54 55.29 109.78 55.10 109.01 54.89 108.35 54.69 107.78 54.49 107.31 54.30 106.95 54.11 106.55 53.85 106.21 53.58 105.90 53.28 105.63 52.96 105.41 52.62 105.23 52.25 105.09 51.87 104.99 51.47 104.93 51.06 104.91 50.62 104.93 50.14 105.01 49.68 105.13 49.22 105.31 48.78 105.54 48.35 105.81 47.95 106.13 47.59 106.50 47.27 106.91 46.99 107.37 46.75 107.86 46.56 108.37 46.40 108.91 46.29 109.47 46.23 110.04 46.21 110.68 46.23 111.28 46.30 111.85 46.41 112.39 46.57 112.90 46.78 113.38 47.03 113.80 47.32 114.18 47.66 114.52 48.04 114.81 48.46 115.05 48.91 115.24 49.39 115.39 49.89 115.48 50.42 115.52 50.97 113.72 50.97 113.63 50.45 113.48 49.98 113.28 49.57 113.01 49.21 112.69 48.91 112.31 48.66 111.86 48.46 111.35 48.32 110.77 48.24 110.12 48.21 109.44 48.24 108.85 48.32 108.33 48.46 107.89 48.65 107.53 48.90 107.23 49.19 107.01 49.50 106.84 49.83 106.75 50.19 106.71 50.56 106.74 50.89 106.80 51.19 106.92 51.47 107.08 51.72 107.29 51.95 107.59 52.17 108.03 52.40 108.62 52.62 109.36 52.85 110.24 53.07 111.13 53.30 111.89 53.51 112.53 53.71 113.05 53.90 113.43 54.08 113.88 54.35 114.28 54.65 114.63 54.97 114.93 55.32 115.18 55.70 115.39 56.11 115.54 56.54 115.65 56.99 115.72 57.47 115.74 57.97 115.72 58.47 115.64 58.97 115.51 59.44 115.33 59.91 115.09 60.37 114.81 60.80 114.48 61.19 114.11 61.54 113.69 61.85 113.23 62.12 112.73 62.34 112.21 62.52 111.66 62.64 111.09 62.72 110.49 62.74 109.75 62.72 109.05 62.64 108.41 62.50 107.81 62.31 107.27 62.07 106.77 61.77 106.31 61.42 105.91 61.02 105.54 60.56 105.22 60.04 104.96 59.49 104.75 58.90 104.59 58.29 104.49 57.65 104.45 56.98 Z" />
</svg>
