<?xml version="1.0" encoding="utf-8"?>
<!-- Created with "sPlan" (http://www.abacom-online.de) -->
<svg version="1.1" baseProfile="full"
xmlns="http://www.w3.org/2000/svg"
width="18mm" height="14mm"
viewBox="0 0 189 140">
<title>MLOCQS</title>
<defs>
<style type="text/css">
<![CDATA[
polyline {stroke-linecap:round; stroke-linejoin:round}
polygon {stroke-linecap:round; stroke-linejoin:round}
path {stroke-linecap:round; stroke-linejoin:round}
circle {stroke-linecap:round; stroke-linejoin:round}
]]>
</style>
</defs>
<polyline points="44.56 55.23 67.90 55.23 67.90 41.00 137.44 41.00 137.44 55.23 137.44 55.23 137.44 55.23 137.44 69.46 67.90 69.46 67.90 55.23" fill="none" stroke="rgb(0,0,255)" stroke-width="2" />
<path fill="rgb(0,0,0)" stroke="rgb(0,0,0)" stroke-width="0" d=" M 50.93 94.19 L 50.94 75.64 54.53 75.64 57.95 88.72 58.13 89.41 58.29 90.03 58.43 90.58 58.55 91.05 58.64 91.45 58.75 91.01 58.88 90.49 59.03 89.90 59.20 89.23 59.39 88.49 62.77 75.64 66.37 75.64 66.35 94.19 64.26 94.19 64.28 77.96 60.06 94.19 57.23 94.19 53.04 77.96 53.02 94.19 Z M 70.27 94.19 L 70.29 75.64 72.38 75.64 72.37 91.87 80.73 91.87 80.73 94.19 Z M 82.30 85.16 L 82.40 83.40 82.66 81.80 83.11 80.36 83.74 79.08 84.54 77.95 85.49 77.02 86.53 76.29 87.68 75.77 88.94 75.45 90.30 75.35 91.20 75.40 92.07 75.54 92.90 75.79 93.70 76.13 94.46 76.57 95.17 77.10 95.80 77.70 96.37 78.39 96.86 79.15 97.28 79.98 97.63 80.88 97.90 81.83 98.10 82.82 98.21 83.86 98.25 84.95 98.21 86.05 98.08 87.10 97.88 88.11 97.59 89.07 97.22 89.98 96.78 90.83 96.26 91.58 95.68 92.26 95.04 92.84 94.32 93.34 93.56 93.75 92.77 94.07 91.96 94.30 91.13 94.44 90.27 94.48 89.35 94.43 88.47 94.28 87.63 94.03 86.83 93.68 86.06 93.22 85.36 92.68 84.73 92.07 84.17 91.38 83.68 90.61 83.26 89.78 82.92 88.90 82.65 87.99 82.46 87.07 82.34 86.13 82.30 85.16 Z M 84.40 85.18 L 84.46 86.43 84.66 87.56 84.99 88.58 85.46 89.50 86.06 90.30 86.76 90.97 87.54 91.49 88.37 91.87 89.28 92.09 90.26 92.16 91.25 92.09 92.17 91.86 93.02 91.49 93.79 90.96 94.49 90.28 95.09 89.46 95.56 88.52 95.89 87.45 96.09 86.25 96.16 84.93 96.13 84.08 96.05 83.26 95.91 82.50 95.71 81.78 95.45 81.10 95.14 80.48 94.78 79.91 94.36 79.40 93.90 78.96 93.38 78.57 92.82 78.24 92.23 77.99 91.62 77.81 90.98 77.70 90.31 77.67 89.37 77.74 88.48 77.95 87.65 78.29 86.87 78.78 86.15 79.40 85.52 80.19 85.03 81.16 84.68 82.31 84.47 83.66 84.40 85.18 Z M 112.89 87.60 L 114.98 88.20 114.66 89.36 114.25 90.42 113.75 91.35 113.17 92.17 112.49 92.87 111.75 93.45 110.93 93.90 110.06 94.23 109.12 94.42 108.11 94.48 107.08 94.43 106.13 94.29 105.26 94.04 104.47 93.70 103.76 93.26 103.12 92.73 102.55 92.12 102.04 91.41 101.59 90.62 101.21 89.74 100.90 88.80 100.66 87.83 100.48 86.84 100.38 85.82 100.34 84.78 100.38 83.65 100.50 82.58 100.70 81.57 100.98 80.62 101.34 79.73 101.77 78.91 102.27 78.18 102.83 77.52 103.46 76.95 104.16 76.47 104.90 76.06 105.68 75.75 106.48 75.53 107.31 75.39 108.18 75.35 109.14 75.41 110.04 75.58 110.88 75.87 111.65 76.27 112.36 76.79 113.00 77.42 113.56 78.14 114.03 78.95 114.42 79.86 114.72 80.86 112.63 81.41 112.37 80.67 112.07 80.02 111.73 79.45 111.35 78.96 110.92 78.56 110.45 78.24 109.93 77.99 109.36 77.81 108.75 77.70 108.09 77.67 107.34 77.71 106.63 77.83 105.98 78.03 105.37 78.30 104.82 78.66 104.32 79.08 103.89 79.56 103.52 80.10 103.21 80.68 102.97 81.32 102.78 82.00 102.63 82.68 102.52 83.37 102.46 84.07 102.43 84.77 102.46 85.66 102.53 86.51 102.66 87.31 102.84 88.06 103.06 88.77 103.34 89.42 103.68 89.99 104.07 90.51 104.52 90.95 105.02 91.32 105.56 91.62 106.12 91.86 106.70 92.03 107.29 92.13 107.91 92.16 108.64 92.12 109.33 91.98 109.97 91.75 110.56 91.43 111.11 91.01 111.60 90.51 112.02 89.91 112.38 89.23 112.67 88.46 112.89 87.60 Z M 130.42 91.97 L 130.97 92.47 131.51 92.91 132.02 93.30 132.52 93.63 133.01 93.90 132.44 95.60 131.75 95.30 131.06 94.92 130.38 94.49 129.69 93.99 129.00 93.43 128.25 93.81 127.47 94.11 126.66 94.32 125.81 94.44 124.94 94.48 124.06 94.44 123.21 94.29 122.40 94.05 121.61 93.71 120.87 93.27 120.17 92.75 119.54 92.15 118.97 91.46 118.48 90.70 118.05 89.87 117.70 88.97 117.42 88.02 117.23 87.03 117.11 86.00 117.07 84.92 117.11 83.85 117.23 82.81 117.43 81.81 117.71 80.86 118.06 79.94 118.49 79.08 118.98 78.32 119.54 77.63 120.17 77.03 120.87 76.52 121.61 76.10 122.39 75.77 123.20 75.54 124.05 75.40 124.93 75.35 125.82 75.40 126.68 75.54 127.50 75.78 128.28 76.12 129.03 76.55 129.72 77.07 130.35 77.66 130.90 78.34 131.39 79.08 131.81 79.91 132.15 80.80 132.42 81.73 132.61 82.70 132.72 83.72 132.76 84.78 132.73 85.67 132.66 86.52 132.55 87.33 132.38 88.10 132.17 88.84 131.92 89.54 131.61 90.20 131.26 90.83 130.86 91.42 130.42 91.97 Z M 125.52 88.88 L 126.26 89.14 126.95 89.45 127.59 89.80 128.17 90.20 128.70 90.65 129.40 89.81 129.95 88.81 130.35 87.66 130.58 86.36 130.66 84.90 130.64 84.05 130.56 83.25 130.42 82.49 130.22 81.77 129.97 81.10 129.67 80.47 129.32 79.91 128.91 79.40 128.45 78.96 127.94 78.57 127.40 78.24 126.82 77.99 126.22 77.81 125.60 77.70 124.95 77.67 123.98 77.74 123.09 77.96 122.26 78.32 121.50 78.83 120.81 79.49 120.22 80.29 119.76 81.23 119.43 82.31 119.23 83.54 119.16 84.92 119.23 86.25 119.42 87.46 119.74 88.53 120.20 89.48 120.78 90.29 121.46 90.97 122.22 91.49 123.05 91.86 123.95 92.09 124.93 92.16 125.40 92.15 125.86 92.09 126.31 91.99 126.75 91.86 127.18 91.69 126.76 91.42 126.33 91.18 125.89 90.97 125.44 90.80 124.98 90.66 Z M 135.10 87.82 L 137.20 87.82 137.27 88.36 137.37 88.87 137.51 89.33 137.67 89.75 137.87 90.14 138.10 90.49 138.39 90.81 138.72 91.10 139.09 91.37 139.51 91.60 139.97 91.81 140.45 91.96 140.95 92.07 141.47 92.14 142.02 92.16 142.50 92.15 142.96 92.10 143.40 92.01 143.81 91.89 144.21 91.74 144.57 91.56 144.89 91.35 145.17 91.12 145.41 90.86 145.62 90.58 145.79 90.28 145.92 89.97 146.01 89.66 146.06 89.34 146.08 89.02 146.07 88.70 146.03 88.39 145.96 88.10 145.86 87.83 145.74 87.57 145.57 87.33 145.34 87.11 145.06 86.90 144.72 86.70 144.32 86.52 143.98 86.39 143.50 86.24 142.89 86.06 142.15 85.86 141.27 85.63 140.39 85.40 139.62 85.16 138.96 84.93 138.42 84.71 138.00 84.49 137.54 84.20 137.14 83.88 136.78 83.53 136.48 83.16 136.22 82.76 136.01 82.34 135.85 81.90 135.73 81.44 135.66 80.96 135.63 80.46 135.67 79.90 135.75 79.36 135.90 78.84 136.10 78.33 136.36 77.83 136.68 77.37 137.05 76.95 137.47 76.58 137.95 76.26 138.48 75.98 139.05 75.75 139.65 75.58 140.27 75.45 140.91 75.37 141.58 75.35 142.31 75.38 143.01 75.45 143.67 75.59 144.30 75.77 144.89 76.01 145.44 76.30 145.93 76.64 146.37 77.03 146.76 77.47 147.09 77.95 147.37 78.48 147.60 79.03 147.76 79.61 147.87 80.22 147.92 80.86 145.83 80.86 145.73 80.26 145.56 79.72 145.32 79.24 145.02 78.83 144.65 78.47 144.21 78.18 143.69 77.96 143.09 77.80 142.42 77.70 141.66 77.67 140.89 77.70 140.20 77.80 139.60 77.96 139.09 78.18 138.67 78.47 138.33 78.80 138.07 79.16 137.88 79.54 137.76 79.95 137.73 80.39 137.75 80.77 137.83 81.12 137.97 81.44 138.15 81.73 138.39 82.00 138.74 82.25 139.25 82.51 139.93 82.77 140.79 83.03 141.80 83.29 142.84 83.55 143.72 83.80 144.46 84.03 145.05 84.25 145.50 84.46 146.02 84.77 146.49 85.12 146.89 85.49 147.24 85.90 147.53 86.34 147.76 86.81 147.94 87.30 148.07 87.83 148.15 88.38 148.17 88.96 148.14 89.54 148.05 90.11 147.90 90.67 147.69 91.21 147.42 91.74 147.10 92.23 146.72 92.69 146.28 93.09 145.80 93.45 145.26 93.76 144.69 94.02 144.08 94.22 143.45 94.37 142.79 94.45 142.10 94.48 141.24 94.45 140.43 94.36 139.69 94.20 139.00 93.98 138.37 93.70 137.79 93.36 137.27 92.95 136.79 92.49 136.37 91.95 136.00 91.36 135.69 90.71 135.45 90.04 135.27 89.33 135.15 88.59 135.10 87.82 Z" />
<path fill="rgb(255,0,0)" stroke="rgb(255,0,0)" stroke-width="2" d=" M 41 53 C 41 52 43 52 43 52 L 46 52 L 46 52 C 48 52 48 53 48 53 L 48 57 L 48 57 C 48 59 46 59 46 59 L 43 59 L 43 59 C 41 59 41 57 41 57 L 41 53 Z" />
<polyline points="56.44 50.69 51.73 59.72" fill="none" stroke="rgb(0,0,255)" stroke-width="2" />
<path fill="rgb(0,0,255)" stroke="rgb(0,0,255)" stroke-width="0" d=" M 100.04 61.07 L 100.52 61.51 100.98 61.89 101.43 62.22 101.86 62.51 102.28 62.75 101.79 64.21 101.20 63.95 100.60 63.63 100.00 63.25 99.41 62.82 98.82 62.34 98.17 62.67 97.49 62.92 96.79 63.10 96.06 63.21 95.30 63.25 94.54 63.21 93.81 63.08 93.11 62.87 92.43 62.58 91.78 62.20 91.18 61.75 90.64 61.23 90.15 60.64 89.72 59.98 89.35 59.26 89.05 58.48 88.81 57.66 88.64 56.81 88.54 55.91 88.51 54.98 88.54 54.05 88.64 53.16 88.82 52.30 89.05 51.47 89.36 50.68 89.73 49.94 90.16 49.27 90.64 48.68 91.19 48.17 91.78 47.72 92.43 47.36 93.10 47.08 93.80 46.87 94.54 46.75 95.30 46.71 96.07 46.75 96.81 46.88 97.52 47.08 98.19 47.37 98.84 47.75 99.44 48.20 99.98 48.71 100.46 49.29 100.88 49.94 101.24 50.65 101.54 51.42 101.77 52.22 101.93 53.07 102.03 53.95 102.06 54.87 102.04 55.63 101.98 56.36 101.88 57.06 101.74 57.73 101.56 58.37 101.34 58.97 101.07 59.55 100.77 60.09 100.43 60.60 100.04 61.07 Z M 95.81 58.41 L 96.45 58.63 97.04 58.90 97.59 59.20 98.10 59.55 98.55 59.93 99.16 59.20 99.64 58.34 99.98 57.35 100.18 56.23 100.25 54.97 100.23 54.23 100.16 53.54 100.04 52.88 99.87 52.26 99.66 51.68 99.39 51.14 99.09 50.65 98.74 50.21 98.34 49.83 97.90 49.49 97.43 49.21 96.93 48.99 96.42 48.84 95.87 48.75 95.31 48.71 94.48 48.78 93.71 48.97 92.99 49.28 92.33 49.72 91.74 50.29 91.23 50.98 90.83 51.79 90.54 52.73 90.37 53.79 90.31 54.98 90.37 56.13 90.53 57.17 90.81 58.10 91.21 58.92 91.71 59.62 92.30 60.21 92.96 60.66 93.67 60.98 94.45 61.18 95.29 61.24 95.70 61.23 96.10 61.18 96.49 61.09 96.87 60.98 97.24 60.83 96.88 60.60 96.51 60.39 96.12 60.21 95.74 60.06 95.34 59.94 Z M 104.09 57.48 L 105.90 57.48 105.96 57.96 106.05 58.39 106.17 58.79 106.31 59.16 106.48 59.49 106.68 59.79 106.93 60.07 107.21 60.32 107.54 60.55 107.90 60.76 108.29 60.93 108.71 61.07 109.14 61.17 109.59 61.22 110.07 61.24 110.48 61.23 110.88 61.18 111.26 61.11 111.62 61.01 111.96 60.88 112.27 60.72 112.55 60.54 112.79 60.34 113.00 60.12 113.18 59.87 113.32 59.61 113.43 59.35 113.51 59.08 113.56 58.80 113.58 58.53 113.57 58.25 113.53 57.98 113.47 57.73 113.39 57.50 113.28 57.27 113.14 57.07 112.94 56.87 112.70 56.69 112.40 56.52 112.05 56.36 111.76 56.25 111.35 56.12 110.82 55.97 110.18 55.80 109.42 55.60 108.66 55.39 107.99 55.19 107.42 54.99 106.96 54.80 106.59 54.61 106.20 54.36 105.85 54.08 105.54 53.78 105.28 53.46 105.05 53.12 104.87 52.75 104.73 52.37 104.63 51.98 104.57 51.56 104.55 51.13 104.58 50.65 104.65 50.18 104.78 49.73 104.95 49.29 105.18 48.86 105.45 48.46 105.77 48.09 106.14 47.77 106.55 47.50 107.01 47.26 107.50 47.06 108.02 46.91 108.55 46.80 109.11 46.73 109.69 46.71 110.32 46.73 110.92 46.80 111.50 46.92 112.04 47.08 112.55 47.28 113.02 47.53 113.45 47.82 113.83 48.16 114.16 48.54 114.45 48.96 114.69 49.42 114.89 49.89 115.03 50.40 115.12 50.92 115.17 51.47 113.36 51.47 113.27 50.95 113.12 50.49 112.92 50.08 112.66 49.72 112.34 49.41 111.96 49.16 111.51 48.97 110.99 48.83 110.41 48.74 109.76 48.71 109.09 48.74 108.49 48.82 107.97 48.96 107.53 49.16 107.17 49.40 106.88 49.69 106.65 50.00 106.49 50.33 106.39 50.69 106.36 51.07 106.38 51.39 106.45 51.70 106.56 51.97 106.72 52.23 106.93 52.46 107.23 52.68 107.67 52.90 108.26 53.12 109.00 53.35 109.88 53.58 110.77 53.80 111.54 54.01 112.18 54.21 112.69 54.40 113.08 54.58 113.53 54.85 113.93 55.15 114.28 55.48 114.58 55.83 114.83 56.21 115.03 56.61 115.19 57.04 115.30 57.50 115.36 57.97 115.39 58.47 115.36 58.98 115.28 59.47 115.15 59.95 114.97 60.42 114.74 60.87 114.45 61.30 114.13 61.69 113.75 62.04 113.33 62.35 112.87 62.62 112.37 62.85 111.85 63.02 111.30 63.15 110.73 63.22 110.14 63.25 109.39 63.22 108.69 63.14 108.05 63.00 107.45 62.82 106.91 62.57 106.41 62.28 105.96 61.93 105.55 61.52 105.19 61.06 104.87 60.55 104.60 59.99 104.39 59.41 104.23 58.79 104.13 58.15 104.09 57.48 Z" />
</svg>
