<?xml version="1.0" encoding="utf-8"?>
<!-- Created with "sPlan" (http://www.abacom-online.de) -->
<svg version="1.1" baseProfile="full"
xmlns="http://www.w3.org/2000/svg"
width="19mm" height="14mm"
viewBox="0 0 198 140">
<title>MOPENQS</title>
<defs>
<style type="text/css">
<![CDATA[
polyline {stroke-linecap:round; stroke-linejoin:round}
polygon {stroke-linecap:round; stroke-linejoin:round}
path {stroke-linecap:round; stroke-linejoin:round}
circle {stroke-linecap:round; stroke-linejoin:round}
]]>
</style>
</defs>
<polyline points="45.46 55.23 68.80 55.23 68.80 41.00 138.34 41.00 138.34 55.23 138.34 55.23 138.34 55.23 138.34 69.46 68.80 69.46 68.80 55.23" fill="none" stroke="rgb(0,0,255)" stroke-width="2" />
<path fill="rgb(0,0,0)" stroke="rgb(0,0,0)" stroke-width="0" d=" M 41.83 94.19 L 41.85 75.64 45.43 75.64 48.85 88.72 49.03 89.41 49.19 90.03 49.33 90.58 49.45 91.05 49.55 91.45 49.65 91.01 49.78 90.49 49.93 89.90 50.10 89.23 50.29 88.49 53.67 75.64 57.27 75.64 57.25 94.19 55.16 94.19 55.18 77.96 50.96 94.19 48.13 94.19 43.94 77.96 43.92 94.19 Z M 60.40 85.16 L 60.49 83.40 60.76 81.80 61.20 80.36 61.83 79.08 62.63 77.95 63.58 77.02 64.63 76.29 65.78 75.77 67.03 75.45 68.39 75.35 69.30 75.40 70.16 75.54 71.00 75.79 71.79 76.13 72.55 76.57 73.26 77.10 73.89 77.70 74.46 78.39 74.95 79.15 75.38 79.98 75.73 80.88 76.00 81.83 76.19 82.82 76.31 83.86 76.34 84.95 76.30 86.05 76.18 87.10 75.97 88.11 75.68 89.07 75.31 89.98 74.87 90.83 74.36 91.58 73.78 92.26 73.13 92.84 72.41 93.34 71.65 93.75 70.86 94.07 70.05 94.30 69.22 94.44 68.36 94.48 67.44 94.43 66.56 94.28 65.72 94.03 64.92 93.68 64.16 93.22 63.45 92.68 62.82 92.07 62.26 91.38 61.77 90.61 61.35 89.78 61.01 88.90 60.74 87.99 60.55 87.07 60.44 86.13 60.40 85.16 Z M 62.49 85.18 L 62.55 86.43 62.75 87.56 63.09 88.58 63.55 89.50 64.16 90.30 64.86 90.97 65.63 91.49 66.47 91.87 67.37 92.09 68.35 92.16 69.34 92.09 70.26 91.86 71.11 91.49 71.88 90.96 72.59 90.28 73.18 89.46 73.65 88.52 73.98 87.45 74.18 86.25 74.25 84.93 74.22 84.08 74.14 83.26 74.00 82.50 73.80 81.78 73.55 81.10 73.23 80.48 72.87 79.91 72.46 79.40 71.99 78.96 71.47 78.57 70.91 78.24 70.32 77.99 69.71 77.81 69.07 77.70 68.40 77.67 67.46 77.74 66.58 77.95 65.74 78.29 64.96 78.78 64.24 79.40 63.61 80.19 63.12 81.16 62.77 82.31 62.56 83.66 62.49 85.18 Z M 79.21 94.19 L 79.23 75.64 85.43 75.64 86.05 75.65 86.61 75.67 87.11 75.70 87.55 75.75 87.93 75.82 88.40 75.92 88.83 76.06 89.24 76.24 89.62 76.44 89.96 76.68 90.27 76.96 90.56 77.28 90.83 77.64 91.06 78.04 91.27 78.48 91.45 78.95 91.59 79.43 91.69 79.94 91.75 80.46 91.77 81.01 91.72 81.93 91.55 82.79 91.28 83.59 90.91 84.33 90.42 85.02 89.80 85.61 89.00 86.07 88.03 86.39 86.88 86.59 85.56 86.66 81.31 86.66 81.30 94.19 Z M 81.31 84.34 L 85.68 84.34 86.50 84.30 87.22 84.20 87.83 84.03 88.35 83.79 88.77 83.48 89.09 83.12 89.35 82.69 89.53 82.21 89.64 81.68 89.68 81.09 89.66 80.65 89.59 80.24 89.49 79.86 89.34 79.50 89.14 79.17 88.92 78.87 88.66 78.62 88.38 78.41 88.07 78.24 87.73 78.12 87.47 78.06 87.13 78.02 86.71 77.98 86.21 77.96 85.64 77.96 81.32 77.96 Z M 94.63 94.19 L 94.65 75.64 106.67 75.64 106.67 77.96 96.74 77.96 96.73 83.47 106.14 83.47 106.14 85.79 96.73 85.79 96.73 91.87 106.92 91.87 106.92 94.19 Z M 110.06 94.19 L 110.07 75.64 112.31 75.64 121.04 90.34 121.05 75.64 123.14 75.64 123.13 94.19 120.89 94.19 112.16 79.49 112.15 94.19 Z M 139.36 91.97 L 139.91 92.47 140.44 92.91 140.96 93.30 141.46 93.63 141.95 93.90 141.38 95.60 140.69 95.30 140.00 94.92 139.31 94.49 138.63 93.99 137.94 93.43 137.19 93.81 136.41 94.11 135.60 94.32 134.75 94.44 133.88 94.48 133.00 94.44 132.15 94.29 131.33 94.05 130.55 93.71 129.80 93.27 129.11 92.75 128.48 92.15 127.91 91.46 127.42 90.70 126.99 89.87 126.64 88.97 126.36 88.02 126.17 87.03 126.05 86.00 126.01 84.92 126.05 83.85 126.17 82.81 126.37 81.81 126.64 80.86 127.00 79.94 127.43 79.08 127.92 78.32 128.48 77.63 129.11 77.03 129.80 76.52 130.55 76.10 131.33 75.77 132.14 75.54 132.99 75.40 133.87 75.35 134.76 75.40 135.62 75.54 136.44 75.78 137.22 76.12 137.97 76.55 138.66 77.07 139.29 77.66 139.84 78.34 140.33 79.08 140.74 79.91 141.09 80.80 141.35 81.73 141.54 82.70 141.66 83.72 141.69 84.78 141.67 85.67 141.60 86.52 141.48 87.33 141.32 88.10 141.11 88.84 140.86 89.54 140.55 90.20 140.20 90.83 139.80 91.42 139.36 91.97 Z M 134.46 88.88 L 135.20 89.14 135.89 89.45 136.53 89.80 137.11 90.20 137.63 90.65 138.34 89.81 138.89 88.81 139.29 87.66 139.52 86.36 139.60 84.90 139.58 84.05 139.49 83.25 139.36 82.49 139.16 81.77 138.91 81.10 138.61 80.47 138.25 79.91 137.85 79.40 137.39 78.96 136.88 78.57 136.34 78.24 135.76 77.99 135.16 77.81 134.54 77.70 133.88 77.67 132.92 77.74 132.03 77.96 131.20 78.32 130.44 78.83 129.75 79.49 129.16 80.29 128.70 81.23 128.37 82.31 128.17 83.54 128.10 84.92 128.16 86.25 128.36 87.46 128.68 88.53 129.13 89.48 129.72 90.29 130.40 90.97 131.16 91.49 131.99 91.86 132.89 92.09 133.86 92.16 134.34 92.15 134.80 92.09 135.25 91.99 135.69 91.86 136.12 91.69 135.70 91.42 135.27 91.18 134.83 90.97 134.38 90.80 133.92 90.66 Z M 144.04 87.82 L 146.13 87.82 146.21 88.36 146.31 88.87 146.44 89.33 146.61 89.75 146.81 90.14 147.04 90.49 147.33 90.81 147.65 91.10 148.03 91.37 148.45 91.60 148.91 91.81 149.39 91.96 149.89 92.07 150.41 92.14 150.96 92.16 151.44 92.15 151.90 92.10 152.34 92.01 152.75 91.89 153.14 91.74 153.50 91.56 153.83 91.35 154.11 91.12 154.35 90.86 154.56 90.58 154.72 90.28 154.85 89.97 154.95 89.66 155.00 89.34 155.02 89.02 155.01 88.70 154.97 88.39 154.90 88.10 154.80 87.83 154.68 87.57 154.51 87.33 154.28 87.11 154.00 86.90 153.66 86.70 153.26 86.52 152.92 86.39 152.44 86.24 151.83 86.06 151.09 85.86 150.21 85.63 149.33 85.40 148.56 85.16 147.90 84.93 147.36 84.71 146.93 84.49 146.48 84.20 146.08 83.88 145.72 83.53 145.42 83.16 145.16 82.76 144.95 82.34 144.78 81.90 144.67 81.44 144.60 80.96 144.57 80.46 144.60 79.90 144.69 79.36 144.84 78.84 145.04 78.33 145.30 77.83 145.62 77.37 145.99 76.95 146.41 76.58 146.89 76.26 147.42 75.98 147.99 75.75 148.58 75.58 149.20 75.45 149.85 75.37 150.52 75.35 151.25 75.38 151.95 75.45 152.61 75.59 153.24 75.77 153.83 76.01 154.38 76.30 154.87 76.64 155.31 77.03 155.70 77.47 156.03 77.95 156.31 78.48 156.53 79.03 156.70 79.61 156.81 80.22 156.86 80.86 154.77 80.86 154.66 80.26 154.49 79.72 154.26 79.24 153.96 78.83 153.59 78.47 153.14 78.18 152.62 77.96 152.03 77.80 151.35 77.70 150.60 77.67 149.82 77.70 149.14 77.80 148.54 77.96 148.03 78.18 147.61 78.47 147.27 78.80 147.00 79.16 146.82 79.54 146.70 79.95 146.66 80.39 146.69 80.77 146.77 81.12 146.90 81.44 147.09 81.73 147.33 82.00 147.68 82.25 148.19 82.51 148.87 82.77 149.72 83.03 150.74 83.29 151.77 83.55 152.66 83.80 153.40 84.03 153.99 84.25 154.44 84.46 154.96 84.77 155.42 85.12 155.83 85.49 156.18 85.90 156.47 86.34 156.70 86.81 156.88 87.30 157.01 87.83 157.09 88.38 157.11 88.96 157.08 89.54 156.99 90.11 156.84 90.67 156.63 91.21 156.36 91.74 156.03 92.23 155.65 92.69 155.22 93.09 154.74 93.45 154.20 93.76 153.63 94.02 153.02 94.22 152.39 94.37 151.73 94.45 151.04 94.48 150.18 94.45 149.37 94.36 148.62 94.20 147.93 93.98 147.30 93.70 146.73 93.36 146.20 92.95 145.73 92.49 145.31 91.95 144.94 91.36 144.63 90.71 144.39 90.04 144.21 89.33 144.09 88.59 144.04 87.82 Z" />
<path fill="rgb(255,0,0)" stroke="rgb(255,0,0)" stroke-width="2" d=" M 42 53 C 42 52 44 52 44 52 L 47 52 L 47 52 C 49 52 49 53 49 53 L 49 57 L 49 57 C 49 59 47 59 47 59 L 44 59 L 44 59 C 42 59 42 57 42 57 L 42 53 Z" />
<polyline points="57.34 50.69 52.64 59.72" fill="none" stroke="rgb(0,0,255)" stroke-width="2" />
<path fill="rgb(0,0,255)" stroke="rgb(0,0,255)" stroke-width="0" d=" M 100.94 61.07 L 101.42 61.51 101.88 61.89 102.33 62.22 102.76 62.51 103.18 62.75 102.69 64.21 102.10 63.95 101.50 63.63 100.91 63.25 100.31 62.82 99.72 62.34 99.07 62.67 98.39 62.92 97.69 63.10 96.96 63.21 96.21 63.25 95.44 63.21 94.71 63.08 94.01 62.87 93.33 62.58 92.69 62.20 92.08 61.75 91.54 61.23 91.05 60.64 90.63 59.98 90.26 59.26 89.95 58.48 89.71 57.66 89.54 56.81 89.44 55.91 89.41 54.98 89.44 54.05 89.55 53.16 89.72 52.30 89.96 51.47 90.26 50.68 90.63 49.94 91.06 49.27 91.54 48.68 92.09 48.17 92.69 47.72 93.33 47.36 94.00 47.08 94.71 46.87 95.44 46.75 96.20 46.71 96.97 46.75 97.71 46.88 98.42 47.08 99.10 47.37 99.74 47.75 100.34 48.20 100.88 48.71 101.36 49.29 101.78 49.94 102.14 50.65 102.44 51.42 102.67 52.22 102.83 53.07 102.93 53.95 102.96 54.87 102.94 55.63 102.88 56.36 102.78 57.06 102.64 57.73 102.46 58.37 102.24 58.97 101.97 59.55 101.67 60.09 101.33 60.60 100.94 61.07 Z M 96.71 58.41 L 97.35 58.63 97.95 58.90 98.50 59.20 99.00 59.55 99.45 59.93 100.06 59.20 100.54 58.34 100.88 57.35 101.09 56.23 101.15 54.97 101.13 54.23 101.06 53.54 100.94 52.88 100.77 52.26 100.56 51.68 100.30 51.14 99.99 50.65 99.64 50.21 99.24 49.83 98.80 49.49 98.33 49.21 97.84 48.99 97.32 48.84 96.78 48.75 96.21 48.71 95.38 48.78 94.61 48.97 93.89 49.28 93.24 49.72 92.64 50.29 92.13 50.98 91.73 51.79 91.44 52.73 91.27 53.79 91.21 54.98 91.27 56.13 91.44 57.17 91.72 58.10 92.11 58.92 92.61 59.62 93.20 60.21 93.86 60.66 94.57 60.98 95.35 61.18 96.20 61.24 96.60 61.23 97.00 61.18 97.39 61.09 97.77 60.98 98.14 60.83 97.78 60.60 97.41 60.39 97.03 60.21 96.64 60.06 96.24 59.94 Z M 104.99 57.48 L 106.80 57.48 106.86 57.96 106.95 58.39 107.07 58.79 107.21 59.16 107.38 59.49 107.58 59.79 107.83 60.07 108.11 60.32 108.44 60.55 108.80 60.76 109.20 60.93 109.61 61.07 110.04 61.17 110.50 61.22 110.97 61.24 111.39 61.23 111.78 61.18 112.16 61.11 112.52 61.01 112.86 60.88 113.17 60.72 113.45 60.54 113.69 60.34 113.90 60.12 114.08 59.87 114.22 59.61 114.34 59.35 114.42 59.08 114.46 58.80 114.48 58.53 114.47 58.25 114.43 57.98 114.37 57.73 114.29 57.50 114.18 57.27 114.04 57.07 113.84 56.87 113.60 56.69 113.30 56.52 112.95 56.36 112.66 56.26 112.25 56.12 111.72 55.97 111.08 55.80 110.32 55.60 109.56 55.39 108.89 55.19 108.33 54.99 107.86 54.80 107.49 54.61 107.10 54.36 106.75 54.08 106.44 53.78 106.18 53.46 105.96 53.12 105.77 52.76 105.63 52.37 105.53 51.98 105.47 51.56 105.45 51.13 105.48 50.65 105.55 50.18 105.68 49.73 105.85 49.29 106.08 48.86 106.35 48.46 106.67 48.10 107.04 47.77 107.45 47.50 107.91 47.26 108.40 47.06 108.92 46.91 109.45 46.80 110.01 46.73 110.59 46.71 111.22 46.73 111.83 46.80 112.40 46.92 112.94 47.08 113.45 47.28 113.92 47.53 114.35 47.83 114.73 48.16 115.06 48.54 115.35 48.96 115.59 49.42 115.79 49.89 115.93 50.40 116.02 50.92 116.07 51.47 114.26 51.47 114.17 50.95 114.02 50.49 113.82 50.08 113.56 49.72 113.24 49.41 112.86 49.16 112.41 48.97 111.89 48.83 111.31 48.74 110.66 48.71 109.99 48.74 109.39 48.83 108.88 48.96 108.44 49.16 108.07 49.40 107.78 49.69 107.55 50.00 107.39 50.33 107.29 50.69 107.26 51.07 107.28 51.39 107.35 51.70 107.46 51.97 107.63 52.23 107.83 52.46 108.13 52.68 108.58 52.90 109.17 53.12 109.90 53.35 110.78 53.58 111.67 53.80 112.44 54.01 113.08 54.21 113.59 54.40 113.98 54.58 114.43 54.85 114.83 55.15 115.18 55.48 115.48 55.83 115.73 56.21 115.93 56.61 116.09 57.04 116.20 57.50 116.27 57.97 116.29 58.47 116.26 58.98 116.18 59.47 116.05 59.95 115.87 60.42 115.64 60.87 115.36 61.30 115.03 61.69 114.65 62.04 114.24 62.35 113.77 62.62 113.27 62.85 112.75 63.02 112.20 63.15 111.63 63.22 111.04 63.25 110.29 63.22 109.60 63.14 108.95 63.00 108.36 62.82 107.81 62.57 107.31 62.28 106.86 61.93 106.45 61.52 106.09 61.06 105.77 60.55 105.50 59.99 105.29 59.41 105.13 58.79 105.04 58.15 104.99 57.48 Z" />
</svg>
