<?xml version="1.0" encoding="utf-8"?>
<!-- Created with "sPlan" (http://www.abacom-online.de) -->
<svg version="1.1" baseProfile="full"
xmlns="http://www.w3.org/2000/svg"
width="20mm" height="16mm"
viewBox="0 0 205 162">
<title>MSTEPQS</title>
<defs>
<style type="text/css">
<![CDATA[
polyline {stroke-linecap:round; stroke-linejoin:round}
polygon {stroke-linecap:round; stroke-linejoin:round}
path {stroke-linecap:round; stroke-linejoin:round}
circle {stroke-linecap:round; stroke-linejoin:round}
]]>
</style>
</defs>
<polyline points="160.78 66.31 149.11 66.31 137.44 66.31 137.44 56.15 119.71 56.34 104.59 56.34 104.59 41.00 67.90 41.00 67.90 66.31 44.56 66.31 67.90 66.31 67.90 90.54 104.45 90.54 104.45 76.25 137.44 76.25 137.44 66.31" fill="none" stroke="rgb(0,0,255)" stroke-width="2" />
<path fill="rgb(0,0,0)" stroke="rgb(0,0,0)" stroke-width="0" d=" M 46.97 115.80 L 46.99 96.82 50.65 96.82 54.15 110.20 54.33 110.91 54.50 111.54 54.64 112.10 54.76 112.58 54.86 112.99 54.97 112.54 55.10 112.01 55.25 111.41 55.43 110.73 55.62 109.97 59.08 96.82 62.76 96.82 62.74 115.80 60.60 115.80 60.62 99.20 56.30 115.80 53.41 115.80 49.12 99.20 49.11 115.80 Z M 65.95 109.28 L 68.09 109.28 68.16 109.83 68.27 110.35 68.41 110.82 68.58 111.26 68.78 111.65 69.02 112.01 69.31 112.33 69.64 112.64 70.03 112.91 70.46 113.15 70.93 113.36 71.42 113.52 71.93 113.63 72.46 113.70 73.02 113.72 73.52 113.70 73.99 113.65 74.44 113.57 74.86 113.44 75.26 113.29 75.63 113.10 75.96 112.89 76.25 112.65 76.49 112.39 76.70 112.10 76.87 111.79 77.01 111.48 77.10 111.16 77.16 110.84 77.18 110.51 77.16 110.18 77.12 109.86 77.05 109.57 76.95 109.29 76.83 109.03 76.65 108.78 76.42 108.55 76.13 108.34 75.78 108.14 75.37 107.95 75.02 107.82 74.54 107.67 73.92 107.48 73.16 107.28 72.26 107.04 71.35 106.80 70.57 106.56 69.90 106.33 69.34 106.10 68.91 105.88 68.45 105.58 68.03 105.25 67.67 104.90 67.36 104.52 67.09 104.11 66.88 103.68 66.71 103.23 66.59 102.76 66.52 102.26 66.49 101.75 66.53 101.19 66.62 100.63 66.76 100.10 66.97 99.58 67.24 99.07 67.56 98.59 67.94 98.17 68.38 97.79 68.86 97.46 69.41 97.17 69.99 96.94 70.60 96.76 71.23 96.63 71.89 96.55 72.58 96.53 73.32 96.55 74.04 96.64 74.71 96.77 75.35 96.96 75.96 97.20 76.52 97.50 77.02 97.85 77.47 98.24 77.87 98.69 78.21 99.19 78.50 99.73 78.72 100.30 78.89 100.89 79.00 101.51 79.06 102.16 76.92 102.16 76.81 101.55 76.64 101.00 76.40 100.51 76.09 100.08 75.71 99.72 75.26 99.43 74.73 99.20 74.12 99.03 73.43 98.93 72.66 98.90 71.86 98.93 71.16 99.03 70.55 99.19 70.03 99.42 69.60 99.71 69.25 100.05 68.98 100.42 68.79 100.81 68.67 101.24 68.63 101.68 68.66 102.07 68.74 102.43 68.88 102.76 69.07 103.06 69.31 103.33 69.67 103.59 70.19 103.85 70.89 104.12 71.76 104.38 72.80 104.65 73.86 104.92 74.76 105.17 75.52 105.41 76.13 105.63 76.59 105.84 77.12 106.16 77.59 106.51 78.00 106.90 78.36 107.32 78.65 107.77 78.89 108.24 79.08 108.75 79.21 109.29 79.29 109.85 79.32 110.45 79.29 111.04 79.19 111.62 79.04 112.19 78.82 112.74 78.55 113.28 78.21 113.79 77.83 114.25 77.38 114.67 76.89 115.04 76.34 115.35 75.75 115.62 75.13 115.83 74.49 115.98 73.81 116.06 73.11 116.09 72.22 116.06 71.40 115.97 70.64 115.81 69.93 115.58 69.29 115.30 68.70 114.95 68.16 114.53 67.68 114.05 67.25 113.51 66.87 112.90 66.56 112.24 66.31 111.55 66.12 110.82 66.00 110.07 65.95 109.28 Z M 86.80 115.80 L 86.81 99.20 81.20 99.20 81.20 96.82 94.56 96.82 94.56 99.20 88.95 99.20 88.93 115.80 Z M 96.95 115.80 L 96.97 96.82 109.27 96.82 109.27 99.20 99.11 99.20 99.10 104.83 108.72 104.83 108.72 107.20 99.10 107.20 99.10 113.43 109.52 113.43 109.52 115.80 Z M 112.72 115.80 L 112.74 96.82 119.08 96.82 119.72 96.83 120.29 96.85 120.80 96.89 121.25 96.94 121.64 97.00 122.12 97.11 122.56 97.26 122.98 97.44 123.36 97.65 123.71 97.89 124.04 98.17 124.33 98.50 124.60 98.87 124.84 99.28 125.06 99.73 125.24 100.21 125.38 100.71 125.49 101.22 125.55 101.76 125.57 102.31 125.51 103.25 125.35 104.13 125.07 104.95 124.68 105.71 124.19 106.41 123.55 107.02 122.73 107.49 121.74 107.82 120.57 108.02 119.22 108.09 114.87 108.09 114.86 115.80 Z M 114.87 105.72 L 119.34 105.72 120.18 105.68 120.91 105.58 121.54 105.40 122.07 105.16 122.50 104.85 122.83 104.47 123.09 104.04 123.28 103.55 123.39 103.00 123.43 102.40 123.41 101.95 123.34 101.53 123.23 101.14 123.08 100.77 122.88 100.43 122.65 100.13 122.39 99.87 122.10 99.65 121.78 99.48 121.44 99.36 121.17 99.30 120.82 99.25 120.39 99.22 119.89 99.20 119.30 99.20 114.88 99.20 Z M 141.35 113.52 L 141.91 114.03 142.46 114.49 142.99 114.88 143.50 115.22 144.00 115.50 143.42 117.24 142.72 116.92 142.01 116.54 141.31 116.10 140.60 115.59 139.90 115.02 139.13 115.41 138.33 115.71 137.50 115.92 136.64 116.05 135.75 116.09 134.84 116.04 133.98 115.90 133.15 115.65 132.35 115.30 131.58 114.85 130.87 114.32 130.22 113.70 129.65 113.01 129.14 112.23 128.71 111.37 128.34 110.45 128.06 109.48 127.86 108.47 127.74 107.42 127.70 106.32 127.74 105.22 127.87 104.16 128.07 103.14 128.35 102.16 128.71 101.22 129.15 100.35 129.66 99.56 130.23 98.86 130.87 98.25 131.58 97.73 132.34 97.30 133.14 96.96 133.97 96.72 134.84 96.58 135.74 96.53 136.65 96.58 137.53 96.72 138.36 96.97 139.16 97.31 139.93 97.75 140.64 98.29 141.28 98.89 141.85 99.58 142.34 100.35 142.77 101.19 143.12 102.10 143.39 103.05 143.59 104.05 143.70 105.09 143.74 106.18 143.72 107.08 143.64 107.95 143.52 108.78 143.36 109.57 143.14 110.32 142.88 111.04 142.57 111.72 142.21 112.36 141.81 112.96 141.35 113.52 Z M 136.34 110.37 L 137.10 110.63 137.80 110.95 138.45 111.31 139.05 111.72 139.59 112.17 140.31 111.31 140.87 110.29 141.28 109.12 141.52 107.79 141.60 106.30 141.57 105.43 141.49 104.60 141.35 103.83 141.15 103.09 140.89 102.40 140.58 101.77 140.22 101.19 139.81 100.67 139.34 100.22 138.82 99.82 138.26 99.49 137.67 99.23 137.06 99.05 136.42 98.94 135.75 98.90 134.77 98.97 133.85 99.20 133.01 99.57 132.23 100.09 131.52 100.76 130.92 101.58 130.45 102.54 130.11 103.65 129.91 104.91 129.84 106.31 129.90 107.68 130.10 108.91 130.43 110.01 130.90 110.97 131.49 111.81 132.19 112.50 132.97 113.03 133.82 113.42 134.74 113.65 135.73 113.72 136.22 113.70 136.69 113.64 137.15 113.55 137.60 113.41 138.04 113.24 137.61 112.96 137.17 112.71 136.72 112.50 136.26 112.33 135.79 112.18 Z M 146.14 109.28 L 148.28 109.28 148.35 109.83 148.46 110.35 148.60 110.82 148.77 111.26 148.97 111.65 149.21 112.01 149.50 112.33 149.83 112.64 150.22 112.91 150.65 113.15 151.12 113.36 151.61 113.52 152.12 113.63 152.65 113.70 153.21 113.72 153.71 113.70 154.18 113.65 154.62 113.57 155.05 113.44 155.45 113.29 155.82 113.10 156.15 112.89 156.43 112.65 156.68 112.39 156.89 112.10 157.06 111.79 157.20 111.48 157.29 111.16 157.35 110.84 157.37 110.51 157.35 110.18 157.31 109.86 157.24 109.57 157.14 109.29 157.01 109.03 156.84 108.78 156.61 108.55 156.32 108.34 155.97 108.14 155.56 107.95 155.21 107.82 154.73 107.67 154.10 107.48 153.35 107.28 152.45 107.04 151.54 106.80 150.76 106.56 150.08 106.33 149.53 106.10 149.10 105.88 148.63 105.58 148.22 105.25 147.86 104.90 147.54 104.52 147.28 104.11 147.07 103.68 146.90 103.23 146.78 102.76 146.71 102.26 146.68 101.75 146.71 101.19 146.80 100.63 146.95 100.10 147.16 99.58 147.43 99.07 147.75 98.59 148.13 98.17 148.56 97.79 149.05 97.46 149.59 97.17 150.18 96.94 150.79 96.76 151.42 96.63 152.08 96.55 152.76 96.53 153.51 96.55 154.23 96.64 154.90 96.77 155.54 96.96 156.15 97.20 156.71 97.50 157.21 97.85 157.66 98.24 158.06 98.69 158.40 99.19 158.69 99.73 158.91 100.30 159.08 100.89 159.19 101.51 159.25 102.16 157.11 102.16 157.00 101.55 156.83 101.00 156.59 100.51 156.28 100.08 155.90 99.72 155.45 99.43 154.92 99.20 154.31 99.03 153.62 98.93 152.85 98.90 152.05 98.93 151.35 99.03 150.74 99.19 150.22 99.42 149.78 99.71 149.44 100.05 149.17 100.42 148.98 100.81 148.86 101.24 148.82 101.68 148.85 102.07 148.93 102.43 149.07 102.76 149.26 103.06 149.50 103.33 149.86 103.59 150.38 103.85 151.08 104.12 151.95 104.38 152.99 104.65 154.05 104.92 154.95 105.17 155.71 105.41 156.32 105.63 156.77 105.84 157.31 106.16 157.78 106.51 158.19 106.90 158.55 107.32 158.84 107.77 159.08 108.24 159.27 108.75 159.40 109.29 159.48 109.85 159.51 110.45 159.47 111.04 159.38 111.62 159.23 112.19 159.01 112.74 158.74 113.28 158.40 113.79 158.01 114.25 157.57 114.67 157.08 115.04 156.53 115.35 155.94 115.62 155.32 115.83 154.67 115.98 154.00 116.06 153.29 116.09 152.41 116.06 151.59 115.97 150.83 115.81 150.12 115.58 149.48 115.30 148.89 114.95 148.35 114.53 147.87 114.05 147.44 113.51 147.06 112.90 146.74 112.24 146.49 111.55 146.31 110.82 146.19 110.07 146.14 109.28 Z" />
<path fill="rgb(255,0,0)" stroke="rgb(255,0,0)" stroke-width="2" d=" M 157 65 C 157 63 159 63 159 63 L 163 63 L 163 63 C 164 63 164 65 164 65 L 164 68 L 164 68 C 164 70 163 70 163 70 L 159 70 L 159 70 C 157 70 157 68 157 68 L 157 65 Z" />
<path fill="rgb(255,0,0)" stroke="rgb(255,0,0)" stroke-width="2" d=" M 41 65 C 41 63 43 63 43 63 L 46 63 L 46 63 C 48 63 48 65 48 65 L 48 68 L 48 68 C 48 70 46 70 46 70 L 43 70 L 43 70 C 41 70 41 68 41 68 L 41 65 Z" />
<polyline points="57.35 61.47 52.65 70.50" fill="none" stroke="rgb(0,0,255)" stroke-width="2" />
<path fill="rgb(0,0,255)" stroke="rgb(0,0,255)" stroke-width="0" d=" M 85.21 72.36 L 85.69 72.80 86.15 73.18 86.60 73.51 87.03 73.80 87.45 74.04 86.96 75.50 86.36 75.24 85.77 74.92 85.17 74.54 84.58 74.11 83.98 73.63 83.34 73.96 82.66 74.21 81.96 74.39 81.23 74.50 80.47 74.54 79.71 74.50 78.98 74.37 78.28 74.16 77.60 73.87 76.95 73.49 76.35 73.04 75.81 72.52 75.32 71.93 74.89 71.27 74.52 70.55 74.22 69.77 73.98 68.95 73.81 68.10 73.71 67.20 73.67 66.27 73.71 65.34 73.81 64.45 73.98 63.59 74.22 62.76 74.53 61.97 74.90 61.23 75.33 60.56 75.81 59.97 76.35 59.46 76.95 59.01 77.60 58.65 78.27 58.37 78.97 58.16 79.71 58.04 80.47 58.00 81.24 58.04 81.98 58.17 82.68 58.37 83.36 58.66 84.01 59.04 84.61 59.49 85.15 60.00 85.63 60.58 86.05 61.23 86.41 61.94 86.70 62.71 86.93 63.51 87.10 64.36 87.20 65.24 87.23 66.16 87.21 66.92 87.15 67.65 87.05 68.35 86.91 69.02 86.73 69.66 86.50 70.26 86.24 70.84 85.94 71.38 85.59 71.89 85.21 72.36 Z M 80.97 69.70 L 81.62 69.92 82.21 70.19 82.76 70.49 83.26 70.84 83.72 71.22 84.33 70.49 84.81 69.63 85.15 68.64 85.35 67.52 85.42 66.26 85.40 65.52 85.33 64.83 85.21 64.17 85.04 63.55 84.82 62.97 84.56 62.43 84.26 61.94 83.90 61.50 83.51 61.12 83.07 60.78 82.60 60.50 82.10 60.28 81.58 60.13 81.04 60.04 80.48 60.00 79.65 60.07 78.87 60.26 78.16 60.57 77.50 61.01 76.91 61.58 76.39 62.27 76.00 63.08 75.71 64.02 75.54 65.08 75.48 66.27 75.54 67.42 75.70 68.46 75.98 69.39 76.37 70.21 76.88 70.91 77.47 71.50 78.12 71.95 78.84 72.27 79.62 72.47 80.46 72.53 80.87 72.52 81.27 72.47 81.66 72.38 82.04 72.27 82.41 72.12 82.05 71.89 81.67 71.68 81.29 71.50 80.90 71.35 80.51 71.23 Z M 89.26 68.77 L 91.07 68.77 91.13 69.25 91.22 69.68 91.33 70.08 91.48 70.45 91.65 70.78 91.85 71.08 92.10 71.36 92.38 71.61 92.70 71.84 93.07 72.05 93.46 72.22 93.88 72.36 94.31 72.46 94.76 72.51 95.23 72.53 95.65 72.52 96.05 72.47 96.43 72.40 96.79 72.30 97.12 72.17 97.44 72.01 97.71 71.83 97.96 71.63 98.17 71.41 98.35 71.16 98.49 70.90 98.60 70.64 98.68 70.37 98.73 70.09 98.75 69.82 98.73 69.54 98.70 69.27 98.64 69.02 98.56 68.79 98.45 68.56 98.30 68.36 98.11 68.16 97.86 67.98 97.57 67.81 97.22 67.65 96.93 67.54 96.52 67.41 95.99 67.26 95.35 67.09 94.59 66.89 93.82 66.68 93.16 66.48 92.59 66.28 92.12 66.09 91.76 65.90 91.37 65.65 91.02 65.37 90.71 65.07 90.44 64.75 90.22 64.41 90.04 64.04 89.90 63.66 89.80 63.27 89.74 62.85 89.72 62.42 89.74 61.94 89.82 61.47 89.95 61.02 90.12 60.58 90.35 60.15 90.62 59.75 90.94 59.38 91.31 59.06 91.72 58.79 92.18 58.55 92.67 58.35 93.18 58.20 93.72 58.09 94.28 58.02 94.86 58.00 95.49 58.02 96.09 58.09 96.66 58.21 97.20 58.37 97.72 58.57 98.19 58.82 98.62 59.11 99.00 59.45 99.33 59.83 99.62 60.25 99.86 60.71 100.05 61.18 100.20 61.69 100.29 62.21 100.33 62.76 98.53 62.76 98.44 62.24 98.29 61.78 98.09 61.37 97.82 61.01 97.51 60.70 97.12 60.45 96.68 60.26 96.16 60.12 95.58 60.03 94.93 60.00 94.26 60.03 93.66 60.11 93.14 60.25 92.70 60.45 92.34 60.69 92.04 60.98 91.82 61.29 91.65 61.62 91.56 61.98 91.52 62.36 91.55 62.68 91.62 62.99 91.73 63.26 91.89 63.52 92.10 63.75 92.40 63.97 92.84 64.19 93.43 64.41 94.17 64.64 95.05 64.87 95.94 65.09 96.70 65.30 97.34 65.50 97.86 65.69 98.25 65.87 98.69 66.14 99.09 66.44 99.44 66.77 99.74 67.12 99.99 67.50 100.20 67.90 100.35 68.33 100.47 68.79 100.53 69.26 100.55 69.76 100.53 70.27 100.45 70.76 100.32 71.24 100.14 71.71 99.90 72.16 99.62 72.59 99.29 72.98 98.92 73.33 98.50 73.64 98.04 73.91 97.54 74.14 97.02 74.31 96.47 74.44 95.90 74.51 95.30 74.54 94.56 74.51 93.86 74.43 93.22 74.29 92.62 74.11 92.08 73.86 91.58 73.57 91.13 73.22 90.72 72.81 90.35 72.35 90.04 71.84 89.77 71.28 89.56 70.70 89.40 70.08 89.30 69.44 89.26 68.77 Z" />
</svg>
