<?xml version="1.0" encoding="utf-8"?>
<!-- Created with "sPlan" (http://www.abacom-online.de) -->
<svg version="1.1" baseProfile="full"
xmlns="http://www.w3.org/2000/svg"
width="20mm" height="14mm"
viewBox="0 0 203 143">
<title>MSUB</title>
<defs>
<style type="text/css">
<![CDATA[
polyline {stroke-linecap:round; stroke-linejoin:round}
polygon {stroke-linecap:round; stroke-linejoin:round}
path {stroke-linecap:round; stroke-linejoin:round}
circle {stroke-linecap:round; stroke-linejoin:round}
]]>
</style>
</defs>
<path fill="rgb(0,0,255)" stroke="rgb(0,0,255)" stroke-width="0" d=" M 58.68 82.86 L 58.70 58.11 63.48 58.11 68.04 75.55 68.28 76.48 68.50 77.31 68.68 78.03 68.84 78.66 68.97 79.20 69.11 78.61 69.28 77.92 69.48 77.13 69.71 76.24 69.97 75.25 74.47 58.11 79.27 58.11 79.25 82.86 76.46 82.86 76.48 61.21 70.85 82.86 67.08 82.86 61.49 61.21 61.47 82.86 Z M 83.44 74.35 L 86.22 74.35 86.32 75.08 86.46 75.75 86.64 76.37 86.86 76.94 87.12 77.45 87.44 77.91 87.81 78.34 88.25 78.73 88.75 79.09 89.32 79.41 89.92 79.67 90.56 79.88 91.23 80.03 91.93 80.12 92.66 80.15 93.30 80.13 93.92 80.06 94.50 79.95 95.05 79.79 95.57 79.59 96.06 79.34 96.48 79.07 96.86 78.76 97.19 78.41 97.46 78.03 97.68 77.63 97.86 77.23 97.98 76.81 98.05 76.39 98.08 75.96 98.06 75.53 98.00 75.12 97.91 74.73 97.78 74.37 97.62 74.03 97.39 73.71 97.09 73.41 96.72 73.13 96.26 72.87 95.72 72.62 95.27 72.45 94.64 72.25 93.82 72.02 92.83 71.75 91.66 71.44 90.48 71.13 89.45 70.81 88.58 70.51 87.86 70.21 87.29 69.92 86.69 69.53 86.15 69.10 85.68 68.64 85.27 68.15 84.92 67.62 84.64 67.05 84.42 66.47 84.27 65.85 84.18 65.21 84.14 64.54 84.18 63.80 84.30 63.08 84.50 62.38 84.77 61.70 85.12 61.04 85.54 60.42 86.03 59.86 86.60 59.37 87.23 58.94 87.94 58.57 88.70 58.27 89.49 58.03 90.32 57.86 91.18 57.76 92.08 57.73 93.05 57.76 93.98 57.87 94.86 58.04 95.70 58.29 96.49 58.61 97.22 58.99 97.88 59.45 98.46 59.96 98.98 60.55 99.43 61.20 99.80 61.90 100.10 62.64 100.32 63.41 100.46 64.22 100.53 65.07 97.74 65.07 97.60 64.27 97.38 63.55 97.06 62.92 96.66 62.37 96.16 61.89 95.57 61.51 94.88 61.21 94.09 60.99 93.19 60.86 92.18 60.82 91.15 60.86 90.23 60.99 89.43 61.20 88.75 61.50 88.19 61.88 87.74 62.33 87.38 62.80 87.13 63.32 86.98 63.87 86.93 64.45 86.97 64.95 87.07 65.42 87.25 65.85 87.50 66.24 87.82 66.59 88.28 66.93 88.97 67.28 89.88 67.62 91.01 67.97 92.37 68.32 93.75 68.67 94.93 68.99 95.91 69.30 96.71 69.60 97.30 69.87 98.00 70.29 98.61 70.75 99.15 71.25 99.62 71.80 100.00 72.38 100.32 73.01 100.56 73.67 100.73 74.37 100.83 75.11 100.87 75.88 100.83 76.66 100.71 77.41 100.51 78.15 100.23 78.88 99.86 79.58 99.43 80.24 98.92 80.85 98.35 81.39 97.70 81.86 96.99 82.28 96.22 82.63 95.41 82.90 94.57 83.09 93.69 83.21 92.77 83.24 91.62 83.20 90.54 83.08 89.55 82.87 88.63 82.58 87.79 82.21 87.02 81.75 86.32 81.21 85.69 80.58 85.13 79.87 84.64 79.08 84.22 78.22 83.90 77.32 83.66 76.37 83.50 75.38 83.44 74.35 Z M 119.71 58.11 L 122.50 58.11 122.49 72.39 122.45 73.82 122.36 75.12 122.21 76.31 121.99 77.37 121.72 78.31 121.37 79.15 120.92 79.93 120.37 80.64 119.73 81.29 118.99 81.87 118.15 82.36 117.21 82.75 116.18 83.02 115.05 83.19 113.81 83.24 112.61 83.20 111.50 83.05 110.48 82.81 109.56 82.48 108.72 82.05 107.97 81.53 107.32 80.92 106.75 80.23 106.28 79.45 105.89 78.58 105.59 77.61 105.35 76.50 105.19 75.26 105.09 73.89 105.06 72.39 105.07 58.11 107.86 58.11 107.84 72.28 107.86 73.49 107.93 74.57 108.04 75.51 108.19 76.32 108.39 76.99 108.64 77.57 108.96 78.09 109.33 78.56 109.77 78.97 110.28 79.33 110.84 79.63 111.44 79.86 112.10 80.02 112.80 80.12 113.55 80.15 114.80 80.09 115.90 79.89 116.84 79.57 117.64 79.11 118.28 78.53 118.79 77.76 119.18 76.75 119.47 75.50 119.64 74.01 119.70 72.28 Z M 127.36 82.86 L 127.38 58.11 135.89 58.11 136.89 58.14 137.81 58.23 138.64 58.37 139.39 58.58 140.06 58.84 140.66 59.16 141.21 59.55 141.70 60.00 142.14 60.51 142.52 61.08 142.84 61.69 143.09 62.31 143.27 62.94 143.38 63.59 143.41 64.24 143.38 64.85 143.29 65.44 143.14 66.02 142.93 66.59 142.66 67.14 142.33 67.66 141.94 68.14 141.48 68.57 140.97 68.97 140.39 69.33 141.07 69.63 141.69 70.02 142.24 70.48 142.72 71.02 143.14 71.63 143.49 72.31 143.75 73.03 143.94 73.80 144.06 74.62 144.10 75.48 144.07 76.19 143.99 76.87 143.86 77.54 143.67 78.18 143.44 78.81 143.16 79.39 142.86 79.92 142.53 80.40 142.18 80.81 141.81 81.18 141.40 81.49 140.95 81.78 140.47 82.03 139.94 82.25 139.38 82.43 138.77 82.59 138.11 82.70 137.39 82.79 136.63 82.84 135.80 82.86 Z M 130.16 68.17 L 135.25 68.17 136.04 68.15 136.73 68.12 137.32 68.07 137.82 68.00 138.23 67.90 138.68 67.74 139.09 67.55 139.44 67.32 139.75 67.06 140.02 66.75 140.23 66.42 140.40 66.05 140.52 65.64 140.60 65.21 140.62 64.74 140.60 64.29 140.53 63.87 140.42 63.46 140.26 63.08 140.06 62.72 139.82 62.40 139.54 62.11 139.22 61.87 138.86 61.68 138.46 61.53 137.98 61.41 137.38 61.32 136.67 61.26 135.83 61.22 134.87 61.21 130.17 61.21 Z M 130.15 79.76 L 135.87 79.76 136.42 79.76 136.91 79.75 137.32 79.72 137.67 79.69 137.94 79.64 138.34 79.55 138.72 79.44 139.07 79.31 139.40 79.15 139.69 78.97 139.96 78.76 140.22 78.52 140.45 78.25 140.66 77.94 140.85 77.60 141.02 77.22 141.14 76.83 141.23 76.41 141.29 75.97 141.31 75.51 141.29 74.97 141.22 74.46 141.12 73.98 140.97 73.53 140.78 73.11 140.54 72.72 140.25 72.39 139.90 72.10 139.50 71.86 139.05 71.67 138.53 71.52 137.92 71.41 137.23 71.32 136.46 71.27 135.60 71.26 130.16 71.26 Z" />
<path fill="none" stroke="rgb(0,0,255)" stroke-width="2" d=" M 41 41 L 162 41 162 102 41 102 41 41 Z" />
</svg>
