<?xml version="1.0" encoding="utf-8"?>
<!-- Created with "sPlan" (http://www.abacom-online.de) -->
<svg version="1.1" baseProfile="full"
xmlns="http://www.w3.org/2000/svg"
width="20mm" height="14mm"
viewBox="0 0 203 143">
<title>MSUBQS</title>
<defs>
<style type="text/css">
<![CDATA[
polyline {stroke-linecap:round; stroke-linejoin:round}
polygon {stroke-linecap:round; stroke-linejoin:round}
path {stroke-linecap:round; stroke-linejoin:round}
circle {stroke-linecap:round; stroke-linejoin:round}
]]>
</style>
</defs>
<path fill="rgb(0,0,255)" stroke="rgb(0,0,255)" stroke-width="0" d=" M 47.17 80.35 L 47.18 60.81 50.96 60.81 54.56 74.58 54.75 75.31 54.92 75.97 55.06 76.54 55.19 77.04 55.29 77.46 55.40 77.00 55.54 76.45 55.69 75.83 55.87 75.13 56.08 74.34 59.63 60.81 63.42 60.81 63.41 80.35 61.20 80.35 61.22 63.25 56.78 80.35 53.80 80.35 49.38 63.25 49.37 80.35 Z M 66.71 73.63 L 68.92 73.63 68.99 74.21 69.10 74.74 69.24 75.23 69.42 75.67 69.63 76.08 69.87 76.45 70.17 76.78 70.52 77.09 70.91 77.37 71.36 77.62 71.84 77.84 72.34 78.00 72.87 78.12 73.42 78.19 74.00 78.21 74.50 78.19 74.99 78.14 75.45 78.05 75.89 77.93 76.30 77.77 76.68 77.57 77.02 77.36 77.31 77.11 77.57 76.84 77.79 76.54 77.96 76.23 78.10 75.90 78.20 75.58 78.26 75.24 78.27 74.90 78.26 74.56 78.22 74.24 78.14 73.93 78.04 73.65 77.91 73.38 77.74 73.13 77.50 72.89 77.20 72.67 76.84 72.46 76.42 72.27 76.06 72.14 75.56 71.98 74.92 71.79 74.13 71.58 73.21 71.34 72.28 71.09 71.47 70.84 70.78 70.60 70.21 70.36 69.76 70.13 69.28 69.82 68.86 69.49 68.48 69.12 68.16 68.73 67.89 68.31 67.67 67.87 67.49 67.41 67.37 66.92 67.30 66.41 67.27 65.89 67.30 65.30 67.40 64.73 67.55 64.18 67.77 63.64 68.04 63.12 68.37 62.63 68.76 62.19 69.21 61.80 69.71 61.46 70.27 61.17 70.87 60.93 71.50 60.74 72.15 60.61 72.83 60.53 73.53 60.51 74.31 60.53 75.04 60.62 75.74 60.76 76.40 60.95 77.02 61.20 77.59 61.51 78.11 61.86 78.58 62.27 78.99 62.73 79.34 63.25 79.63 63.80 79.87 64.39 80.04 65.00 80.16 65.64 80.21 66.31 78.01 66.31 77.90 65.67 77.72 65.11 77.47 64.61 77.15 64.17 76.76 63.80 76.30 63.49 75.75 63.25 75.12 63.08 74.41 62.98 73.62 62.95 72.80 62.98 72.08 63.08 71.45 63.25 70.91 63.49 70.47 63.79 70.11 64.14 69.83 64.51 69.63 64.92 69.51 65.35 69.47 65.81 69.50 66.21 69.59 66.58 69.73 66.92 69.92 67.23 70.18 67.51 70.54 67.78 71.08 68.05 71.80 68.32 72.70 68.60 73.77 68.87 74.85 69.14 75.79 69.40 76.57 69.65 77.19 69.88 77.66 70.10 78.21 70.43 78.70 70.79 79.12 71.19 79.49 71.62 79.80 72.08 80.04 72.57 80.23 73.09 80.37 73.65 80.45 74.23 80.48 74.84 80.45 75.45 80.35 76.05 80.19 76.64 79.97 77.21 79.69 77.76 79.34 78.29 78.94 78.76 78.49 79.19 77.98 79.57 77.41 79.89 76.80 80.17 76.17 80.38 75.50 80.53 74.81 80.62 74.08 80.65 73.17 80.62 72.32 80.52 71.54 80.36 70.81 80.13 70.15 79.83 69.54 79.47 68.99 79.05 68.49 78.55 68.05 77.99 67.66 77.36 67.34 76.69 67.08 75.97 66.89 75.23 66.77 74.45 66.71 73.63 Z M 95.35 60.81 L 97.56 60.81 97.55 72.08 97.52 73.21 97.45 74.24 97.33 75.18 97.16 76.02 96.94 76.76 96.67 77.42 96.31 78.04 95.88 78.60 95.37 79.11 94.79 79.57 94.12 79.96 93.39 80.26 92.57 80.48 91.67 80.61 90.70 80.65 89.75 80.62 88.88 80.50 88.07 80.31 87.34 80.05 86.68 79.71 86.09 79.30 85.57 78.82 85.12 78.27 84.75 77.66 84.45 76.97 84.21 76.21 84.02 75.33 83.89 74.35 83.81 73.27 83.78 72.08 83.79 60.81 86.00 60.81 85.99 72.00 86.00 72.95 86.05 73.81 86.14 74.55 86.26 75.19 86.42 75.72 86.62 76.18 86.86 76.59 87.16 76.96 87.51 77.28 87.91 77.56 88.35 77.80 88.83 77.98 89.35 78.11 89.90 78.19 90.49 78.21 91.48 78.16 92.35 78.01 93.09 77.75 93.72 77.39 94.23 76.93 94.63 76.32 94.94 75.52 95.16 74.54 95.30 73.36 95.35 72.00 Z M 101.39 80.35 L 101.41 60.81 108.13 60.81 108.92 60.83 109.64 60.90 110.30 61.02 110.90 61.18 111.43 61.39 111.90 61.64 112.33 61.94 112.72 62.30 113.07 62.70 113.37 63.15 113.62 63.63 113.82 64.13 113.96 64.63 114.04 65.13 114.07 65.65 114.04 66.13 113.97 66.60 113.86 67.06 113.69 67.50 113.48 67.94 113.22 68.35 112.91 68.73 112.55 69.07 112.14 69.38 111.69 69.66 112.22 69.91 112.71 70.21 113.14 70.58 113.53 71.00 113.86 71.49 114.13 72.02 114.34 72.59 114.49 73.20 114.58 73.84 114.61 74.53 114.59 75.08 114.53 75.62 114.42 76.15 114.28 76.66 114.09 77.15 113.87 77.61 113.63 78.03 113.38 78.41 113.10 78.74 112.80 79.02 112.48 79.27 112.13 79.49 111.75 79.69 111.33 79.87 110.89 80.01 110.41 80.13 109.88 80.23 109.32 80.30 108.71 80.34 108.06 80.35 Z M 103.61 68.75 L 107.63 68.75 108.25 68.74 108.79 68.71 109.26 68.67 109.66 68.61 109.98 68.54 110.33 68.42 110.65 68.26 110.94 68.08 111.18 67.87 111.39 67.63 111.56 67.37 111.69 67.08 111.79 66.76 111.85 66.41 111.87 66.04 111.85 65.69 111.80 65.35 111.71 65.04 111.58 64.73 111.43 64.45 111.23 64.19 111.01 63.97 110.76 63.78 110.47 63.63 110.16 63.51 109.78 63.42 109.31 63.34 108.74 63.29 108.08 63.26 107.33 63.25 103.61 63.25 Z M 103.60 77.91 L 108.12 77.91 108.55 77.90 108.93 77.89 109.26 77.87 109.53 77.85 109.75 77.81 110.07 77.74 110.37 77.65 110.64 77.54 110.90 77.42 111.13 77.28 111.35 77.12 111.55 76.93 111.73 76.71 111.90 76.47 112.05 76.19 112.18 75.90 112.28 75.59 112.35 75.26 112.39 74.91 112.41 74.55 112.39 74.12 112.34 73.72 112.26 73.34 112.14 72.98 111.99 72.65 111.80 72.35 111.57 72.08 111.30 71.86 110.98 71.67 110.63 71.52 110.21 71.40 109.74 71.31 109.19 71.24 108.58 71.20 107.90 71.19 103.60 71.19 Z M 137.75 78.01 L 138.34 78.53 138.90 79.00 139.44 79.41 139.97 79.76 140.48 80.04 139.89 81.83 139.16 81.51 138.43 81.12 137.71 80.66 136.98 80.14 136.26 79.55 135.47 79.95 134.65 80.26 133.79 80.48 132.90 80.61 131.98 80.65 131.05 80.60 130.16 80.45 129.30 80.20 128.48 79.84 127.69 79.38 126.96 78.83 126.30 78.19 125.70 77.48 125.18 76.67 124.73 75.79 124.36 74.84 124.07 73.85 123.86 72.81 123.74 71.72 123.70 70.58 123.74 69.45 123.87 68.36 124.08 67.31 124.37 66.31 124.74 65.34 125.19 64.44 125.71 63.63 126.30 62.91 126.96 62.28 127.69 61.74 128.48 61.30 129.30 60.95 130.15 60.70 131.05 60.55 131.98 60.51 132.92 60.56 133.82 60.71 134.68 60.96 135.50 61.31 136.29 61.77 137.02 62.32 137.68 62.94 138.26 63.65 138.78 64.44 139.21 65.31 139.58 66.24 139.86 67.22 140.06 68.25 140.18 69.32 140.21 70.44 140.19 71.37 140.12 72.27 139.99 73.12 139.82 73.93 139.60 74.71 139.33 75.45 139.01 76.15 138.64 76.81 138.22 77.43 137.75 78.01 Z M 132.59 74.76 L 133.38 75.03 134.10 75.36 134.77 75.73 135.38 76.15 135.94 76.61 136.68 75.73 137.26 74.68 137.68 73.47 137.93 72.10 138.01 70.57 137.98 69.67 137.90 68.82 137.75 68.02 137.55 67.27 137.29 66.56 136.97 65.90 136.59 65.31 136.16 64.78 135.68 64.30 135.15 63.89 134.57 63.55 133.97 63.29 133.34 63.10 132.68 62.99 131.99 62.95 130.98 63.02 130.03 63.25 129.16 63.64 128.36 64.17 127.64 64.86 127.01 65.70 126.53 66.70 126.18 67.84 125.97 69.13 125.90 70.58 125.97 71.99 126.17 73.26 126.51 74.39 126.99 75.38 127.60 76.24 128.32 76.95 129.12 77.50 129.99 77.90 130.94 78.13 131.97 78.21 132.47 78.19 132.95 78.13 133.43 78.03 133.89 77.89 134.34 77.71 133.90 77.43 133.45 77.17 132.98 76.96 132.51 76.78 132.03 76.63 Z M 142.69 73.63 L 144.89 73.63 144.97 74.21 145.08 74.74 145.22 75.23 145.39 75.67 145.60 76.08 145.85 76.45 146.14 76.78 146.49 77.09 146.89 77.37 147.33 77.62 147.81 77.84 148.32 78.00 148.84 78.12 149.39 78.19 149.97 78.21 150.48 78.19 150.96 78.14 151.42 78.05 151.86 77.93 152.27 77.77 152.65 77.57 152.99 77.36 153.29 77.11 153.54 76.84 153.76 76.54 153.94 76.23 154.07 75.90 154.17 75.58 154.23 75.24 154.25 74.90 154.23 74.56 154.19 74.24 154.12 73.93 154.02 73.65 153.89 73.38 153.71 73.13 153.47 72.89 153.17 72.67 152.81 72.46 152.39 72.27 152.03 72.14 151.53 71.98 150.89 71.79 150.11 71.58 149.18 71.34 148.25 71.09 147.44 70.84 146.75 70.60 146.18 70.36 145.73 70.13 145.26 69.82 144.83 69.49 144.46 69.12 144.13 68.73 143.86 68.31 143.64 67.87 143.47 67.41 143.34 66.92 143.27 66.41 143.25 65.89 143.28 65.30 143.37 64.73 143.52 64.18 143.74 63.64 144.01 63.12 144.35 62.63 144.74 62.19 145.18 61.80 145.69 61.46 146.24 61.17 146.84 60.93 147.47 60.74 148.12 60.61 148.80 60.53 149.51 60.51 150.28 60.53 151.01 60.62 151.71 60.76 152.37 60.95 152.99 61.20 153.57 61.51 154.09 61.86 154.55 62.27 154.96 62.73 155.31 63.25 155.61 63.80 155.84 64.39 156.02 65.00 156.13 65.64 156.18 66.31 153.98 66.31 153.87 65.67 153.69 65.11 153.44 64.61 153.13 64.17 152.74 63.80 152.27 63.49 151.73 63.25 151.10 63.08 150.39 62.98 149.59 62.95 148.78 62.98 148.05 63.08 147.42 63.25 146.88 63.49 146.44 63.79 146.08 64.14 145.81 64.51 145.61 64.92 145.49 65.35 145.45 65.81 145.48 66.21 145.56 66.58 145.70 66.92 145.90 67.23 146.15 67.51 146.51 67.78 147.05 68.05 147.77 68.32 148.67 68.60 149.74 68.87 150.83 69.14 151.76 69.40 152.54 69.65 153.17 69.88 153.64 70.10 154.19 70.43 154.67 70.79 155.10 71.19 155.46 71.62 155.77 72.08 156.02 72.57 156.21 73.09 156.34 73.65 156.42 74.23 156.45 74.84 156.42 75.45 156.32 76.05 156.17 76.64 155.94 77.21 155.66 77.76 155.32 78.29 154.92 78.76 154.46 79.19 153.95 79.57 153.39 79.89 152.78 80.17 152.14 80.38 151.48 80.53 150.78 80.62 150.06 80.65 149.15 80.62 148.30 80.52 147.51 80.36 146.79 80.13 146.12 79.83 145.52 79.47 144.96 79.05 144.47 78.55 144.02 77.99 143.64 77.36 143.31 76.69 143.05 75.97 142.86 75.23 142.74 74.45 142.69 73.63 Z" />
<path fill="none" stroke="rgb(0,0,255)" stroke-width="2" d=" M 41 41 L 162 41 162 102 41 102 41 41 Z" />
</svg>
