<?xml version="1.0" encoding="utf-8"?>
<!-- Created with "sPlan" (http://www.abacom-online.de) -->
<svg version="1.1" baseProfile="full"
xmlns="http://www.w3.org/2000/svg"
width="20mm" height="17mm"
viewBox="0 0 205 176">
<title>MTEEQS</title>
<defs>
<style type="text/css">
<![CDATA[
polyline {stroke-linecap:round; stroke-linejoin:round}
polygon {stroke-linecap:round; stroke-linejoin:round}
path {stroke-linecap:round; stroke-linejoin:round}
circle {stroke-linecap:round; stroke-linejoin:round}
]]>
</style>
</defs>
<polyline points="44.56 52.83 55.83 52.83 67.50 52.83 67.50 41.00 137.04 41.00 137.04 52.89 160.38 52.89 137.04 52.89 137.04 64.21 114.16 64.21 114.16 84.44 102.13 84.44 102.13 104.34 102.13 84.34 90.07 84.34 90.07 63.75 67.50 63.75 67.50 52.83" fill="none" stroke="rgb(0,0,255)" stroke-width="2" />
<path fill="rgb(255,0,0)" stroke="rgb(255,0,0)" stroke-width="2" d=" M 157 51 C 157 49 159 49 159 49 L 162 49 L 162 49 C 164 49 164 51 164 51 L 164 55 L 164 55 C 164 56 162 56 162 56 L 159 56 L 159 56 C 157 56 157 55 157 55 L 157 51 Z" />
<path fill="rgb(255,0,0)" stroke="rgb(255,0,0)" stroke-width="2" d=" M 41 51 C 41 49 43 49 43 49 L 46 49 L 46 49 C 48 49 48 51 48 51 L 48 55 L 48 55 C 48 56 46 56 46 56 L 43 56 L 43 56 C 41 56 41 55 41 55 L 41 51 Z" />
<path fill="rgb(255,0,0)" stroke="rgb(255,0,0)" stroke-width="2" d=" M 99 103 C 99 101 100 101 100 101 L 104 101 L 104 101 C 106 101 106 103 106 103 L 106 106 L 106 106 C 106 108 104 108 104 108 L 100 108 L 100 108 C 99 108 99 106 99 106 L 99 103 Z" />
<path fill="rgb(0,0,0)" stroke="rgb(0,0,0)" stroke-width="0" d=" M 55.52 130.65 L 55.54 112.20 59.11 112.20 62.51 125.21 62.69 125.90 62.85 126.51 62.98 127.06 63.10 127.53 63.20 127.92 63.30 127.49 63.43 126.97 63.58 126.38 63.75 125.72 63.94 124.98 67.30 112.20 70.88 112.20 70.86 130.65 68.78 130.65 68.80 114.50 64.60 130.65 61.79 130.65 57.62 114.50 57.60 130.65 Z M 78.92 130.65 L 78.94 114.50 73.48 114.50 73.48 112.20 86.48 112.20 86.48 114.50 81.02 114.50 81.01 130.65 Z M 88.81 130.65 L 88.82 112.20 100.78 112.20 100.78 114.50 90.90 114.50 90.89 119.98 100.25 119.98 100.25 122.29 90.89 122.29 90.89 128.35 101.03 128.35 101.03 130.65 Z M 104.15 130.65 L 104.16 112.20 116.12 112.20 116.12 114.50 106.24 114.50 106.23 119.98 115.59 119.98 115.59 122.29 106.23 122.29 106.23 128.35 116.37 128.35 116.37 130.65 Z M 131.99 128.44 L 132.54 128.94 133.07 129.38 133.59 129.77 134.09 130.09 134.57 130.37 134.01 132.06 133.32 131.75 132.63 131.38 131.95 130.95 131.26 130.45 130.58 129.90 129.83 130.27 129.06 130.57 128.25 130.77 127.41 130.90 126.54 130.94 125.66 130.89 124.82 130.75 124.01 130.51 123.23 130.17 122.49 129.74 121.79 129.22 121.17 128.62 120.61 127.94 120.12 127.18 119.69 126.35 119.34 125.45 119.07 124.51 118.87 123.53 118.75 122.50 118.71 121.43 118.76 120.36 118.87 119.33 119.07 118.34 119.35 117.39 119.70 116.48 120.13 115.63 120.62 114.86 121.17 114.18 121.80 113.59 122.49 113.08 123.23 112.66 124.00 112.33 124.81 112.10 125.66 111.96 126.54 111.91 127.42 111.96 128.27 112.10 129.09 112.34 129.86 112.67 130.61 113.10 131.30 113.62 131.92 114.21 132.47 114.88 132.96 115.63 133.37 116.45 133.71 117.33 133.98 118.25 134.17 119.22 134.28 120.24 134.32 121.30 134.29 122.17 134.22 123.02 134.11 123.82 133.94 124.59 133.74 125.33 133.48 126.02 133.18 126.68 132.83 127.31 132.43 127.89 131.99 128.44 Z M 127.12 125.37 L 127.86 125.63 128.54 125.94 129.17 126.29 129.75 126.68 130.28 127.13 130.98 126.29 131.53 125.30 131.92 124.16 132.16 122.86 132.24 121.41 132.21 120.57 132.13 119.77 131.99 119.01 131.80 118.29 131.55 117.63 131.25 117.01 130.89 116.45 130.49 115.94 130.04 115.50 129.53 115.11 128.99 114.79 128.41 114.54 127.82 114.36 127.20 114.25 126.55 114.22 125.59 114.29 124.70 114.51 123.88 114.87 123.12 115.37 122.43 116.03 121.85 116.82 121.39 117.76 121.06 118.84 120.86 120.06 120.79 121.43 120.86 122.75 121.05 123.95 121.37 125.02 121.82 125.96 122.40 126.77 123.08 127.44 123.84 127.96 124.66 128.34 125.56 128.56 126.53 128.64 127.00 128.62 127.46 128.56 127.91 128.46 128.34 128.33 128.77 128.16 128.35 127.89 127.92 127.65 127.48 127.45 127.04 127.28 126.58 127.14 Z M 136.65 124.31 L 138.73 124.31 138.80 124.85 138.91 125.35 139.04 125.82 139.21 126.24 139.40 126.62 139.64 126.97 139.92 127.29 140.24 127.58 140.62 127.84 141.04 128.08 141.49 128.28 141.97 128.43 142.47 128.55 142.99 128.61 143.53 128.64 144.01 128.62 144.47 128.57 144.90 128.48 145.32 128.37 145.70 128.21 146.06 128.03 146.38 127.83 146.66 127.59 146.91 127.34 147.11 127.06 147.28 126.76 147.41 126.45 147.50 126.15 147.55 125.83 147.57 125.51 147.56 125.19 147.52 124.88 147.45 124.59 147.35 124.32 147.23 124.07 147.06 123.83 146.84 123.61 146.56 123.40 146.21 123.20 145.82 123.02 145.48 122.89 145.00 122.74 144.40 122.57 143.66 122.37 142.79 122.14 141.91 121.90 141.14 121.67 140.49 121.44 139.95 121.22 139.53 121.00 139.08 120.71 138.68 120.39 138.32 120.05 138.02 119.68 137.76 119.29 137.55 118.87 137.39 118.43 137.27 117.97 137.20 117.49 137.18 116.99 137.21 116.44 137.30 115.90 137.44 115.38 137.64 114.87 137.90 114.38 138.22 113.92 138.59 113.50 139.01 113.13 139.48 112.81 140.01 112.54 140.58 112.31 141.17 112.14 141.79 112.01 142.43 111.93 143.09 111.91 143.82 111.94 144.52 112.01 145.17 112.15 145.80 112.33 146.39 112.57 146.93 112.86 147.42 113.19 147.86 113.58 148.24 114.01 148.58 114.50 148.86 115.02 149.08 115.57 149.24 116.15 149.35 116.76 149.40 117.39 147.32 117.39 147.22 116.79 147.05 116.26 146.81 115.78 146.51 115.37 146.14 115.02 145.70 114.73 145.19 114.51 144.59 114.34 143.92 114.25 143.18 114.22 142.40 114.25 141.72 114.34 141.12 114.50 140.61 114.72 140.20 115.01 139.86 115.34 139.60 115.70 139.41 116.08 139.30 116.49 139.26 116.92 139.29 117.30 139.37 117.65 139.50 117.97 139.68 118.26 139.92 118.52 140.27 118.78 140.78 119.03 141.46 119.29 142.30 119.55 143.32 119.81 144.34 120.07 145.22 120.31 145.96 120.55 146.55 120.76 146.99 120.97 147.51 121.28 147.97 121.62 148.37 122.00 148.72 122.40 149.01 122.84 149.24 123.31 149.42 123.80 149.55 124.32 149.63 124.87 149.65 125.45 149.62 126.03 149.53 126.59 149.38 127.15 149.17 127.68 148.90 128.21 148.58 128.70 148.20 129.15 147.77 129.56 147.29 129.91 146.76 130.22 146.18 130.48 145.58 130.68 144.95 130.83 144.30 130.91 143.61 130.94 142.75 130.91 141.95 130.82 141.21 130.66 140.52 130.45 139.90 130.17 139.32 129.83 138.80 129.42 138.33 128.95 137.91 128.43 137.55 127.83 137.24 127.19 137.00 126.52 136.82 125.82 136.70 125.08 136.65 124.31 Z" />
<polyline points="56.08 48.26 51.37 57.29" fill="none" stroke="rgb(0,0,255)" stroke-width="2" />
<path fill="rgb(0,0,255)" stroke="rgb(0,0,255)" stroke-width="0" d=" M 99.62 59.52 L 100.05 59.91 100.47 60.25 100.87 60.55 101.26 60.81 101.63 61.02 101.20 62.34 100.66 62.10 100.13 61.81 99.59 61.48 99.06 61.09 98.52 60.65 97.94 60.95 97.34 61.18 96.70 61.34 96.05 61.44 95.37 61.47 94.69 61.43 94.03 61.32 93.40 61.13 92.79 60.87 92.21 60.53 91.67 60.12 91.18 59.65 90.74 59.13 90.36 58.54 90.03 57.89 89.75 57.19 89.54 56.45 89.39 55.69 89.30 54.89 89.27 54.05 89.30 53.22 89.39 52.41 89.55 51.64 89.76 50.90 90.04 50.18 90.37 49.52 90.75 48.92 91.19 48.39 91.67 47.93 92.21 47.53 92.79 47.20 93.39 46.95 94.02 46.77 94.68 46.66 95.37 46.62 96.06 46.66 96.72 46.77 97.36 46.96 97.97 47.22 98.55 47.55 99.08 47.96 99.57 48.42 100.00 48.94 100.38 49.52 100.70 50.16 100.97 50.85 101.17 51.57 101.32 52.33 101.41 53.12 101.44 53.94 101.42 54.63 101.36 55.29 101.27 55.92 101.15 56.52 100.99 57.09 100.79 57.63 100.55 58.15 100.28 58.63 99.97 59.09 99.62 59.52 Z M 95.82 57.12 L 96.40 57.33 96.93 57.56 97.43 57.84 97.88 58.15 98.29 58.49 98.84 57.84 99.26 57.07 99.57 56.18 99.75 55.16 99.81 54.04 99.79 53.38 99.73 52.75 99.62 52.16 99.47 51.60 99.28 51.08 99.04 50.60 98.77 50.16 98.45 49.77 98.10 49.42 97.70 49.12 97.28 48.87 96.83 48.67 96.37 48.53 95.88 48.45 95.38 48.42 94.63 48.48 93.94 48.65 93.29 48.93 92.70 49.32 92.17 49.83 91.71 50.45 91.35 51.18 91.10 52.03 90.94 52.98 90.89 54.05 90.94 55.08 91.09 56.02 91.34 56.85 91.69 57.58 92.14 58.22 92.68 58.74 93.26 59.15 93.91 59.44 94.61 59.61 95.36 59.67 95.73 59.65 96.09 59.61 96.44 59.54 96.78 59.43 97.11 59.30 96.78 59.09 96.45 58.90 96.11 58.75 95.76 58.61 95.40 58.50 Z M 103.26 56.30 L 104.88 56.30 104.94 56.72 105.02 57.11 105.12 57.47 105.25 57.80 105.41 58.10 105.59 58.37 105.81 58.62 106.06 58.85 106.35 59.05 106.68 59.24 107.03 59.39 107.41 59.51 107.80 59.60 108.20 59.65 108.63 59.67 109.00 59.66 109.36 59.62 109.70 59.55 110.02 59.46 110.32 59.34 110.60 59.20 110.85 59.04 111.07 58.86 111.26 58.66 111.42 58.44 111.55 58.21 111.65 57.97 111.72 57.73 111.76 57.48 111.78 57.23 111.77 56.98 111.74 56.74 111.68 56.52 111.61 56.31 111.51 56.11 111.38 55.92 111.21 55.75 110.99 55.58 110.72 55.43 110.41 55.29 110.14 55.19 109.78 55.07 109.30 54.94 108.73 54.78 108.05 54.60 107.36 54.42 106.76 54.24 106.25 54.06 105.83 53.89 105.50 53.72 105.15 53.49 104.84 53.24 104.56 52.97 104.32 52.68 104.12 52.38 103.96 52.05 103.83 51.71 103.74 51.35 103.69 50.98 103.67 50.59 103.70 50.16 103.76 49.74 103.88 49.33 104.03 48.93 104.24 48.55 104.48 48.19 104.77 47.87 105.10 47.58 105.47 47.33 105.88 47.11 106.32 46.94 106.78 46.80 107.27 46.70 107.77 46.64 108.29 46.62 108.85 46.64 109.40 46.70 109.91 46.81 110.39 46.95 110.85 47.13 111.28 47.36 111.66 47.62 112.00 47.92 112.30 48.26 112.56 48.64 112.78 49.05 112.95 49.48 113.08 49.93 113.16 50.40 113.20 50.90 111.58 50.90 111.50 50.43 111.37 50.01 111.19 49.64 110.95 49.32 110.66 49.05 110.32 48.82 109.92 48.65 109.46 48.52 108.93 48.45 108.35 48.42 107.75 48.45 107.21 48.52 106.75 48.64 106.35 48.82 106.02 49.04 105.76 49.30 105.56 49.58 105.41 49.87 105.32 50.19 105.29 50.53 105.31 50.83 105.38 51.10 105.48 51.35 105.62 51.58 105.81 51.78 106.08 51.98 106.48 52.18 107.01 52.38 107.67 52.58 108.46 52.79 109.26 52.99 109.95 53.18 110.52 53.36 110.98 53.53 111.33 53.69 111.73 53.93 112.09 54.20 112.41 54.49 112.67 54.81 112.90 55.15 113.08 55.51 113.22 55.90 113.32 56.31 113.38 56.73 113.40 57.18 113.38 57.64 113.31 58.08 113.19 58.51 113.03 58.93 112.82 59.34 112.56 59.72 112.27 60.07 111.94 60.39 111.56 60.67 111.14 60.91 110.70 61.11 110.23 61.27 109.74 61.38 109.22 61.45 108.69 61.47 108.02 61.45 107.39 61.37 106.81 61.25 106.28 61.08 105.79 60.86 105.34 60.60 104.94 60.28 104.57 59.92 104.24 59.51 103.96 59.04 103.72 58.54 103.53 58.02 103.39 57.47 103.30 56.90 103.26 56.30 Z" />
</svg>
