<?xml version="1.0" encoding="utf-8"?>
<!-- Created with "sPlan" (http://www.abacom-online.de) -->
<svg version="1.1" baseProfile="full"
xmlns="http://www.w3.org/2000/svg"
width="20mm" height="14mm"
viewBox="0 0 203 143">
<title>NOISE</title>
<defs>
<style type="text/css">
<![CDATA[
polyline {stroke-linecap:round; stroke-linejoin:round}
polygon {stroke-linecap:round; stroke-linejoin:round}
path {stroke-linecap:round; stroke-linejoin:round}
circle {stroke-linecap:round; stroke-linejoin:round}
]]>
</style>
</defs>
<path fill="rgb(0,0,255)" stroke="rgb(0,0,255)" stroke-width="0" d=" M 49.62 84.19 L 49.64 56.00 53.04 56.00 66.30 78.33 66.32 56.00 69.50 56.00 69.47 84.19 66.07 84.19 52.81 61.85 52.79 84.19 Z M 73.85 70.47 L 73.99 67.79 74.40 65.36 75.08 63.17 76.03 61.22 77.25 59.52 78.68 58.09 80.28 56.98 82.03 56.19 83.93 55.72 86.00 55.56 87.37 55.63 88.69 55.86 89.96 56.23 91.16 56.75 92.32 57.42 93.39 58.22 94.36 59.14 95.22 60.18 95.97 61.33 96.61 62.60 97.14 63.97 97.55 65.40 97.85 66.91 98.02 68.49 98.08 70.14 98.01 71.82 97.82 73.42 97.51 74.95 97.07 76.40 96.51 77.79 95.84 79.07 95.06 80.22 94.18 81.25 93.19 82.14 92.11 82.90 90.95 83.52 89.75 84.01 88.52 84.35 87.26 84.56 85.95 84.63 84.55 84.55 83.21 84.32 81.94 83.94 80.72 83.40 79.56 82.71 78.49 81.89 77.53 80.96 76.68 79.91 75.94 78.75 75.30 77.48 74.78 76.14 74.37 74.77 74.08 73.37 73.91 71.93 73.85 70.47 Z M 77.03 70.50 L 77.13 72.39 77.43 74.11 77.94 75.67 78.65 77.05 79.56 78.27 80.63 79.29 81.80 80.09 83.07 80.65 84.45 80.99 85.93 81.11 87.44 80.99 88.84 80.65 90.13 80.08 91.30 79.27 92.37 78.24 93.28 77.00 93.99 75.57 94.49 73.94 94.80 72.13 94.90 70.12 94.86 68.82 94.73 67.59 94.52 66.42 94.22 65.33 93.83 64.30 93.36 63.35 92.80 62.49 92.17 61.72 91.46 61.04 90.67 60.45 89.83 59.96 88.93 59.58 88.00 59.30 87.03 59.14 86.01 59.08 84.59 59.19 83.24 59.50 81.97 60.03 80.79 60.77 79.69 61.72 78.73 62.91 77.99 64.39 77.46 66.14 77.14 68.18 77.03 70.50 Z M 102.83 84.19 L 102.86 56.00 106.03 56.00 106.01 84.19 Z M 111.18 74.50 L 114.35 74.50 114.46 75.33 114.62 76.09 114.83 76.80 115.08 77.44 115.38 78.03 115.74 78.56 116.16 79.05 116.66 79.49 117.23 79.90 117.88 80.26 118.57 80.56 119.30 80.80 120.06 80.97 120.85 81.07 121.68 81.11 122.42 81.08 123.12 81.00 123.78 80.87 124.41 80.69 125.00 80.46 125.55 80.19 126.04 79.87 126.47 79.52 126.84 79.13 127.15 78.69 127.41 78.24 127.60 77.78 127.74 77.30 127.83 76.82 127.86 76.33 127.84 75.84 127.77 75.37 127.67 74.93 127.52 74.52 127.33 74.13 127.08 73.77 126.74 73.42 126.30 73.10 125.78 72.81 125.18 72.53 124.66 72.34 123.94 72.11 123.01 71.84 121.88 71.53 120.55 71.19 119.20 70.82 118.03 70.47 117.04 70.12 116.22 69.78 115.57 69.45 114.88 69.00 114.27 68.52 113.73 68.00 113.26 67.43 112.87 66.83 112.55 66.19 112.30 65.52 112.13 64.82 112.02 64.08 111.98 63.32 112.03 62.48 112.16 61.66 112.39 60.86 112.69 60.09 113.09 59.33 113.57 58.63 114.13 57.99 114.78 57.43 115.50 56.94 116.31 56.52 117.17 56.17 118.08 55.91 119.02 55.71 120.00 55.60 121.02 55.56 122.13 55.60 123.19 55.72 124.19 55.92 125.15 56.20 126.04 56.56 126.88 57.00 127.63 57.52 128.29 58.11 128.88 58.78 129.39 59.52 129.82 60.32 130.15 61.16 130.41 62.04 130.57 62.96 130.65 63.93 127.47 63.93 127.31 63.02 127.06 62.20 126.70 61.48 126.24 60.85 125.68 60.31 125.00 59.87 124.22 59.52 123.31 59.28 122.28 59.13 121.14 59.08 119.96 59.13 118.92 59.28 118.01 59.52 117.23 59.86 116.59 60.29 116.08 60.80 115.68 61.34 115.39 61.93 115.22 62.55 115.16 63.22 115.20 63.79 115.32 64.32 115.52 64.81 115.81 65.26 116.17 65.66 116.70 66.05 117.48 66.44 118.51 66.83 119.81 67.23 121.36 67.63 122.92 68.02 124.27 68.40 125.39 68.75 126.29 69.08 126.98 69.40 127.77 69.88 128.47 70.40 129.08 70.97 129.61 71.59 130.05 72.26 130.41 72.97 130.68 73.72 130.88 74.52 131.00 75.36 131.03 76.24 130.99 77.13 130.85 77.99 130.62 78.83 130.30 79.65 129.89 80.46 129.40 81.21 128.82 81.90 128.16 82.51 127.43 83.06 126.61 83.53 125.74 83.93 124.82 84.23 123.86 84.45 122.85 84.59 121.81 84.63 120.50 84.58 119.27 84.44 118.14 84.20 117.09 83.87 116.13 83.45 115.26 82.92 114.46 82.31 113.74 81.59 113.10 80.79 112.54 79.88 112.07 78.90 111.70 77.88 111.43 76.80 111.25 75.68 111.18 74.50 Z M 135.79 84.19 L 135.82 56.00 154.09 56.00 154.09 59.52 138.99 59.52 138.98 67.89 153.28 67.89 153.28 71.42 138.98 71.42 138.98 80.67 154.46 80.67 154.46 84.19 Z" />
<path fill="none" stroke="rgb(0,0,255)" stroke-width="2" d=" M 41 41 L 162 41 162 102 41 102 41 41 Z" />
</svg>
