<?xml version="1.0" encoding="utf-8"?>
<!-- Created with "sPlan" (http://www.abacom-online.de) -->
<svg version="1.1" baseProfile="full"
xmlns="http://www.w3.org/2000/svg"
width="18mm" height="17mm"
viewBox="0 0 181 175">
<title>NPORT</title>
<defs>
<style type="text/css">
<![CDATA[
polyline {stroke-linecap:round; stroke-linejoin:round}
polygon {stroke-linecap:round; stroke-linejoin:round}
path {stroke-linecap:round; stroke-linejoin:round}
circle {stroke-linecap:round; stroke-linejoin:round}
]]>
</style>
</defs>
<polyline points="69.56 41.00 139.56 41.00 139.56 111.00 69.56 111.00 69.56 76.00 44.56 76.00 69.56 76.00 69.56 41.00" fill="none" stroke="rgb(0,0,255)" stroke-width="2" />
<path fill="rgb(255,0,0)" stroke="rgb(255,0,0)" stroke-width="2" d=" M 41 74 C 41 72 43 72 43 72 L 46 72 L 46 72 C 48 72 48 74 48 74 L 48 78 L 48 78 C 48 80 46 80 46 80 L 43 80 L 43 80 C 41 80 41 78 41 78 L 41 74 Z" />
<polyline points="104.44 111.05 104.44 111.05 104.44 111.05 104.44 121.05 118.32 121.05 90.13 121.05" fill="none" stroke="rgb(0,0,255)" stroke-width="2" />
<polyline points="112.95 127.82 95.75 127.82" fill="none" stroke="rgb(0,0,255)" stroke-width="2" />
<polyline points="108.12 134.26 100.51 134.26" fill="none" stroke="rgb(0,0,255)" stroke-width="2" />
<path fill="rgb(0,0,0)" stroke="rgb(0,0,0)" stroke-width="0" d=" M 81.75 77.84 L 83.83 77.84 83.90 78.39 84.00 78.89 84.14 79.35 84.30 79.77 84.50 80.15 84.73 80.50 85.01 80.82 85.34 81.11 85.71 81.38 86.13 81.61 86.59 81.81 87.06 81.97 87.56 82.08 88.08 82.15 88.63 82.17 89.11 82.15 89.56 82.10 90.00 82.02 90.41 81.90 90.80 81.75 91.16 81.57 91.48 81.36 91.76 81.13 92.00 80.87 92.21 80.59 92.37 80.29 92.50 79.99 92.59 79.68 92.65 79.36 92.67 79.04 92.65 78.72 92.61 78.42 92.54 78.13 92.45 77.86 92.32 77.60 92.16 77.36 91.93 77.14 91.65 76.93 91.31 76.74 90.91 76.55 90.57 76.43 90.10 76.28 89.49 76.10 88.76 75.90 87.88 75.67 87.00 75.44 86.24 75.21 85.58 74.98 85.05 74.75 84.62 74.54 84.17 74.25 83.77 73.93 83.42 73.59 83.11 73.22 82.86 72.82 82.65 72.40 82.48 71.96 82.37 71.50 82.30 71.02 82.28 70.53 82.31 69.97 82.39 69.44 82.54 68.92 82.74 68.41 83.00 67.92 83.32 67.45 83.68 67.04 84.11 66.67 84.58 66.35 85.11 66.07 85.67 65.85 86.27 65.67 86.88 65.54 87.52 65.47 88.19 65.44 88.92 65.47 89.61 65.55 90.27 65.68 90.89 65.86 91.48 66.10 92.03 66.39 92.52 66.73 92.96 67.11 93.34 67.55 93.67 68.03 93.95 68.56 94.17 69.11 94.34 69.69 94.45 70.29 94.50 70.92 92.42 70.92 92.31 70.33 92.14 69.79 91.91 69.32 91.61 68.90 91.24 68.55 90.80 68.26 90.28 68.04 89.69 67.88 89.02 67.78 88.27 67.75 87.50 67.78 86.81 67.88 86.22 68.04 85.71 68.26 85.29 68.54 84.96 68.87 84.69 69.23 84.51 69.61 84.39 70.02 84.36 70.46 84.38 70.83 84.46 71.18 84.59 71.50 84.78 71.79 85.02 72.06 85.36 72.31 85.87 72.57 86.55 72.82 87.40 73.08 88.41 73.35 89.44 73.60 90.32 73.85 91.05 74.08 91.64 74.30 92.09 74.50 92.61 74.82 93.07 75.16 93.47 75.53 93.82 75.94 94.10 76.37 94.34 76.84 94.52 77.34 94.65 77.86 94.72 78.41 94.75 78.98 94.72 79.56 94.63 80.13 94.48 80.68 94.27 81.22 94.00 81.74 93.68 82.24 93.30 82.69 92.87 83.09 92.39 83.45 91.85 83.76 91.28 84.02 90.68 84.22 90.05 84.36 89.39 84.45 88.71 84.48 87.85 84.45 87.05 84.35 86.30 84.20 85.62 83.98 84.99 83.70 84.42 83.36 83.90 82.96 83.43 82.49 83.01 81.96 82.64 81.37 82.34 80.73 82.09 80.06 81.91 79.35 81.80 78.61 81.75 77.84 Z M 97.86 84.19 L 97.88 65.73 100.11 65.73 108.79 80.35 108.80 65.73 110.88 65.73 110.86 84.19 108.64 84.19 99.96 69.56 99.94 84.19 Z M 114.50 84.19 L 114.52 65.73 120.69 65.73 121.31 65.74 121.87 65.76 122.37 65.80 122.80 65.84 123.17 65.91 123.64 66.01 124.08 66.15 124.48 66.33 124.85 66.53 125.20 66.77 125.51 67.05 125.80 67.36 126.06 67.72 126.29 68.12 126.50 68.55 126.68 69.02 126.82 69.51 126.92 70.01 126.98 70.53 127.00 71.07 126.94 71.98 126.78 72.84 126.51 73.64 126.14 74.38 125.66 75.06 125.03 75.65 124.24 76.10 123.27 76.43 122.13 76.62 120.82 76.69 116.59 76.69 116.58 84.19 Z M 116.59 74.38 L 120.94 74.38 121.76 74.35 122.47 74.25 123.08 74.08 123.60 73.84 124.01 73.54 124.34 73.17 124.59 72.75 124.77 72.27 124.88 71.74 124.92 71.15 124.90 70.72 124.83 70.31 124.73 69.93 124.58 69.57 124.39 69.24 124.16 68.95 123.91 68.69 123.63 68.48 123.32 68.32 122.98 68.20 122.72 68.14 122.38 68.10 121.96 68.06 121.47 68.05 120.90 68.04 116.60 68.04 Z" />
</svg>
