<?xml version="1.0" encoding="utf-8"?>
<!-- Created with "sPlan" (http://www.abacom-online.de) -->
<svg version="1.1" baseProfile="full"
xmlns="http://www.w3.org/2000/svg"
width="17mm" height="10mm"
viewBox="0 0 171 103">
<title>quasistatic_models</title>
<defs>
<style type="text/css">
<![CDATA[
polyline {stroke-linecap:round; stroke-linejoin:round}
polygon {stroke-linecap:round; stroke-linejoin:round}
path {stroke-linecap:round; stroke-linejoin:round}
circle {stroke-linecap:round; stroke-linejoin:round}
]]>
</style>
</defs>
<polyline points="41.00 51.45 58.85 51.45 58.85 41.00 112.03 41.00 112.03 51.45 129.87 51.45 112.03 51.45 112.03 61.90 58.85 61.90 58.85 51.45" fill="none" stroke="rgb(0,96,191)" stroke-width="2" />
<path fill="rgb(0,96,191)" stroke="rgb(0,96,191)" stroke-width="0" d=" M 83.88 55.49 L 84.24 55.82 84.59 56.11 84.93 56.36 85.27 56.58 85.58 56.76 85.21 57.88 84.76 57.68 84.30 57.43 83.85 57.15 83.40 56.82 82.94 56.45 82.45 56.70 81.93 56.89 81.40 57.03 80.84 57.12 80.26 57.14 79.68 57.11 79.13 57.02 78.59 56.86 78.07 56.63 77.58 56.34 77.12 56.00 76.70 55.60 76.33 55.15 76.01 54.65 75.73 54.10 75.49 53.51 75.31 52.88 75.18 52.23 75.10 51.55 75.08 50.84 75.11 50.13 75.18 49.45 75.32 48.79 75.50 48.16 75.73 47.56 76.01 46.99 76.34 46.49 76.71 46.04 77.12 45.64 77.58 45.30 78.07 45.03 78.58 44.81 79.12 44.65 79.68 44.56 80.26 44.53 80.85 44.56 81.41 44.66 81.95 44.82 82.47 45.04 82.96 45.32 83.42 45.66 83.83 46.06 84.20 46.50 84.52 46.99 84.79 47.54 85.02 48.12 85.19 48.74 85.32 49.38 85.39 50.05 85.42 50.75 85.40 51.33 85.36 51.89 85.28 52.43 85.17 52.94 85.03 53.42 84.86 53.88 84.66 54.32 84.43 54.73 84.17 55.12 83.88 55.49 Z M 80.65 53.45 L 81.14 53.62 81.59 53.83 82.01 54.06 82.39 54.32 82.74 54.61 83.21 54.06 83.57 53.40 83.83 52.65 83.99 51.79 84.04 50.83 84.02 50.27 83.97 49.74 83.88 49.24 83.75 48.76 83.58 48.32 83.38 47.91 83.15 47.54 82.88 47.20 82.58 46.91 82.25 46.65 81.88 46.44 81.51 46.27 81.11 46.15 80.70 46.08 80.27 46.06 79.63 46.11 79.05 46.25 78.50 46.49 78.00 46.83 77.54 47.26 77.15 47.79 76.85 48.41 76.63 49.12 76.50 49.93 76.46 50.84 76.50 51.72 76.63 52.51 76.84 53.22 77.14 53.84 77.52 54.38 77.97 54.82 78.47 55.17 79.02 55.42 79.61 55.57 80.26 55.61 80.57 55.60 80.87 55.56 81.17 55.50 81.46 55.41 81.74 55.30 81.46 55.12 81.18 54.96 80.89 54.83 80.59 54.72 80.29 54.62 Z M 86.97 52.75 L 88.34 52.75 88.39 53.11 88.46 53.44 88.55 53.75 88.66 54.03 88.79 54.28 88.94 54.51 89.13 54.72 89.35 54.91 89.59 55.09 89.87 55.25 90.17 55.38 90.49 55.48 90.82 55.56 91.16 55.60 91.52 55.61 91.84 55.60 92.15 55.57 92.43 55.51 92.71 55.44 92.96 55.34 93.20 55.22 93.41 55.08 93.60 54.93 93.76 54.76 93.90 54.57 94.01 54.37 94.09 54.17 94.15 53.96 94.19 53.76 94.20 53.54 94.19 53.33 94.17 53.13 94.12 52.94 94.06 52.76 93.97 52.59 93.86 52.43 93.72 52.28 93.53 52.14 93.30 52.01 93.04 51.89 92.81 51.81 92.50 51.71 92.10 51.59 91.61 51.46 91.03 51.31 90.45 51.15 89.94 51.00 89.51 50.85 89.15 50.70 88.87 50.56 88.57 50.36 88.31 50.15 88.07 49.93 87.87 49.68 87.70 49.42 87.56 49.14 87.45 48.85 87.38 48.55 87.33 48.23 87.32 47.90 87.34 47.53 87.39 47.18 87.49 46.83 87.62 46.50 87.80 46.17 88.00 45.86 88.25 45.59 88.53 45.34 88.84 45.13 89.19 44.95 89.57 44.80 89.96 44.68 90.37 44.60 90.79 44.55 91.24 44.53 91.72 44.55 92.18 44.60 92.61 44.69 93.03 44.81 93.42 44.97 93.78 45.16 94.10 45.38 94.39 45.64 94.65 45.93 94.87 46.25 95.05 46.59 95.20 46.96 95.31 47.34 95.38 47.74 95.41 48.16 94.04 48.16 93.97 47.77 93.85 47.41 93.70 47.10 93.50 46.82 93.26 46.59 92.96 46.40 92.62 46.25 92.23 46.14 91.78 46.08 91.29 46.06 90.78 46.08 90.32 46.14 89.93 46.25 89.59 46.40 89.31 46.59 89.09 46.80 88.92 47.04 88.79 47.29 88.72 47.57 88.69 47.85 88.71 48.10 88.76 48.33 88.85 48.55 88.97 48.74 89.13 48.91 89.36 49.08 89.70 49.25 90.15 49.42 90.71 49.59 91.38 49.77 92.06 49.94 92.64 50.10 93.13 50.25 93.52 50.40 93.82 50.54 94.16 50.74 94.47 50.97 94.73 51.22 94.96 51.49 95.15 51.77 95.31 52.08 95.43 52.41 95.51 52.76 95.56 53.12 95.58 53.50 95.56 53.89 95.50 54.26 95.40 54.63 95.26 54.98 95.09 55.33 94.87 55.66 94.62 55.96 94.34 56.23 94.02 56.46 93.66 56.67 93.28 56.84 92.88 56.97 92.47 57.07 92.03 57.12 91.58 57.14 91.01 57.12 90.48 57.06 89.99 56.96 89.53 56.81 89.11 56.63 88.74 56.40 88.39 56.14 88.08 55.83 87.80 55.48 87.56 55.08 87.35 54.66 87.19 54.21 87.07 53.75 87.00 53.26 86.97 52.75 Z" />
</svg>
