<?xml version="1.0" encoding="utf-8"?>
<!-- Created with "sPlan" (http://www.abacom-online.de) -->
<svg version="1.1" baseProfile="full"
xmlns="http://www.w3.org/2000/svg"
width="15mm" height="12mm"
viewBox="0 0 152 124">
<title>simulations</title>
<defs>
<style type="text/css">
<![CDATA[
polyline {stroke-linecap:round; stroke-linejoin:round}
polygon {stroke-linecap:round; stroke-linejoin:round}
path {stroke-linecap:round; stroke-linejoin:round}
circle {stroke-linecap:round; stroke-linejoin:round}
]]>
</style>
</defs>
<path fill="rgb(0,96,191)" stroke="rgb(0,96,191)" stroke-width="0" d=" M 48.55 65.52 L 51.47 65.52 51.57 66.35 51.71 67.12 51.90 67.82 52.13 68.47 52.41 69.05 52.74 69.58 53.13 70.07 53.59 70.51 54.12 70.91 54.70 71.28 55.34 71.58 56.01 71.82 56.71 71.99 57.44 72.09 58.20 72.12 58.88 72.10 59.52 72.02 60.13 71.89 60.71 71.71 61.26 71.48 61.76 71.20 62.21 70.89 62.61 70.54 62.95 70.14 63.23 69.71 63.47 69.26 63.65 68.80 63.78 68.32 63.85 67.84 63.88 67.35 63.86 66.86 63.80 66.40 63.71 65.96 63.57 65.54 63.40 65.16 63.16 64.79 62.85 64.45 62.45 64.13 61.98 63.83 61.42 63.56 60.94 63.36 60.28 63.13 59.43 62.87 58.39 62.56 57.16 62.21 55.93 61.85 54.85 61.50 53.93 61.15 53.18 60.81 52.59 60.48 51.95 60.03 51.39 59.55 50.89 59.03 50.46 58.46 50.10 57.86 49.81 57.22 49.58 56.55 49.42 55.85 49.32 55.12 49.29 54.36 49.33 53.52 49.45 52.70 49.66 51.90 49.94 51.12 50.31 50.37 50.75 49.67 51.27 49.03 51.86 48.47 52.52 47.98 53.26 47.56 54.06 47.21 54.89 46.95 55.76 46.75 56.66 46.64 57.59 46.60 58.62 46.64 59.59 46.76 60.51 46.96 61.39 47.24 62.21 47.60 62.98 48.04 63.67 48.56 64.28 49.15 64.83 49.81 65.29 50.55 65.68 51.35 65.99 52.19 66.22 53.08 66.38 54.00 66.45 54.96 63.53 54.96 63.38 54.05 63.14 53.23 62.81 52.51 62.39 51.88 61.88 51.35 61.26 50.90 60.53 50.56 59.70 50.32 58.76 50.17 57.71 50.12 56.62 50.17 55.66 50.31 54.82 50.56 54.11 50.90 53.52 51.33 53.05 51.84 52.68 52.38 52.42 52.96 52.26 53.59 52.21 54.25 52.25 54.83 52.36 55.36 52.54 55.85 52.80 56.29 53.14 56.69 53.62 57.08 54.34 57.47 55.29 57.86 56.48 58.26 57.90 58.66 59.34 59.05 60.58 59.43 61.61 59.78 62.44 60.11 63.07 60.43 63.80 60.90 64.44 61.43 65.01 62.00 65.49 62.62 65.90 63.28 66.22 63.99 66.48 64.75 66.66 65.54 66.77 66.38 66.80 67.26 66.76 68.15 66.63 69.01 66.42 69.85 66.13 70.67 65.75 71.47 65.30 72.23 64.77 72.92 64.16 73.53 63.49 74.07 62.74 74.55 61.93 74.94 61.09 75.25 60.20 75.47 59.28 75.60 58.32 75.64 57.11 75.60 55.99 75.46 54.95 75.22 53.98 74.89 53.10 74.46 52.30 73.94 51.56 73.32 50.91 72.61 50.32 71.80 49.80 70.90 49.37 69.92 49.03 68.90 48.78 67.82 48.62 66.70 48.55 65.52 Z M 71.54 75.20 L 71.56 47.04 74.49 47.04 74.46 75.20 Z M 80.30 75.20 L 80.33 47.04 85.34 47.04 90.11 66.89 90.36 67.94 90.59 68.89 90.78 69.71 90.94 70.43 91.08 71.04 91.23 70.37 91.41 69.59 91.62 68.69 91.86 67.68 92.12 66.55 96.84 47.04 101.87 47.04 101.84 75.20 98.92 75.20 98.95 50.56 93.05 75.20 89.10 75.20 83.25 50.56 83.22 75.20 Z" />
<polyline points="41.00 42.05 111.00 42.05 111.00 62.05 111.00 82.05 41.00 82.05 41.00 42.05" fill="none" stroke="rgb(0,96,191)" stroke-width="1" />
</svg>
