<?xml version="1.0" encoding="utf-8"?>
<!-- Created with "sPlan" (http://www.abacom-online.de) -->
<svg version="1.1" baseProfile="full"
xmlns="http://www.w3.org/2000/svg"
width="20mm" height="14mm"
viewBox="0 0 203 143">
<title>S_PARAM</title>
<defs>
<style type="text/css">
<![CDATA[
polyline {stroke-linecap:round; stroke-linejoin:round}
polygon {stroke-linecap:round; stroke-linejoin:round}
path {stroke-linecap:round; stroke-linejoin:round}
circle {stroke-linecap:round; stroke-linejoin:round}
]]>
</style>
</defs>
<path fill="rgb(0,0,255)" stroke="rgb(0,0,255)" stroke-width="0" d=" M 77.58 74.83 L 81.04 74.83 81.16 75.73 81.33 76.57 81.56 77.34 81.83 78.04 82.16 78.68 82.55 79.26 83.02 79.79 83.56 80.28 84.19 80.72 84.89 81.11 85.64 81.45 86.44 81.71 87.27 81.89 88.13 82.00 89.04 82.04 89.84 82.01 90.60 81.93 91.33 81.79 92.02 81.59 92.67 81.34 93.26 81.04 93.80 80.69 94.26 80.31 94.67 79.88 95.01 79.41 95.28 78.91 95.50 78.41 95.65 77.89 95.75 77.36 95.78 76.83 95.75 76.29 95.69 75.78 95.57 75.30 95.41 74.85 95.20 74.43 94.93 74.03 94.55 73.66 94.08 73.31 93.52 72.98 92.85 72.68 92.29 72.47 91.50 72.22 90.49 71.93 89.26 71.59 87.80 71.21 86.33 70.82 85.06 70.43 83.97 70.05 83.07 69.68 82.37 69.32 81.62 68.83 80.95 68.30 80.36 67.73 79.85 67.12 79.42 66.46 79.08 65.76 78.80 65.03 78.61 64.26 78.49 63.46 78.46 62.63 78.51 61.71 78.65 60.82 78.89 59.95 79.23 59.10 79.66 58.28 80.19 57.51 80.80 56.82 81.51 56.20 82.30 55.67 83.18 55.21 84.12 54.83 85.11 54.54 86.13 54.33 87.20 54.20 88.31 54.16 89.53 54.21 90.68 54.34 91.78 54.56 92.82 54.86 93.80 55.26 94.71 55.74 95.52 56.30 96.26 56.95 96.90 57.67 97.45 58.48 97.92 59.35 98.28 60.27 98.56 61.23 98.74 62.24 98.82 63.29 95.36 63.29 95.19 62.30 94.90 61.41 94.51 60.62 94.01 59.93 93.40 59.34 92.66 58.86 91.80 58.49 90.81 58.22 89.70 58.06 88.45 58.01 87.16 58.06 86.02 58.22 85.03 58.48 84.18 58.85 83.48 59.33 82.92 59.88 82.48 60.47 82.17 61.11 81.99 61.80 81.92 62.52 81.97 63.15 82.10 63.73 82.32 64.26 82.63 64.75 83.03 65.19 83.60 65.61 84.45 66.04 85.58 66.47 86.99 66.90 88.68 67.34 90.39 67.76 91.86 68.17 93.09 68.56 94.07 68.92 94.82 69.27 95.68 69.78 96.44 70.36 97.12 70.98 97.69 71.65 98.17 72.38 98.56 73.16 98.86 73.98 99.08 74.85 99.20 75.77 99.24 76.73 99.19 77.70 99.04 78.64 98.80 79.56 98.45 80.46 98.00 81.33 97.46 82.16 96.83 82.90 96.11 83.57 95.31 84.17 94.42 84.69 93.46 85.12 92.46 85.45 91.41 85.69 90.32 85.84 89.17 85.88 87.74 85.83 86.41 85.68 85.17 85.42 84.03 85.06 82.98 84.59 82.03 84.02 81.16 83.35 80.38 82.57 79.68 81.69 79.07 80.70 78.55 79.64 78.15 78.52 77.85 77.34 77.66 76.11 77.58 74.83 Z M 104.44 85.40 L 104.46 54.64 114.74 54.64 115.78 54.66 116.71 54.69 117.54 54.75 118.26 54.83 118.89 54.94 119.67 55.11 120.39 55.35 121.07 55.63 121.69 55.98 122.26 56.37 122.78 56.83 123.26 57.36 123.69 57.96 124.09 58.62 124.44 59.35 124.73 60.13 124.96 60.94 125.13 61.78 125.23 62.64 125.26 63.54 125.17 65.07 124.90 66.49 124.45 67.82 123.83 69.05 123.02 70.19 121.99 71.17 120.66 71.93 119.05 72.47 117.15 72.80 114.97 72.91 107.92 72.91 107.90 85.40 Z M 107.92 69.06 L 115.17 69.06 116.52 69.01 117.71 68.84 118.73 68.55 119.59 68.16 120.28 67.65 120.82 67.04 121.25 66.34 121.55 65.54 121.73 64.66 121.79 63.68 121.76 62.95 121.65 62.27 121.47 61.64 121.22 61.04 120.90 60.49 120.53 60.00 120.11 59.58 119.64 59.23 119.13 58.96 118.57 58.75 118.13 58.66 117.56 58.58 116.87 58.53 116.05 58.50 115.10 58.49 107.93 58.49 Z" />
<path fill="none" stroke="rgb(0,0,255)" stroke-width="2" d=" M 41 41 L 162 41 162 102 41 102 41 41 Z" />
</svg>
